<svg xmlns="http://www.w3.org/2000/svg" width="68" height="68" viewBox="0 0 68 68">
  <g id="Grupo_1029174" data-name="Grupo 1029174" transform="translate(-922 -8524)">
    <rect id="Rectángulo_361821" data-name="Rectángulo 361821" width="68" height="68" transform="translate(922 8524)" fill="none"/>
    <g id="_071-workflow" data-name="071-workflow" transform="translate(924 8525)">
      <g id="Grupo_1029142" data-name="Grupo 1029142" transform="translate(11.287 18.125)">
        <path id="Trazado_776561" data-name="Trazado 776561" d="M114.384,143.06a11.333,11.333,0,0,1,1.72-6.016,1.185,1.185,0,0,0-.232-.023h-3.358a1.19,1.19,0,0,0-1.19,1.19v2.606a14.035,14.035,0,0,0-4.877,2.022l-1.844-1.844a1.189,1.189,0,0,0-1.682,0l-2.375,2.375a1.189,1.189,0,0,0,0,1.682l1.844,1.844a14.034,14.034,0,0,0-2.022,4.877H97.762a1.19,1.19,0,0,0-1.19,1.19v3.358a1.189,1.189,0,0,0,1.19,1.19h2.606a14.033,14.033,0,0,0,2.022,4.877l-1.844,1.844a1.189,1.189,0,0,0,0,1.682l2.375,2.375a1.19,1.19,0,0,0,1.682,0l1.844-1.844a14.037,14.037,0,0,0,4.877,2.022v2.606a1.189,1.189,0,0,0,1.19,1.189h3.358a1.19,1.19,0,0,0,1.19-1.189v-2.606a14.036,14.036,0,0,0,4.877-2.022l1.844,1.844a1.19,1.19,0,0,0,1.682,0l2.375-2.375a1.189,1.189,0,0,0,0-1.682L126,162.387a14.033,14.033,0,0,0,2.022-4.877h2.606a1.19,1.19,0,0,0,1.19-1.19v-3.358a1.2,1.2,0,0,0-.023-.232,11.389,11.389,0,0,1-17.406-9.67Z" transform="translate(-96.572 -137.02)" fill="#2d54fe"/>
      </g>
      <g id="Grupo_1029143" data-name="Grupo 1029143" transform="translate(19.493 12.774)">
        <path id="Trazado_776562" data-name="Trazado 776562" d="M179.6,96.572a11.389,11.389,0,0,0-11.18,13.567h0c-.133-.006-.267-.01-.4-.01a9.416,9.416,0,1,0,9.416,9.416c0-.135,0-.268-.01-.4a11.39,11.39,0,1,0,2.176-22.57Z" transform="translate(-158.599 -96.572)" fill="#ecf4f7"/>
      </g>
      <g id="Grupo_1029144" data-name="Grupo 1029144" transform="translate(0.661 0.66)">
        <path id="Trazado_776563" data-name="Trazado 776563" d="M49.356,7.514,46.507,5.183a.811.811,0,0,0-1.324.627v.742A30.921,30.921,0,0,0,16.245,37.41h3.307A27.651,27.651,0,0,1,45.184,9.866v.605a.811.811,0,0,0,1.324.627l2.849-2.331a.81.81,0,0,0,0-1.255Z" transform="translate(-16.245 -5)" fill="#ffca00"/>
      </g>
      <g id="Grupo_1029145" data-name="Grupo 1029145" transform="translate(29.098 33.07)">
        <path id="Trazado_776564" data-name="Trazado 776564" d="M231.505,279.9l2.849,2.331a.811.811,0,0,0,1.324-.627v-.742A30.921,30.921,0,0,0,264.616,250h-3.307a27.651,27.651,0,0,1-25.632,27.543v-.605a.811.811,0,0,0-1.324-.627l-2.849,2.331a.811.811,0,0,0,0,1.255Z" transform="translate(-231.208 -249.999)" fill="#ffca00"/>
      </g>
      <g id="Grupo_1029146" data-name="Grupo 1029146" transform="translate(32.356 16.03)">
        <path id="Trazado_776565" data-name="Trazado 776565" d="M272.107,130.1v-1.55a.549.549,0,0,0-.549-.549h-1.851a5.848,5.848,0,0,0-.743-1.793l1.309-1.309a.549.549,0,0,0,0-.777l-1.1-1.1a.549.549,0,0,0-.777,0l-1.309,1.309a5.847,5.847,0,0,0-1.793-.743v-1.851a.549.549,0,0,0-.549-.549H263.2a.549.549,0,0,0-.549.549v1.851a5.847,5.847,0,0,0-1.793.743l-1.309-1.309a.549.549,0,0,0-.776,0l-1.1,1.1a.549.549,0,0,0,0,.777l1.309,1.309A5.847,5.847,0,0,0,258.24,128h-1.851a.549.549,0,0,0-.549.549v1.55a.549.549,0,0,0,.549.549h1.851a5.847,5.847,0,0,0,.743,1.793l-1.309,1.309a.549.549,0,0,0,0,.777l1.1,1.1a.549.549,0,0,0,.776,0l1.309-1.309a5.846,5.846,0,0,0,1.793.743v1.851a.549.549,0,0,0,.549.549h1.55a.549.549,0,0,0,.549-.549v-1.851a5.846,5.846,0,0,0,1.793-.743l1.309,1.309a.549.549,0,0,0,.777,0l1.1-1.1a.549.549,0,0,0,0-.777l-1.309-1.309a5.848,5.848,0,0,0,.743-1.793h1.851A.549.549,0,0,0,272.107,130.1Z" transform="translate(-255.839 -121.187)" fill="#fe502d"/>
      </g>
      <g id="Grupo_1029147" data-name="Grupo 1029147" transform="translate(37.467 21.142)">
        <ellipse id="Elipse_8812" data-name="Elipse 8812" cx="3.022" cy="3.022" rx="3.022" ry="3.022" fill="#aab1ba"/>
      </g>
      <path id="Trazado_776566" data-name="Trazado 776566" d="M74.413,33.078A31.584,31.584,0,0,1,45.474,64.55v.127a1.473,1.473,0,0,1-2.4,1.139l-2.849-2.331a1.472,1.472,0,0,1,0-2.278l2.849-2.33a1.472,1.472,0,0,1,2.4,1.025A27.043,27.043,0,0,0,69.783,33.078V24.289a.661.661,0,1,1,1.323,0v8.788a28.312,28.312,0,0,1-26.246,28.2.661.661,0,0,1-.709-.66v-.605a.149.149,0,0,0-.243-.115l-2.849,2.331a.149.149,0,0,0,0,.23l2.849,2.331a.149.149,0,0,0,.243-.115v-.742a.661.661,0,0,1,.62-.66,30.259,30.259,0,0,0,28.319-30.2.661.661,0,1,1,1.323,0ZM40.887,2.88a.662.662,0,0,0,.62-.66V1.478a.149.149,0,0,1,.243-.115L44.6,3.694a.149.149,0,0,1,0,.23L41.75,6.255a.149.149,0,0,1-.243-.115V5.534a.661.661,0,0,0-.709-.66,28.312,28.312,0,0,0-26.246,28.2v8.788a.661.661,0,0,0,1.323,0V33.078A27.043,27.043,0,0,1,40.188,6.254a1.472,1.472,0,0,0,2.4,1.025l2.849-2.33a1.472,1.472,0,0,0,0-2.278L42.588.339a1.472,1.472,0,0,0-2.4,1.139V1.6A31.584,31.584,0,0,0,11.245,33.078a.661.661,0,0,0,1.323,0A30.259,30.259,0,0,1,40.887,2.88ZM16.647,48.621h-.772v-.772a.661.661,0,1,0-1.323,0v.772h-.772a.661.661,0,1,0,0,1.323h.772v.772a.661.661,0,0,0,1.323,0v-.772h.772a.661.661,0,1,0,0-1.323Zm-1.433-4.508a.661.661,0,0,0-.661.661v.557a.661.661,0,0,0,1.323,0v-.557A.661.661,0,0,0,15.214,44.113Zm53.8-26.579h.772v.772a.661.661,0,1,0,1.323,0v-.772h.772a.661.661,0,1,0,0-1.323h-.772V15.44a.661.661,0,1,0-1.323,0v.772h-.772a.661.661,0,0,0,0,1.323Zm1.433,2.627a.661.661,0,0,0-.661.661v.557a.661.661,0,1,0,1.323,0v-.557A.661.661,0,0,0,70.444,20.161ZM51.735,12.12A12.052,12.052,0,1,1,39.683,24.171,12.065,12.065,0,0,1,51.735,12.12ZM41.006,24.171A10.729,10.729,0,1,0,51.735,13.443,10.741,10.741,0,0,0,41.006,24.171Zm-2.471,2.977a.661.661,0,1,0-.243-1.3A10.078,10.078,0,1,0,50.018,37.821a.661.661,0,1,0-1.295-.27,8.755,8.755,0,1,1-10.187-10.4Zm5.148,25.037V50.107A14.617,14.617,0,0,0,47.806,48.4l1.47,1.47a1.853,1.853,0,0,0,2.618,0l2.375-2.375a1.851,1.851,0,0,0,0-2.618l-1.47-1.47a14.621,14.621,0,0,0,1.709-4.122h2.077a1.853,1.853,0,0,0,1.851-1.851v-.84a.661.661,0,1,0-1.323,0v.84a.529.529,0,0,1-.528.528H53.979a.661.661,0,0,0-.648.528A13.325,13.325,0,0,1,51.4,43.135a.661.661,0,0,0,.085.831l1.844,1.844a.528.528,0,0,1,0,.747l-2.375,2.375a.529.529,0,0,1-.747,0l-1.844-1.844A.661.661,0,0,0,47.536,47a13.328,13.328,0,0,1-4.648,1.927.661.661,0,0,0-.528.648v2.606a.529.529,0,0,1-.528.528H38.474a.529.529,0,0,1-.528-.528V49.578a.661.661,0,0,0-.528-.648A13.33,13.33,0,0,1,32.771,47a.661.661,0,0,0-.831.085L30.1,48.932a.529.529,0,0,1-.747,0l-2.375-2.375a.528.528,0,0,1,0-.747l1.844-1.844a.661.661,0,0,0,.085-.831,13.325,13.325,0,0,1-1.927-4.648.661.661,0,0,0-.648-.528H23.722a.529.529,0,0,1-.528-.528V34.074a.529.529,0,0,1,.528-.528h2.606a.661.661,0,0,0,.648-.528A13.327,13.327,0,0,1,28.9,28.37a.661.661,0,0,0-.085-.831l-1.844-1.844a.528.528,0,0,1,0-.747l2.375-2.375a.541.541,0,0,1,.747,0l1.844,1.844a.662.662,0,0,0,.831.085,13.325,13.325,0,0,1,4.648-1.927.661.661,0,0,0,.528-.648V19.322a.529.529,0,0,1,.528-.528h.948a.661.661,0,0,0,0-1.323h-.948a1.853,1.853,0,0,0-1.851,1.851V21.4A14.614,14.614,0,0,0,32.5,23.109l-1.47-1.47a1.851,1.851,0,0,0-2.618,0l-2.375,2.375a1.851,1.851,0,0,0,0,2.618l1.47,1.47A14.624,14.624,0,0,0,25.8,32.223H23.722a1.853,1.853,0,0,0-1.851,1.851v3.358a1.853,1.853,0,0,0,1.851,1.851H25.8a14.617,14.617,0,0,0,1.709,4.122l-1.47,1.47a1.851,1.851,0,0,0,0,2.618l2.375,2.375a1.853,1.853,0,0,0,2.618,0L32.5,48.4a14.617,14.617,0,0,0,4.122,1.709v2.078a1.853,1.853,0,0,0,1.851,1.851h3.358A1.854,1.854,0,0,0,43.684,52.184Zm4.368-28.013a3.684,3.684,0,1,1,3.684,3.684A3.688,3.688,0,0,1,48.051,24.171Zm1.323,0a2.361,2.361,0,1,0,2.361-2.361A2.364,2.364,0,0,0,49.374,24.171Zm-6.434.775V23.4a1.212,1.212,0,0,1,1.211-1.211H45.5a6.5,6.5,0,0,1,.423-1.021l-.953-.953a1.212,1.212,0,0,1,0-1.712l1.1-1.1a1.212,1.212,0,0,1,1.712,0l.953.953a6.48,6.48,0,0,1,1.021-.423V16.586a1.212,1.212,0,0,1,1.211-1.211h1.55a1.212,1.212,0,0,1,1.211,1.211v1.347a6.482,6.482,0,0,1,1.021.423l.953-.953a1.212,1.212,0,0,1,1.712,0l1.1,1.1a1.212,1.212,0,0,1,0,1.712l-.953.953a6.492,6.492,0,0,1,.423,1.021H59.32A1.212,1.212,0,0,1,60.53,23.4v1.55a1.212,1.212,0,0,1-1.211,1.21H57.973a6.505,6.505,0,0,1-.423,1.021l.953.952a1.212,1.212,0,0,1,0,1.712l-1.1,1.1a1.212,1.212,0,0,1-1.712,0l-.953-.952a6.482,6.482,0,0,1-1.021.423v1.347a1.212,1.212,0,0,1-1.211,1.21H50.96a1.212,1.212,0,0,1-1.211-1.21V30.409a6.5,6.5,0,0,1-1.021-.423l-.953.952a1.212,1.212,0,0,1-1.712,0l-1.1-1.1a1.212,1.212,0,0,1,0-1.712l.953-.952a6.5,6.5,0,0,1-.423-1.021H44.15A1.212,1.212,0,0,1,42.94,24.946Zm1.323-.112H46a.661.661,0,0,1,.645.513,5.18,5.18,0,0,0,.659,1.591.661.661,0,0,1-.093.819l-1.23,1.23.937.937,1.23-1.23a.662.662,0,0,1,.819-.093,5.181,5.181,0,0,0,1.591.659.661.661,0,0,1,.513.644v1.739H52.4V29.9a.661.661,0,0,1,.513-.644A5.183,5.183,0,0,0,54.5,28.6a.662.662,0,0,1,.819.093l1.23,1.23.937-.937-1.23-1.23a.661.661,0,0,1-.093-.819,5.175,5.175,0,0,0,.659-1.591.661.661,0,0,1,.645-.513h1.739V23.509H57.468A.661.661,0,0,1,56.823,23a5.178,5.178,0,0,0-.659-1.591.661.661,0,0,1,.093-.819l1.23-1.23-.937-.938-1.23,1.23a.662.662,0,0,1-.819.093,5.174,5.174,0,0,0-1.591-.659.661.661,0,0,1-.513-.645V16.7H51.072v1.739a.661.661,0,0,1-.513.645,5.175,5.175,0,0,0-1.591.659.662.662,0,0,1-.819-.093l-1.23-1.23-.937.938,1.23,1.23a.661.661,0,0,1,.093.819A5.177,5.177,0,0,0,46.646,23a.661.661,0,0,1-.645.513H44.262v1.326Z" transform="translate(-11.245 -0.007)" fill="#1c1d21"/>
    </g>
  </g>
</svg>
