<svg xmlns="http://www.w3.org/2000/svg" xmlns:xlink="http://www.w3.org/1999/xlink" width="766.013" height="239.228" viewBox="0 0 766.013 239.228">
  <defs>
    <clipPath id="clip-path">
      <rect id="Rectángulo_358969" data-name="Rectángulo 358969" width="766.013" height="239.228" fill="none"/>
    </clipPath>
    <filter id="Trazado_762389" x="22.302" y="22.304" width="200.624" height="200.624" filterUnits="userSpaceOnUse">
      <feOffset dx="3" dy="3" input="SourceAlpha"/>
      <feGaussianBlur stdDeviation="3" result="blur"/>
      <feFlood flood-opacity="0.161"/>
      <feComposite operator="in" in2="blur"/>
      <feComposite in="SourceGraphic"/>
    </filter>
    <clipPath id="clip-path-2">
      <path id="Trazado_762412" data-name="Trazado 762412" d="M67.171,67.173a74.167,74.167,0,1,0,52.443-21.722A74.166,74.166,0,0,0,67.171,67.173" fill="none"/>
    </clipPath>
    <linearGradient id="linear-gradient" x1="-0.031" y1="1.015" x2="-0.027" y2="1.015" gradientUnits="objectBoundingBox">
      <stop offset="0" stop-color="#fdfdfd"/>
      <stop offset="0.397" stop-color="#f5f5f5"/>
      <stop offset="1" stop-color="#e0e0e0"/>
    </linearGradient>
    <filter id="Trazado_762415" x="285.815" y="22.302" width="200.624" height="200.624" filterUnits="userSpaceOnUse">
      <feOffset dx="3" dy="3" input="SourceAlpha"/>
      <feGaussianBlur stdDeviation="3" result="blur-2"/>
      <feFlood flood-opacity="0.161"/>
      <feComposite operator="in" in2="blur-2"/>
      <feComposite in="SourceGraphic"/>
    </filter>
    <clipPath id="clip-path-3">
      <path id="Trazado_762439" data-name="Trazado 762439" d="M330.684,67.171a74.167,74.167,0,1,0,52.443-21.722,74.165,74.165,0,0,0-52.443,21.722" fill="none"/>
    </clipPath>
    <linearGradient id="linear-gradient-2" x1="-1.202" y1="1.015" x2="-1.197" y2="1.015" xlink:href="#linear-gradient"/>
    <filter id="Trazado_762442" x="549.087" y="22.302" width="200.624" height="200.624" filterUnits="userSpaceOnUse">
      <feOffset dx="3" dy="3" input="SourceAlpha"/>
      <feGaussianBlur stdDeviation="3" result="blur-3"/>
      <feFlood flood-opacity="0.161"/>
      <feComposite operator="in" in2="blur-3"/>
      <feComposite in="SourceGraphic"/>
    </filter>
    <clipPath id="clip-path-4">
      <path id="Trazado_762461" data-name="Trazado 762461" d="M593.957,67.171A74.166,74.166,0,1,0,646.4,45.449a74.163,74.163,0,0,0-52.442,21.722" fill="none"/>
    </clipPath>
    <linearGradient id="linear-gradient-3" x1="-2.371" y1="1.015" x2="-2.367" y2="1.015" xlink:href="#linear-gradient"/>
  </defs>
  <g id="Grupo_1029244" data-name="Grupo 1029244" transform="translate(-417 -945)">
    <g id="Grupo_1024270" data-name="Grupo 1024270" transform="translate(417 945)">
      <g id="Grupo_1024269" data-name="Grupo 1024269" clip-path="url(#clip-path)">
        <path id="Trazado_762388" data-name="Trazado 762388" d="M35.265,35.268a118.822,118.822,0,0,1,35.4-24.459v-.357a119.671,119.671,0,0,0,0,218.329v-.359a119.253,119.253,0,0,1-35.4-193.154M229.819,73.05a119.962,119.962,0,0,0-61.264-62.6V10.8a119.346,119.346,0,0,1,0,217.626v.357A119.721,119.721,0,0,0,229.819,73.05" fill="#fe502d"/>
        <g transform="matrix(1, 0, 0, 1, 0, 0)" filter="url(#Trazado_762389)">
          <path id="Trazado_762389-2" data-name="Trazado 762389" d="M210.926,119.616A91.312,91.312,0,1,1,119.614,28.3a91.312,91.312,0,0,1,91.312,91.312" fill="#fe502d"/>
        </g>
        <path id="Trazado_762390" data-name="Trazado 762390" d="M18.939,162.154a108.692,108.692,0,0,0,17.849,28.74l-1.62,1.62A111.691,111.691,0,0,1,16.834,76.189a112.32,112.32,0,0,1,6.155-12.363,1.142,1.142,0,0,1,1.979,1.141,109.879,109.879,0,0,0-6.029,12.112,109.594,109.594,0,0,0,0,85.075" fill="#fe502d"/>
        <path id="Trazado_762391" data-name="Trazado 762391" d="M120.765,230.034a1.143,1.143,0,0,1-1.142,1.142,111.219,111.219,0,0,1-72.918-27.125l1.62-1.618a108.933,108.933,0,0,0,71.3,26.459,1.142,1.142,0,0,1,1.142,1.142" fill="#fe502d"/>
        <path id="Trazado_762392" data-name="Trazado 762392" d="M31.465,70.042a1.122,1.122,0,0,0,.572.155,1.142,1.142,0,0,0,.989-.569l.041-.071a1.143,1.143,0,1,0-1.977-1.146l-.04.071a1.14,1.14,0,0,0,.415,1.56" fill="#fe502d"/>
        <path id="Trazado_762393" data-name="Trazado 762393" d="M145.409,23.013l.155.042a1.179,1.179,0,0,0,.3.039,1.142,1.142,0,0,0,.3-2.245l-.16-.043a1.142,1.142,0,0,0-.589,2.207" fill="#fe502d"/>
        <path id="Trazado_762394" data-name="Trazado 762394" d="M157.792,27.209l.149.062a1.142,1.142,0,1,0,.877-2.109l-.153-.064a1.142,1.142,0,0,0-.873,2.111" fill="#fe502d"/>
        <path id="Trazado_762395" data-name="Trazado 762395" d="M198.971,58.815a1.142,1.142,0,1,0,1.81-1.393l-.1-.129a1.142,1.142,0,0,0-1.811,1.392Z" fill="#fe502d"/>
        <path id="Trazado_762396" data-name="Trazado 762396" d="M132.58,20.486l.161.021a1.257,1.257,0,0,0,.149.01,1.142,1.142,0,0,0,.147-2.275l-.163-.021a1.142,1.142,0,1,0-.294,2.265" fill="#fe502d"/>
        <path id="Trazado_762397" data-name="Trazado 762397" d="M180.4,40.246l.129.1a1.142,1.142,0,0,0,1.392-1.811l-.13-.1a1.142,1.142,0,1,0-1.391,1.812" fill="#fe502d"/>
        <path id="Trazado_762398" data-name="Trazado 762398" d="M119.527,19.657h.164a1.142,1.142,0,0,0,0-2.284h-.164a1.142,1.142,0,0,0,0,2.284" fill="#fe502d"/>
        <path id="Trazado_762399" data-name="Trazado 762399" d="M169.525,32.983l.141.081a1.142,1.142,0,1,0,1.142-1.978L170.666,31a1.142,1.142,0,0,0-1.141,1.979" fill="#fe502d"/>
        <path id="Trazado_762400" data-name="Trazado 762400" d="M190.346,48.983a1.142,1.142,0,0,0,1.614-1.615l-.114-.116a1.143,1.143,0,0,0-1.617,1.616Z" fill="#fe502d"/>
        <path id="Trazado_762401" data-name="Trazado 762401" d="M80.839,27.363a1.131,1.131,0,0,0,.438-.088l.149-.061a1.142,1.142,0,0,0-.872-2.112l-.154.064a1.142,1.142,0,0,0,.439,2.2" fill="#fe502d"/>
        <path id="Trazado_762402" data-name="Trazado 762402" d="M58,40.589a1.139,1.139,0,0,0,.7-.238l.127-.1a1.142,1.142,0,1,0-1.391-1.812l-.131.1a1.142,1.142,0,0,0,.7,2.047" fill="#fe502d"/>
        <path id="Trazado_762403" data-name="Trazado 762403" d="M48.067,49.326a1.14,1.14,0,0,0,.808-.335l.117-.117a1.142,1.142,0,0,0-1.619-1.612l-.114.114a1.142,1.142,0,0,0,.808,1.95" fill="#fe502d"/>
        <path id="Trazado_762404" data-name="Trazado 762404" d="M38.649,59.034a1.142,1.142,0,0,0,1.6-.211l.1-.127a1.143,1.143,0,0,0-1.81-1.4l-.1.132a1.142,1.142,0,0,0,.211,1.6" fill="#fe502d"/>
        <path id="Trazado_762405" data-name="Trazado 762405" d="M106.327,20.518a1.08,1.08,0,0,0,.15-.01l.159-.021a1.142,1.142,0,1,0-.291-2.265l-.165.021a1.142,1.142,0,0,0,.147,2.275" fill="#fe502d"/>
        <path id="Trazado_762406" data-name="Trazado 762406" d="M93.356,23.1a1.177,1.177,0,0,0,.3-.039l.156-.042a1.142,1.142,0,0,0-.589-2.207l-.159.042a1.143,1.143,0,0,0,.3,2.246" fill="#fe502d"/>
        <path id="Trazado_762407" data-name="Trazado 762407" d="M68.982,33.224a1.14,1.14,0,0,0,.571-.154l.141-.081a1.142,1.142,0,0,0-1.143-1.978l-.142.082a1.142,1.142,0,0,0,.573,2.131" fill="#fe502d"/>
        <path id="Trazado_762408" data-name="Trazado 762408" d="M220.715,117.24a2.376,2.376,0,1,0,2.376,2.377,2.379,2.379,0,0,0-2.376-2.377" fill="#fe502d"/>
        <path id="Trazado_762409" data-name="Trazado 762409" d="M275.571,118.475H228.227a7.616,7.616,0,0,0-6.642-6.4,101.458,101.458,0,0,0-7.767-32.256,102.615,102.615,0,0,0-5.64-11.332h0l-.041-.07a1.142,1.142,0,0,0-1.977,1.143l.041.069v0a100.32,100.32,0,0,1,5.513,11.079,99.134,99.134,0,0,1,7.586,31.449,7.6,7.6,0,0,0,0,14.925,99.884,99.884,0,0,1-99.687,92.5,1.142,1.142,0,1,0,0,2.284,102.17,102.17,0,0,0,101.972-94.7,7.616,7.616,0,0,0,6.642-6.4h47.344a1.142,1.142,0,1,0,0-2.284m-54.856,6.454a5.313,5.313,0,1,1,5.312-5.312,5.319,5.319,0,0,1-5.312,5.312" fill="#fe502d"/>
        <path id="Trazado_762410" data-name="Trazado 762410" d="M46.623,197.508a4.895,4.895,0,1,1-4.9-4.895,4.895,4.895,0,0,1,4.9,4.895" fill="#fe502d"/>
        <path id="Trazado_762411" data-name="Trazado 762411" d="M43.777,197.508a2.048,2.048,0,1,1-2.048-2.048,2.048,2.048,0,0,1,2.048,2.048" fill="#fff"/>
      </g>
    </g>
    <g id="Grupo_1024272" data-name="Grupo 1024272" transform="translate(417 945)">
      <g id="Grupo_1024271" data-name="Grupo 1024271" clip-path="url(#clip-path-2)">
        <rect id="Rectángulo_358970" data-name="Rectángulo 358970" width="225.131" height="225.131" transform="translate(-39.577 123.237) rotate(-45)" fill="url(#linear-gradient)"/>
      </g>
    </g>
    <path id="Trazado_762413" data-name="Trazado 762413" d="M68.994,69a71.587,71.587,0,1,1,0,101.239A71.587,71.587,0,0,1,68.994,69" transform="translate(416.973 945)" fill="#f3f4f5"/>
    <path id="Trazado_762414" data-name="Trazado 762414" d="M429.692,229.82a119.738,119.738,0,0,0,65.124-153.1l-.254.251a119.352,119.352,0,0,1-154.637,153.86l-.251.251a119.98,119.98,0,0,0,90.018-1.264M263.839,119.614A119.357,119.357,0,0,1,425.149,7.943l.252-.253A119.684,119.684,0,0,0,270.99,161.325l.255-.253a118.633,118.633,0,0,1-7.406-41.458" transform="translate(417 945)" fill="#ffca00"/>
    <g transform="matrix(1, 0, 0, 1, 417, 945)" filter="url(#Trazado_762415)">
      <path id="Trazado_762415-2" data-name="Trazado 762415" d="M474.439,119.614A91.312,91.312,0,1,1,383.127,28.3a91.312,91.312,0,0,1,91.312,91.312" fill="#ffca00"/>
    </g>
    <path id="Trazado_762416" data-name="Trazado 762416" d="M338.51,14.012a113.576,113.576,0,0,1,36.459-8.729V7.572A112.007,112.007,0,0,0,303.7,40.184a112.535,112.535,0,0,0-17.711,22.974,1.142,1.142,0,1,1-1.974-1.149,115.1,115.1,0,0,1,54.5-48" transform="translate(417 945)" fill="#ffca00"/>
    <path id="Trazado_762417" data-name="Trazado 762417" d="M481.992,63.856a1.142,1.142,0,0,1-1.56-.418,112.837,112.837,0,0,0-53.577-47.323,111.315,111.315,0,0,0-35.57-8.543V5.283a114.306,114.306,0,0,1,72.889,33.285A114.811,114.811,0,0,1,482.41,62.3a1.142,1.142,0,0,1-.418,1.56" transform="translate(417 945)" fill="#ffca00"/>
    <path id="Trazado_762418" data-name="Trazado 762418" d="M471.693,68.482a1.142,1.142,0,1,0-1.977,1.143l.039.069a1.142,1.142,0,1,0,1.98-1.14Z" transform="translate(417 945)" fill="#ffca00"/>
    <path id="Trazado_762419" data-name="Trazado 762419" d="M479.574,89.173a1.142,1.142,0,0,0-.762,1.424l.041.134a1.142,1.142,0,1,0,2.188-.656l-.043-.14a1.143,1.143,0,0,0-1.424-.762" transform="translate(417 945)" fill="#ffca00"/>
    <path id="Trazado_762420" data-name="Trazado 762420" d="M477,79.048l-.059-.136a1.142,1.142,0,0,0-2.093.914l.055.128a1.142,1.142,0,0,0,2.1-.906" transform="translate(417 945)" fill="#ffca00"/>
    <path id="Trazado_762421" data-name="Trazado 762421" d="M481.5,101.756l.025.141a1.143,1.143,0,0,0,1.123.94,1.079,1.079,0,0,0,.2-.018,1.142,1.142,0,0,0,.923-1.325l-.026-.142a1.142,1.142,0,1,0-2.248.4" transform="translate(417 945)" fill="#ffca00"/>
    <path id="Trazado_762422" data-name="Trazado 762422" d="M383.208,219.572h-.081a99.883,99.883,0,0,1-99.685-92.493,7.6,7.6,0,0,0,0-14.926,99.121,99.121,0,0,1,7.587-31.45,100.259,100.259,0,0,1,5.656-11.328,1.142,1.142,0,1,0-1.974-1.148,103.148,103.148,0,0,0-5.787,11.585,101.467,101.467,0,0,0-7.766,32.258,7.6,7.6,0,0,0,0,15.092,102.162,102.162,0,0,0,101.97,94.694h.081a1.142,1.142,0,1,0,0-2.284M276.713,119.616a5.313,5.313,0,1,1,5.312,5.312,5.318,5.318,0,0,1-5.312-5.312" transform="translate(417 945)" fill="#ffca00"/>
    <path id="Trazado_762423" data-name="Trazado 762423" d="M431.33,207.209l-.136.075a1.142,1.142,0,1,0,1.1,2l.139-.076a1.142,1.142,0,0,0-1.1-2" transform="translate(417 945)" fill="#ffca00"/>
    <path id="Trazado_762424" data-name="Trazado 762424" d="M395.731,218.79l-.152.019a1.142,1.142,0,0,0,.138,2.276,1.109,1.109,0,0,0,.14-.009l.16-.02a1.142,1.142,0,0,0-.286-2.266" transform="translate(417 945)" fill="#ffca00"/>
    <path id="Trazado_762425" data-name="Trazado 762425" d="M419.98,212.558l-.141.056a1.142,1.142,0,0,0,.836,2.126l.15-.06a1.142,1.142,0,1,0-.845-2.122" transform="translate(417 945)" fill="#ffca00"/>
    <path id="Trazado_762426" data-name="Trazado 762426" d="M441.917,200.476l-.128.094a1.142,1.142,0,1,0,1.344,1.846l.126-.091a1.142,1.142,0,0,0-1.342-1.849" transform="translate(417 945)" fill="#ffca00"/>
    <path id="Trazado_762427" data-name="Trazado 762427" d="M408.053,216.444l-.148.038a1.142,1.142,0,1,0,.564,2.213l.156-.039a1.142,1.142,0,0,0-.572-2.212" transform="translate(417 945)" fill="#ffca00"/>
    <path id="Trazado_762428" data-name="Trazado 762428" d="M451.57,192.468l-.113.1a1.143,1.143,0,0,0,1.563,1.667l.116-.109a1.142,1.142,0,0,0-1.566-1.663" transform="translate(417 945)" fill="#ffca00"/>
    <path id="Trazado_762429" data-name="Trazado 762429" d="M482.668,137.47a1.144,1.144,0,0,0-1.335.91l-.028.15a1.142,1.142,0,0,0,2.243.432l.03-.157a1.142,1.142,0,0,0-.91-1.335" transform="translate(417 945)" fill="#ffca00"/>
    <path id="Trazado_762430" data-name="Trazado 762430" d="M475.108,161.643a1.142,1.142,0,0,0-1.518.55l-.065.138a1.142,1.142,0,0,0,2.065.976l.068-.146a1.141,1.141,0,0,0-.55-1.518" transform="translate(417 945)" fill="#ffca00"/>
    <path id="Trazado_762431" data-name="Trazado 762431" d="M479.655,149.8a1.143,1.143,0,0,0-1.439.734l-.048.146a1.142,1.142,0,0,0,.731,1.441,1.156,1.156,0,0,0,.355.057,1.141,1.141,0,0,0,1.085-.788l.049-.151a1.142,1.142,0,0,0-.733-1.439" transform="translate(417 945)" fill="#ffca00"/>
    <path id="Trazado_762432" data-name="Trazado 762432" d="M469.124,172.832a1.143,1.143,0,0,0-1.578.349l-.084.132a1.142,1.142,0,0,0,1.926,1.228l.085-.132a1.144,1.144,0,0,0-.349-1.577" transform="translate(417 945)" fill="#ffca00"/>
    <path id="Trazado_762433" data-name="Trazado 762433" d="M461.769,183.172a1.142,1.142,0,0,0-1.608.153l-.1.117a1.142,1.142,0,0,0,1.755,1.462l.1-.124a1.142,1.142,0,0,0-.153-1.608" transform="translate(417 945)" fill="#ffca00"/>
    <path id="Trazado_762434" data-name="Trazado 762434" d="M284.4,119.616a2.376,2.376,0,1,0-2.376,2.376,2.379,2.379,0,0,0,2.376-2.376" transform="translate(417 945)" fill="#ffca00"/>
    <path id="Trazado_762435" data-name="Trazado 762435" d="M484.228,117.24a2.376,2.376,0,1,0,2.376,2.377,2.379,2.379,0,0,0-2.376-2.377" transform="translate(417 945)" fill="#ffca00"/>
    <path id="Trazado_762436" data-name="Trazado 762436" d="M538.844,118.475h-47.1a7.609,7.609,0,0,0-7.288-6.45,1.128,1.128,0,0,0-.919.028,7.6,7.6,0,0,0,0,15.126,1.084,1.084,0,0,0,.426.111c.023,0,.046,0,.068,0a1.148,1.148,0,0,0,.43-.084,7.609,7.609,0,0,0,7.286-6.449h47.1a1.142,1.142,0,1,0,0-2.284m-54.615,6.454a5.313,5.313,0,1,1,5.312-5.312,5.319,5.319,0,0,1-5.312,5.312" transform="translate(417 945)" fill="#ffca00"/>
    <path id="Trazado_762437" data-name="Trazado 762437" d="M388.022,6.425a4.895,4.895,0,1,1-4.895-4.9,4.895,4.895,0,0,1,4.895,4.9" transform="translate(417 945)" fill="#ffca00"/>
    <path id="Trazado_762438" data-name="Trazado 762438" d="M385.175,6.425a2.048,2.048,0,1,1-2.048-2.048,2.048,2.048,0,0,1,2.048,2.048" transform="translate(417 945)" fill="#fff"/>
    <path id="Trazado_776612" data-name="Trazado 776612" d="M0,0H766.013V239.228H0Z" transform="translate(417 945)" fill="none"/>
    <g id="Grupo_1024276" data-name="Grupo 1024276" transform="translate(417 945)">
      <g id="Grupo_1024275" data-name="Grupo 1024275" clip-path="url(#clip-path-3)">
        <rect id="Rectángulo_358972" data-name="Rectángulo 358972" width="225.131" height="225.131" transform="translate(223.936 123.235) rotate(-45)" fill="url(#linear-gradient-2)"/>
      </g>
    </g>
    <path id="Trazado_762440" data-name="Trazado 762440" d="M332.508,68.994a71.587,71.587,0,1,1,0,101.239,71.587,71.587,0,0,1,0-101.239" transform="translate(417.459 945)" fill="#f3f4f5"/>
    <path id="Trazado_762441" data-name="Trazado 762441" d="M758.1,76.749l-.252.253a119.353,119.353,0,0,1-153.5,154.272l-.252.252a119.675,119.675,0,0,0,154-154.777M688.45,7.954,688.7,7.7a119.679,119.679,0,0,0-154,154.78l.253-.254A119.353,119.353,0,0,1,688.45,7.954" transform="translate(417 945)" fill="#2d54fe"/>
    <g transform="matrix(1, 0, 0, 1, 417, 945)" filter="url(#Trazado_762442)">
      <path id="Trazado_762442-2" data-name="Trazado 762442" d="M737.711,119.614A91.312,91.312,0,1,1,646.4,28.3a91.312,91.312,0,0,1,91.312,91.312" fill="#2d54fe"/>
    </g>
    <path id="Trazado_762443" data-name="Trazado 762443" d="M717.665,202.454l1.62,1.62a111.24,111.24,0,0,1-72.895,27.1,1.142,1.142,0,1,1,0-2.284,108.935,108.935,0,0,0,71.275-26.438" transform="translate(417 945)" fill="#2d54fe"/>
    <path id="Trazado_762444" data-name="Trazado 762444" d="M757.953,119.613a111.218,111.218,0,0,1-27.128,72.928l-1.62-1.62A109.406,109.406,0,0,0,747.077,77.075a110.084,110.084,0,0,0-5.963-12,1.142,1.142,0,1,1,1.98-1.138,112.293,112.293,0,0,1,6.088,12.248,110.9,110.9,0,0,1,8.771,43.427" transform="translate(417 945)" fill="#2d54fe"/>
    <path id="Trazado_762445" data-name="Trazado 762445" d="M735.024,68.588a102.314,102.314,0,0,0-177.251,0l0,0a102.979,102.979,0,0,0-5.577,11.223,101.44,101.44,0,0,0-7.766,32.252,7.6,7.6,0,0,0,.644,15.138,1.147,1.147,0,0,0,.43.083h.075a1.2,1.2,0,0,0,.419-.11,7.6,7.6,0,0,0,.716-15.027A99.126,99.126,0,0,1,554.3,80.7a100.139,100.139,0,0,1,5.453-10.975,99.078,99.078,0,0,1,7.275-10.894,100.8,100.8,0,0,1,8.69-9.9,100.032,100.032,0,0,1,157.328,20.8,1.142,1.142,0,1,0,1.979-1.141M550.61,119.611A5.313,5.313,0,1,1,545.3,114.3a5.32,5.32,0,0,1,5.312,5.312" transform="translate(417 945)" fill="#2d54fe"/>
    <path id="Trazado_762446" data-name="Trazado 762446" d="M577.95,192.462a1.142,1.142,0,0,0-1.566,1.663l.116.109a1.142,1.142,0,1,0,1.562-1.666Z" transform="translate(417 945)" fill="#2d54fe"/>
    <path id="Trazado_762447" data-name="Trazado 762447" d="M587.732,200.565l-.127-.092a1.142,1.142,0,0,0-1.344,1.846l.126.092a1.142,1.142,0,1,0,1.345-1.846" transform="translate(417 945)" fill="#2d54fe"/>
    <path id="Trazado_762448" data-name="Trazado 762448" d="M551.308,150.519a1.142,1.142,0,1,0-2.173.7l.05.153a1.142,1.142,0,0,0,2.17-.712Z" transform="translate(417 945)" fill="#2d54fe"/>
    <path id="Trazado_762449" data-name="Trazado 762449" d="M569.357,183.316a1.142,1.142,0,0,0-1.758,1.458l.1.121a1.142,1.142,0,1,0,1.758-1.459Z" transform="translate(417 945)" fill="#2d54fe"/>
    <path id="Trazado_762450" data-name="Trazado 762450" d="M548.191,138.367a1.142,1.142,0,1,0-2.244.425l.03.157a1.142,1.142,0,0,0,2.243-.431Z" transform="translate(417 945)" fill="#2d54fe"/>
    <path id="Trazado_762451" data-name="Trazado 762451" d="M561.976,173.174a1.142,1.142,0,1,0-1.928,1.225l.087.136a1.142,1.142,0,1,0,1.923-1.233Z" transform="translate(417 945)" fill="#2d54fe"/>
    <path id="Trazado_762452" data-name="Trazado 762452" d="M555.931,162.181a1.142,1.142,0,0,0-2.066.974l.067.142a1.142,1.142,0,1,0,2.066-.974Z" transform="translate(417 945)" fill="#2d54fe"/>
    <path id="Trazado_762453" data-name="Trazado 762453" d="M621.617,216.481l-.149-.038a1.142,1.142,0,1,0-.571,2.212l.154.039a1.157,1.157,0,0,0,.284.036,1.142,1.142,0,0,0,.282-2.249" transform="translate(417 945)" fill="#2d54fe"/>
    <path id="Trazado_762454" data-name="Trazado 762454" d="M598.325,207.279l-.134-.074a1.142,1.142,0,1,0-1.1,2l.14.077a1.142,1.142,0,0,0,1.1-2" transform="translate(417 945)" fill="#2d54fe"/>
    <path id="Trazado_762455" data-name="Trazado 762455" d="M633.938,218.808l-.148-.018a1.142,1.142,0,1,0-.286,2.266l.162.02a1.059,1.059,0,0,0,.137.008,1.142,1.142,0,0,0,.135-2.276" transform="translate(417 945)" fill="#2d54fe"/>
    <path id="Trazado_762456" data-name="Trazado 762456" d="M609.684,212.613l-.146-.058a1.142,1.142,0,1,0-.842,2.123l.146.058a1.142,1.142,0,1,0,.842-2.123" transform="translate(417 945)" fill="#2d54fe"/>
    <path id="Trazado_762457" data-name="Trazado 762457" d="M646.318,221.857h.082a1.142,1.142,0,0,0,0-2.284h-.082a1.142,1.142,0,0,0,0,2.284" transform="translate(417 945)" fill="#2d54fe"/>
    <path id="Trazado_762458" data-name="Trazado 762458" d="M542.922,119.611a2.375,2.375,0,1,0,2.376-2.376,2.379,2.379,0,0,0-2.376,2.376" transform="translate(417 945)" fill="#2d54fe"/>
    <path id="Trazado_762459" data-name="Trazado 762459" d="M729.19,197.508a4.895,4.895,0,1,1-4.9-4.895,4.895,4.895,0,0,1,4.9,4.895" transform="translate(417 945)" fill="#2d54fe"/>
    <path id="Trazado_762460" data-name="Trazado 762460" d="M726.344,197.508a2.048,2.048,0,1,1-2.049-2.048,2.049,2.049,0,0,1,2.049,2.048" transform="translate(417 945)" fill="#fff"/>
    <path id="Trazado_776613" data-name="Trazado 776613" d="M0,0H766.013V239.228H0Z" transform="translate(417 945)" fill="none"/>
    <g id="Grupo_1024280" data-name="Grupo 1024280" transform="translate(417 945)">
      <g id="Grupo_1024279" data-name="Grupo 1024279" clip-path="url(#clip-path-4)">
        <rect id="Rectángulo_358974" data-name="Rectángulo 358974" width="225.131" height="225.131" transform="translate(487.207 123.234) rotate(-45)" fill="url(#linear-gradient-3)"/>
      </g>
    </g>
    <path id="Trazado_762462" data-name="Trazado 762462" d="M595.78,68.994a71.587,71.587,0,1,1,0,101.239,71.587,71.587,0,0,1,0-101.239" transform="translate(417.188 945)" fill="#f3f4f5"/>
    <path id="Trazado_776614" data-name="Trazado 776614" d="M0,0H766.013V239.228H0Z" transform="translate(417 945)" fill="none"/>
    <path id="Trazado_776615" data-name="Trazado 776615" d="M47.2,3.625l2.922,8.25,2.906-8.25h3.078V15H53.754V11.891l.234-5.367L50.918,15H49.309L46.246,6.531l.234,5.359V15H44.137V3.625Zm14.7,11.531a4.15,4.15,0,0,1-3.027-1.141A4.054,4.054,0,0,1,57.7,10.977v-.219a5.106,5.106,0,0,1,.492-2.277,3.612,3.612,0,0,1,1.395-1.547,3.914,3.914,0,0,1,2.059-.543,3.508,3.508,0,0,1,2.73,1.094,4.444,4.444,0,0,1,1,3.1v.922H59.988a2.1,2.1,0,0,0,.66,1.328,2,2,0,0,0,1.395.5,2.437,2.437,0,0,0,2.039-.945l1.109,1.242a3.389,3.389,0,0,1-1.375,1.121A4.511,4.511,0,0,1,61.895,15.156Zm-.258-6.945a1.411,1.411,0,0,0-1.09.455,2.357,2.357,0,0,0-.535,1.3h3.141V9.788a1.681,1.681,0,0,0-.406-1.165A1.456,1.456,0,0,0,61.637,8.211Zm4.664,2.5a5.094,5.094,0,0,1,.887-3.148,2.877,2.877,0,0,1,2.426-1.172,2.589,2.589,0,0,1,2.039.922V3h2.266V15H71.879l-.109-.9A2.657,2.657,0,0,1,69.6,15.156,2.869,2.869,0,0,1,67.2,13.98,5.258,5.258,0,0,1,66.3,10.711Zm2.258.161a3.355,3.355,0,0,0,.414,1.829,1.348,1.348,0,0,0,1.2.636,1.51,1.51,0,0,0,1.477-.887V9.1a1.489,1.489,0,0,0-1.461-.887Q68.559,8.211,68.559,10.872ZM78.051,15H75.785V6.547h2.266Zm-2.4-10.641a1.112,1.112,0,0,1,.34-.836,1.465,1.465,0,0,1,1.848,0,1.105,1.105,0,0,1,.344.836,1.108,1.108,0,0,1-.348.844A1.448,1.448,0,0,1,76,5.2,1.108,1.108,0,0,1,75.652,4.359Zm9.008,4.3a6.134,6.134,0,0,0-.812-.062,1.654,1.654,0,0,0-1.68.867V15H79.91V6.547h2.133l.063,1.008a2.092,2.092,0,0,1,1.883-1.164,2.366,2.366,0,0,1,.7.1Z" transform="translate(474 1089)" fill="#12263f"/>
    <path id="Trazado_776616" data-name="Trazado 776616" d="M55.375,11.211A4.025,4.025,0,0,1,54.02,14.1,4.76,4.76,0,0,1,50.8,15.156a4.281,4.281,0,0,1-3.441-1.473A6.038,6.038,0,0,1,46.1,9.641v-.7a6.819,6.819,0,0,1,.578-2.891,4.332,4.332,0,0,1,1.652-1.918A5.164,5.164,0,0,1,54,4.523a4.326,4.326,0,0,1,1.391,2.961H53.047a2.376,2.376,0,0,0-.613-1.6,2.271,2.271,0,0,0-1.605-.5,1.991,1.991,0,0,0-1.754.84,4.707,4.707,0,0,0-.6,2.605V9.7a5.038,5.038,0,0,0,.559,2.7,1.954,1.954,0,0,0,1.762.852,2.314,2.314,0,0,0,1.621-.5,2.241,2.241,0,0,0,.613-1.535Zm1.039-.516A5.013,5.013,0,0,1,56.9,8.453,3.546,3.546,0,0,1,58.293,6.93a4.069,4.069,0,0,1,2.113-.539A3.849,3.849,0,0,1,63.2,7.438a4.2,4.2,0,0,1,1.207,2.844l.016.578a4.418,4.418,0,0,1-1.086,3.121,4.209,4.209,0,0,1-5.832,0,4.5,4.5,0,0,1-1.09-3.187Zm2.258.16a3.16,3.16,0,0,0,.453,1.843,1.628,1.628,0,0,0,2.578.008,3.457,3.457,0,0,0,.461-2.015A3.128,3.128,0,0,0,61.7,8.86a1.5,1.5,0,0,0-1.3-.649,1.474,1.474,0,0,0-1.281.646A3.516,3.516,0,0,0,58.672,10.856Zm9.219-4.309.07.977a2.951,2.951,0,0,1,2.43-1.133,2.453,2.453,0,0,1,2,.789,3.682,3.682,0,0,1,.672,2.359V15H70.8V9.581a1.47,1.47,0,0,0-.312-1.045,1.4,1.4,0,0,0-1.039-.325,1.553,1.553,0,0,0-1.43.814V15H65.766V6.547Zm9.586-2.078V6.547h1.445V8.2H77.477v4.219a1.007,1.007,0,0,0,.18.672.9.9,0,0,0,.688.2,3.6,3.6,0,0,0,.664-.055v1.711a4.648,4.648,0,0,1-1.367.2,2.156,2.156,0,0,1-2.422-2.4V8.2H73.984V6.547h1.234V4.469Zm7.453,4.2a6.134,6.134,0,0,0-.812-.062,1.654,1.654,0,0,0-1.68.867V15H80.18V6.547h2.133l.063,1.008a2.092,2.092,0,0,1,1.883-1.164,2.366,2.366,0,0,1,.7.1Zm.453,2.031a5.013,5.013,0,0,1,.484-2.242A3.546,3.546,0,0,1,87.262,6.93a4.069,4.069,0,0,1,2.113-.539,3.849,3.849,0,0,1,2.793,1.047,4.2,4.2,0,0,1,1.207,2.844l.016.578A4.418,4.418,0,0,1,92.3,13.98a4.209,4.209,0,0,1-5.832,0,4.5,4.5,0,0,1-1.09-3.187Zm2.258.16a3.16,3.16,0,0,0,.453,1.843,1.628,1.628,0,0,0,2.578.008,3.457,3.457,0,0,0,.461-2.015,3.128,3.128,0,0,0-.461-1.831,1.5,1.5,0,0,0-1.3-.649,1.474,1.474,0,0,0-1.281.646A3.516,3.516,0,0,0,87.641,10.856ZM97.164,15H94.9V3h2.266Zm6.758,0a2.507,2.507,0,0,1-.227-.758,2.732,2.732,0,0,1-2.133.914,3,3,0,0,1-2.059-.719,2.312,2.312,0,0,1-.816-1.812,2.389,2.389,0,0,1,1-2.062,4.915,4.915,0,0,1,2.879-.727H103.6V9.352a1.393,1.393,0,0,0-.3-.937,1.183,1.183,0,0,0-.949-.352,1.345,1.345,0,0,0-.895.273.929.929,0,0,0-.324.75H98.875a2.268,2.268,0,0,1,.453-1.359,3,3,0,0,1,1.281-.98,4.669,4.669,0,0,1,1.859-.355,3.689,3.689,0,0,1,2.48.785,2.747,2.747,0,0,1,.918,2.207v3.664a4.041,4.041,0,0,0,.336,1.82V15Zm-1.867-1.57a1.945,1.945,0,0,0,.922-.223,1.462,1.462,0,0,0,.625-.6V11.156h-.844q-1.7,0-1.8,1.172l-.008.133a.9.9,0,0,0,.3.7A1.153,1.153,0,0,0,102.055,13.43Zm10.3-4.766a6.134,6.134,0,0,0-.812-.062,1.654,1.654,0,0,0-1.68.867V15H107.6V6.547h2.133l.063,1.008a2.092,2.092,0,0,1,1.883-1.164,2.366,2.366,0,0,1,.7.1Z" transform="translate(721 1089)" fill="#12263f"/>
    <path id="Trazado_776617" data-name="Trazado 776617" d="M28.047,12.016A1.2,1.2,0,0,0,27.578,11a6.148,6.148,0,0,0-1.687-.75,11.963,11.963,0,0,1-1.93-.777,3.153,3.153,0,0,1-1.937-2.82A2.747,2.747,0,0,1,22.543,5a3.389,3.389,0,0,1,1.492-1.129,5.616,5.616,0,0,1,2.184-.406,5.112,5.112,0,0,1,2.172.441,3.458,3.458,0,0,1,1.48,1.246A3.261,3.261,0,0,1,30.4,6.984H28.055a1.534,1.534,0,0,0-.492-1.215,2.023,2.023,0,0,0-1.383-.434,2.162,2.162,0,0,0-1.336.363,1.146,1.146,0,0,0-.477.957,1.1,1.1,0,0,0,.559.93,6.311,6.311,0,0,0,1.645.7,7.106,7.106,0,0,1,2.914,1.492A2.972,2.972,0,0,1,30.4,12a2.737,2.737,0,0,1-1.117,2.316,4.891,4.891,0,0,1-3.008.84,5.808,5.808,0,0,1-2.391-.48,3.783,3.783,0,0,1-1.645-1.316,3.371,3.371,0,0,1-.566-1.937h2.352q0,1.883,2.25,1.883a2.189,2.189,0,0,0,1.3-.34A1.106,1.106,0,0,0,28.047,12.016Zm7.68,3.141A4.15,4.15,0,0,1,32.7,14.016a4.054,4.054,0,0,1-1.168-3.039v-.219a5.106,5.106,0,0,1,.492-2.277,3.612,3.612,0,0,1,1.395-1.547,3.914,3.914,0,0,1,2.059-.543,3.508,3.508,0,0,1,2.73,1.094,4.444,4.444,0,0,1,1,3.1v.922H33.82a2.1,2.1,0,0,0,.66,1.328,2,2,0,0,0,1.395.5,2.437,2.437,0,0,0,2.039-.945l1.109,1.242a3.389,3.389,0,0,1-1.375,1.121A4.511,4.511,0,0,1,35.727,15.156Zm-.258-6.945a1.411,1.411,0,0,0-1.09.455,2.357,2.357,0,0,0-.535,1.3h3.141V9.788a1.681,1.681,0,0,0-.406-1.165A1.456,1.456,0,0,0,35.469,8.211Zm4.688,2.5a4.954,4.954,0,0,1,.926-3.133,3,3,0,0,1,2.5-1.187,2.631,2.631,0,0,1,2.164.953l.094-.8h2.047v8.172a3.613,3.613,0,0,1-.5,1.93,3.236,3.236,0,0,1-1.418,1.25,4.985,4.985,0,0,1-2.141.43,4.635,4.635,0,0,1-1.812-.371A3.217,3.217,0,0,1,40.672,17l1-1.375a2.645,2.645,0,0,0,2.047.945,1.936,1.936,0,0,0,1.4-.48,1.8,1.8,0,0,0,.5-1.363v-.453a2.612,2.612,0,0,1-2.055.883A2.992,2.992,0,0,1,41.1,13.965a4.953,4.953,0,0,1-.941-3.16Zm2.258.161a3.1,3.1,0,0,0,.461,1.809,1.465,1.465,0,0,0,1.266.655,1.567,1.567,0,0,0,1.477-.777V8.988a1.563,1.563,0,0,0-1.461-.777,1.474,1.474,0,0,0-1.277.667A3.5,3.5,0,0,0,42.414,10.872ZM54.68,14.141a2.831,2.831,0,0,1-2.312,1.016,2.67,2.67,0,0,1-2.074-.781,3.335,3.335,0,0,1-.73-2.289V6.547H51.82v5.467q0,1.322,1.2,1.322a1.63,1.63,0,0,0,1.578-.8V6.547h2.266V15H54.742ZM60.953,15H58.688V6.547h2.266Zm-2.4-10.641a1.112,1.112,0,0,1,.34-.836,1.465,1.465,0,0,1,1.848,0,1.105,1.105,0,0,1,.344.836,1.108,1.108,0,0,1-.348.844,1.448,1.448,0,0,1-1.836,0A1.108,1.108,0,0,1,58.555,4.359ZM64.93,6.547l.07.945a2.971,2.971,0,0,1,2.43-1.1A2.255,2.255,0,0,1,69.672,7.68a2.9,2.9,0,0,1,2.539-1.289,2.521,2.521,0,0,1,2.047.8A3.681,3.681,0,0,1,74.93,9.6V15H72.664V9.6a1.616,1.616,0,0,0-.281-1.053,1.245,1.245,0,0,0-.992-.333,1.409,1.409,0,0,0-1.406.971L69.992,15H67.734V9.6a1.6,1.6,0,0,0-.289-1.065,1.257,1.257,0,0,0-.984-.329,1.463,1.463,0,0,0-1.391.8V15H62.813V6.547ZM79.047,15H76.781V6.547h2.266Zm-2.4-10.641a1.112,1.112,0,0,1,.34-.836,1.465,1.465,0,0,1,1.848,0,1.105,1.105,0,0,1,.344.836,1.108,1.108,0,0,1-.348.844A1.448,1.448,0,0,1,77,5.2,1.108,1.108,0,0,1,76.648,4.359Zm8.148,10.8a4.15,4.15,0,0,1-3.027-1.141A4.054,4.054,0,0,1,80.6,10.977v-.219a5.106,5.106,0,0,1,.492-2.277,3.612,3.612,0,0,1,1.395-1.547,3.914,3.914,0,0,1,2.059-.543,3.508,3.508,0,0,1,2.73,1.094,4.444,4.444,0,0,1,1,3.1v.922H82.891a2.1,2.1,0,0,0,.66,1.328,2,2,0,0,0,1.395.5,2.437,2.437,0,0,0,2.039-.945l1.109,1.242a3.389,3.389,0,0,1-1.375,1.121A4.511,4.511,0,0,1,84.8,15.156Zm-.258-6.945a1.411,1.411,0,0,0-1.09.455,2.357,2.357,0,0,0-.535,1.3h3.141V9.788a1.681,1.681,0,0,0-.406-1.165A1.456,1.456,0,0,0,84.539,8.211Zm7.094-1.664.07.977a2.951,2.951,0,0,1,2.43-1.133,2.453,2.453,0,0,1,2,.789A3.682,3.682,0,0,1,96.8,9.539V15H94.547V9.581a1.47,1.47,0,0,0-.312-1.045A1.4,1.4,0,0,0,93.2,8.211a1.553,1.553,0,0,0-1.43.814V15H89.508V6.547Zm9.586-2.078V6.547h1.445V8.2h-1.445v4.219a1.007,1.007,0,0,0,.18.672.9.9,0,0,0,.688.2,3.6,3.6,0,0,0,.664-.055v1.711a4.648,4.648,0,0,1-1.367.2,2.156,2.156,0,0,1-2.422-2.4V8.2H97.727V6.547h1.234V4.469Zm2.117,6.227a5.013,5.013,0,0,1,.484-2.242,3.546,3.546,0,0,1,1.395-1.523,4.069,4.069,0,0,1,2.113-.539,3.849,3.849,0,0,1,2.793,1.047,4.2,4.2,0,0,1,1.207,2.844l.016.578a4.418,4.418,0,0,1-1.086,3.121,4.209,4.209,0,0,1-5.832,0,4.5,4.5,0,0,1-1.09-3.187Zm2.258.16a3.16,3.16,0,0,0,.453,1.843,1.628,1.628,0,0,0,2.578.008,3.457,3.457,0,0,0,.461-2.015,3.128,3.128,0,0,0-.461-1.831,1.5,1.5,0,0,0-1.3-.649,1.474,1.474,0,0,0-1.281.646A3.516,3.516,0,0,0,105.594,10.856Z" transform="translate(997 1089)" fill="#12263f"/>
    <g id="_047-deadline" data-name="047-deadline" transform="translate(769 1011)">
      <g id="Grupo_1029075" data-name="Grupo 1029075" transform="translate(0.718 0.718)">
        <g id="Grupo_1029074" data-name="Grupo 1029074">
          <path id="Trazado_776529" data-name="Trazado 776529" d="M94.058,25.754,97.4,22.413a.888.888,0,0,0,0-1.256L95.422,19.18a.888.888,0,0,0-1.256,0L90.8,22.549a29.809,29.809,0,0,0-16.3-6.9V10.822h1.975a.971.971,0,0,0,.971-.971V5.971A.971.971,0,0,0,76.473,5H66.537a.971.971,0,0,0-.971.971V9.85a.971.971,0,0,0,.971.971h1.975v4.832a29.808,29.808,0,0,0-16.3,6.9L48.844,19.18a.888.888,0,0,0-1.256,0l-1.977,1.977a.888.888,0,0,0,0,1.256l3.341,3.341a29.94,29.94,0,1,0,45.106,0Z" transform="translate(-41.565 -5)" fill="#aab1ba"/>
        </g>
      </g>
      <g id="Grupo_1029077" data-name="Grupo 1029077" transform="translate(5.279 15.783)">
        <g id="Grupo_1029076" data-name="Grupo 1029076">
          <ellipse id="Elipse_8806" data-name="Elipse 8806" cx="25.38" cy="25.38" rx="25.38" ry="25.38" fill="#fe502d"/>
        </g>
      </g>
      <g id="Grupo_1029079" data-name="Grupo 1029079" transform="translate(16.305 32.606)">
        <g id="Grupo_1029078" data-name="Grupo 1029078">
          <path id="Trazado_776530" data-name="Trazado 776530" d="M150.077,226.992v29.489a25.385,25.385,0,0,0,28.706,0V233.6l-6.61-6.61h-22.1Z" transform="translate(-150.077 -226.992)" fill="#ecf4f7"/>
        </g>
      </g>
      <g id="Grupo_1029081" data-name="Grupo 1029081" transform="translate(21.445 40.36)">
        <g id="Grupo_1029080" data-name="Grupo 1029080">
          <path id="Trazado_776531" data-name="Trazado 776531" d="M204.283,291.071v-1.756a.622.622,0,0,0-.622-.622h-2.1a6.624,6.624,0,0,0-.842-2.031l1.483-1.483a.622.622,0,0,0,0-.88l-1.242-1.242a.622.622,0,0,0-.88,0L198.6,284.54a6.627,6.627,0,0,0-2.032-.842v-2.1a.622.622,0,0,0-.622-.622h-1.756a.622.622,0,0,0-.622.622v2.1a6.625,6.625,0,0,0-2.032.842l-1.483-1.483a.622.622,0,0,0-.88,0l-1.242,1.242a.622.622,0,0,0,0,.88l1.483,1.483a6.627,6.627,0,0,0-.842,2.031h-2.1a.622.622,0,0,0-.622.622v1.756a.622.622,0,0,0,.622.622h2.1a6.625,6.625,0,0,0,.842,2.032l-1.483,1.483a.622.622,0,0,0,0,.88l1.242,1.242a.622.622,0,0,0,.88,0l1.483-1.483a6.627,6.627,0,0,0,2.032.842v2.1a.622.622,0,0,0,.622.622h1.756a.622.622,0,0,0,.622-.622v-2.1a6.625,6.625,0,0,0,2.032-.842l1.483,1.483a.622.622,0,0,0,.88,0l1.242-1.242a.622.622,0,0,0,0-.88l-1.483-1.483a6.626,6.626,0,0,0,.842-2.032h2.1A.622.622,0,0,0,204.283,291.071Z" transform="translate(-185.856 -280.979)" fill="#ffca00"/>
        </g>
      </g>
      <g id="Grupo_1029083" data-name="Grupo 1029083" transform="translate(27.235 46.151)">
        <g id="Grupo_1029082" data-name="Grupo 1029082">
          <ellipse id="Elipse_8807" data-name="Elipse 8807" cx="3.424" cy="3.424" rx="3.424" ry="3.424" fill="#aab1ba"/>
        </g>
      </g>
      <g id="Grupo_1029085" data-name="Grupo 1029085" transform="translate(38.402 32.606)">
        <g id="Grupo_1029084" data-name="Grupo 1029084">
          <path id="Trazado_776532" data-name="Trazado 776532" d="M303.909,226.993v6.61h6.61Z" transform="translate(-303.909 -226.993)" fill="#aab1ba"/>
        </g>
      </g>
      <path id="Trazado_776533" data-name="Trazado 776533" d="M50.5,6.54a.718.718,0,0,1,.718-.718h.838V4.984a.718.718,0,1,1,1.436,0v.838h.838a.718.718,0,0,1,0,1.436h-.838V8.1a.718.718,0,1,1-1.436,0V7.258H51.22A.718.718,0,0,1,50.5,6.54Zm29.612.718h.838V8.1a.718.718,0,1,0,1.436,0V7.258h.838a.718.718,0,0,0,0-1.436h-.838V4.984a.718.718,0,1,0-1.436,0v.838h-.838a.718.718,0,0,0,0,1.436ZM71.365,49.574a4.142,4.142,0,1,1-4.142-4.142A4.146,4.146,0,0,1,71.365,49.574Zm-1.436,0a2.705,2.705,0,1,0-2.705,2.705A2.708,2.708,0,0,0,69.929,49.574Zm7.226-.878v1.756a1.342,1.342,0,0,1-1.34,1.34H74.266a7.326,7.326,0,0,1-.494,1.193l1.1,1.1a1.342,1.342,0,0,1,0,1.9l-1.242,1.242a1.342,1.342,0,0,1-1.9,0l-1.1-1.1a7.309,7.309,0,0,1-1.193.494v1.549a1.342,1.342,0,0,1-1.34,1.34H66.345a1.342,1.342,0,0,1-1.34-1.34V56.617a7.334,7.334,0,0,1-1.193-.494l-1.1,1.095a1.342,1.342,0,0,1-1.9,0L59.58,55.976a1.342,1.342,0,0,1,0-1.9l1.1-1.1a7.308,7.308,0,0,1-.494-1.193H58.632a1.342,1.342,0,0,1-1.34-1.34V48.7a1.342,1.342,0,0,1,1.34-1.34h1.549a7.327,7.327,0,0,1,.494-1.193l-1.1-1.1a1.34,1.34,0,0,1,0-1.9l1.242-1.242a1.34,1.34,0,0,1,1.9,0l1.095,1.095a7.307,7.307,0,0,1,1.193-.494V40.982a1.342,1.342,0,0,1,1.34-1.34H68.1a1.342,1.342,0,0,1,1.34,1.34v1.549a7.314,7.314,0,0,1,1.193.494L71.73,41.93a1.34,1.34,0,0,1,1.9,0l1.242,1.242a1.34,1.34,0,0,1,0,1.9l-1.095,1.095a7.3,7.3,0,0,1,.494,1.193h1.549A1.342,1.342,0,0,1,77.155,48.7Zm-1.436.1h-2a.718.718,0,0,1-.7-.557,5.894,5.894,0,0,0-.75-1.811.718.718,0,0,1,.1-.889l1.415-1.415-1.106-1.105-1.415,1.415a.719.719,0,0,1-.889.1,5.893,5.893,0,0,0-1.811-.75.718.718,0,0,1-.557-.7v-2H66.441v2a.718.718,0,0,1-.557.7,5.889,5.889,0,0,0-1.811.75.718.718,0,0,1-.889-.1l-1.415-1.415L60.663,44.12l1.415,1.415a.718.718,0,0,1,.1.889,5.9,5.9,0,0,0-.75,1.811.718.718,0,0,1-.7.557h-2v1.564h2a.718.718,0,0,1,.7.557,5.9,5.9,0,0,0,.75,1.811.718.718,0,0,1-.1.889l-1.415,1.415,1.106,1.105,1.415-1.415a.719.719,0,0,1,.889-.1,5.9,5.9,0,0,0,1.811.75.718.718,0,0,1,.557.7v2H68v-2a.718.718,0,0,1,.557-.7,5.889,5.889,0,0,0,1.811-.75.719.719,0,0,1,.889.1l1.415,1.415,1.106-1.106-1.415-1.415a.718.718,0,0,1-.1-.889,5.894,5.894,0,0,0,.75-1.811.718.718,0,0,1,.7-.557h2V48.792Zm22.163-7.63A30.658,30.658,0,0,1,67.223,71.821H41.843a.718.718,0,1,1,0-1.436H57.906A30.649,30.649,0,0,1,43.7,21.52l-2.882-2.882a1.606,1.606,0,0,1,0-2.272L42.8,14.39a1.606,1.606,0,0,1,2.272,0l2.918,2.918A30.519,30.519,0,0,1,63.512,10.73V7.258H62.255a1.691,1.691,0,0,1-1.689-1.69V1.69A1.691,1.691,0,0,1,62.255,0h9.936a1.691,1.691,0,0,1,1.689,1.69V5.569a1.691,1.691,0,0,1-1.689,1.69H70.935V10.73a30.519,30.519,0,0,1,15.523,6.578l2.918-2.918a1.606,1.606,0,0,1,2.272,0l1.977,1.977a1.606,1.606,0,0,1,0,2.272L90.743,21.52A30.518,30.518,0,0,1,97.881,41.163ZM87.568,18.23a31,31,0,0,1,2.237,2.2l2.8-2.8a.17.17,0,0,0,0-.24l-1.977-1.977a.17.17,0,0,0-.24,0ZM62.255,5.822h9.936a.253.253,0,0,0,.253-.253V1.69a.253.253,0,0,0-.253-.253H62.255A.253.253,0,0,0,62,1.69V5.569A.253.253,0,0,0,62.255,5.822Zm3.319,4.728.239-.011q.242-.011.483-.018l.232-.006c.232-.005.464-.009.7-.009s.463,0,.7.009l.232.006q.242.007.483.018l.239.011q.313.017.626.039V7.258h-4.55v3.33C65.156,10.573,65.365,10.56,65.574,10.549ZM41.837,17.623l2.8,2.8a31,31,0,0,1,2.237-2.2l-2.824-2.824a.17.17,0,0,0-.24,0l-1.977,1.977a.17.17,0,0,0,0,.24ZM96.445,41.163a29.261,29.261,0,0,0-26.578-29.1c-.147-.013-.293-.027-.44-.038l-.141-.009a29.7,29.7,0,0,0-4.127,0l-.141.009c-.147.011-.293.025-.44.038a29.221,29.221,0,1,0,31.866,29.1Zm-3.124,0a26.1,26.1,0,1,1-26.1-26.1A26.127,26.127,0,0,1,93.321,41.163Zm-1.436,0A24.662,24.662,0,1,0,67.223,65.824,24.69,24.69,0,0,0,91.885,41.163ZM67.223,21.206a.718.718,0,0,0,.718-.718v-.9a.718.718,0,1,0-1.436,0v.9A.718.718,0,0,0,67.223,21.206ZM81.97,25.4l-.636.636a.718.718,0,0,0,1.016,1.016l.636-.636A.718.718,0,0,0,81.97,25.4ZM88.8,40.444h-.9a.718.718,0,0,0,0,1.436h.9a.718.718,0,0,0,0-1.436Zm-42.248,0h-.9a.718.718,0,0,0,0,1.436h.9a.718.718,0,0,0,0-1.436Zm6.563-13.393a.718.718,0,0,0,0-1.016l-.636-.636a.718.718,0,1,0-1.016,1.016l.636.636a.718.718,0,0,0,1.016,0ZM82.293,39.2s0,.009,0,.014V59.037a.718.718,0,0,1-1.436,0v-19.1H74.967a.718.718,0,0,1-.718-.718V33.324H53.588V59.037a.718.718,0,0,1-1.436,0V32.606a.718.718,0,0,1,.718-.718H74.982a.713.713,0,0,1,.125.012h.005a.72.72,0,0,1,.115.035l.036.016a.728.728,0,0,1,.08.043l.033.021a.7.7,0,0,1,.095.078l0,0,3.3,3.3,3.3,3.3a.706.706,0,0,1,.082.1l.019.03a.7.7,0,0,1,.045.084c0,.011.01.022.014.033a.713.713,0,0,1,.037.121h0A.7.7,0,0,1,82.293,39.2Zm-6.608-.7h4.157l-2.079-2.079L75.685,34.34ZM38.254,70.384h-.971a.718.718,0,0,0,0,1.436h.971a.718.718,0,1,0,0-1.436Z" transform="translate(-36.565)" fill="#1c1d21"/>
    </g>
    <g id="_046-file" data-name="046-file" transform="translate(512 1011)">
      <g id="Grupo_1029087" data-name="Grupo 1029087" transform="translate(2.327 15.499)">
        <g id="Grupo_1029086" data-name="Grupo 1029086">
          <path id="Trazado_776534" data-name="Trazado 776534" d="M121.718,108.2H92.3v44.946h37.663v-36.7Z" transform="translate(-92.3 -108.2)" fill="#ecf4f7"/>
        </g>
      </g>
      <g id="Grupo_1029089" data-name="Grupo 1029089" transform="translate(7.381 46.53)">
        <g id="Grupo_1029088" data-name="Grupo 1029088">
          <path id="Trazado_776535" data-name="Trazado 776535" d="M133.924,328.35l1.365-1.365a1.622,1.622,0,0,0-.029-2.313,1.662,1.662,0,0,0-2.313.057l-1.322,1.322L130.3,324.73a1.662,1.662,0,0,0-2.313-.057,1.622,1.622,0,0,0-.029,2.313l1.365,1.365-1.365,1.365a1.626,1.626,0,0,0,.029,2.327h0a1.618,1.618,0,0,0,2.255-.029l1.365-1.365,1.365,1.365a1.62,1.62,0,1,0,2.284-2.3Z" transform="translate(-127.487 -324.232)" fill="#fe502d"/>
        </g>
      </g>
      <g id="Grupo_1029092" data-name="Grupo 1029092" transform="translate(6.062 21.173)">
        <g id="Grupo_1029091" data-name="Grupo 1029091">
          <g id="Grupo_1029090" data-name="Grupo 1029090">
            <path id="Trazado_776536" data-name="Trazado 776536" d="M122.566,155.974a1.631,1.631,0,0,1-1.149-.474l-2.643-2.643a1.615,1.615,0,0,1,2.284-2.284l1.494,1.494,3.893-3.893a1.615,1.615,0,0,1,2.284,2.284l-5.013,5.042A1.657,1.657,0,0,1,122.566,155.974Z" transform="translate(-118.3 -147.7)" fill="#ffca00"/>
          </g>
        </g>
      </g>
      <g id="Grupo_1029095" data-name="Grupo 1029095" transform="translate(6.062 33.842)">
        <g id="Grupo_1029094" data-name="Grupo 1029094">
          <g id="Grupo_1029093" data-name="Grupo 1029093">
            <path id="Trazado_776537" data-name="Trazado 776537" d="M122.566,244.174a1.631,1.631,0,0,1-1.149-.474l-2.643-2.643a1.615,1.615,0,0,1,2.284-2.284l1.494,1.494,3.893-3.893a1.615,1.615,0,1,1,2.284,2.284l-5.013,5.042A1.657,1.657,0,0,1,122.566,244.174Z" transform="translate(-118.3 -235.9)" fill="#ffca00"/>
          </g>
        </g>
      </g>
      <g id="Grupo_1029096" data-name="Grupo 1029096" transform="translate(9.969 7.857)">
        <path id="Trazado_776538" data-name="Trazado 776538" d="M174.918,55H145.5v7.642h21.776v8.245h8.245v32.492h7.642V63.245Z" transform="translate(-145.5 -55)" fill="#aab1ba"/>
      </g>
      <path id="Trazado_776539" data-name="Trazado 776539" d="M116.765,23.886h0c-.014-.043-.014-.086-.043-.115a.05.05,0,0,0-.014-.029l-.043-.086c0-.014-.014-.014-.014-.029-.029-.029-.057-.072-.086-.1L108.3,15.3a.625.625,0,0,0-.1-.086c-.014-.014-.014-.014-.029-.014l-.086-.043a.05.05,0,0,1-.029-.014.338.338,0,0,0-.115-.029h0a.4.4,0,0,0-.129-.014H107.8l-28.7.043V10.369a.718.718,0,1,0-1.436,0l.014,5.473h0l.072,44.931a.711.711,0,0,0,.718.718l37.663-.072a.711.711,0,0,0,.718-.718l-.057-36.686V24C116.779,23.958,116.779,23.915,116.765,23.886Zm-2.428-.575-5.789.014-.014-5.789ZM79.188,60.055,79.116,16.56l27.981-.043.014,7.527a.711.711,0,0,0,.718.718l7.527-.014L115.415,60ZM77.651,3.288h-.833a.718.718,0,0,1,0-1.436h.833V1.018a.718.718,0,1,1,1.436,0v.833h.833a.718.718,0,0,1,0,1.436h-.833v.833a.718.718,0,1,1-1.436,0Zm1.436,3.433V7.4a.718.718,0,1,1-1.436,0V6.721A.711.711,0,0,1,78.37,6,.72.72,0,0,1,79.088,6.721Zm46.971,63.044a.711.711,0,0,1-.718.718h-.833v.833a.718.718,0,1,1-1.436,0v-.833h-.833a.718.718,0,0,1,0-1.436h.833v-.833a.718.718,0,1,1,1.436,0v.833h.833A.711.711,0,0,1,126.059,69.765Zm-1.566-4.841V65.6a.718.718,0,1,1-1.436,0v-.675a.711.711,0,0,1,.718-.718A.72.72,0,0,1,124.493,64.924Zm-1.436-7.714h-3.979a.718.718,0,0,1,0-1.436h3.979l-.072-39.114-7.843-7.814-28.4.043.014,4.266a.718.718,0,1,1-1.436,0l-.014-4.984a.711.711,0,0,1,.718-.718l29.418-.029a.674.674,0,0,1,.5.215l8.259,8.231a.732.732,0,0,1,.215.5l.072,40.134.014,5.473a.718.718,0,1,1-1.436,0ZM89.789,21.458l-3.376,3.39-.991-.991a2.336,2.336,0,1,0-3.3,3.3L84.762,29.8a2.255,2.255,0,0,0,1.652.675,2.388,2.388,0,0,0,1.652-.689l5.027-5.042a2.255,2.255,0,0,0,.675-1.652,2.327,2.327,0,0,0-3.979-1.638Zm2.3,2.284L87.06,28.784a.891.891,0,0,1-.632.259.867.867,0,0,1-.632-.259l-2.672-2.629a.906.906,0,0,1,0-1.278.891.891,0,0,1,.632-.259.845.845,0,0,1,.632.259L85.9,26.371a.738.738,0,0,0,1.02,0l3.893-3.907a.906.906,0,0,1,1.278,0,.891.891,0,0,1,.259.632A.937.937,0,0,1,92.087,23.742ZM89.8,34.113l-3.376,3.4-.991-.991a2.336,2.336,0,0,0-3.3,3.3l2.643,2.643a2.255,2.255,0,0,0,1.652.675,2.388,2.388,0,0,0,1.652-.689l5.027-5.042a2.255,2.255,0,0,0,.675-1.652A2.334,2.334,0,0,0,89.8,34.113ZM92.1,36.4l-5.027,5.042a.891.891,0,0,1-.632.259.867.867,0,0,1-.632-.259L83.167,38.8a.906.906,0,0,1,0-1.278.891.891,0,0,1,.632-.259.845.845,0,0,1,.632.259l1.508,1.494a.732.732,0,0,0,.5.215.674.674,0,0,0,.5-.215L90.838,35.1a.906.906,0,0,1,1.278,0,.891.891,0,0,1,.259.632A.931.931,0,0,1,92.1,36.4ZM92.49,48.42a2.305,2.305,0,0,0-.718-1.666,2.382,2.382,0,0,0-3.318.072l-.819.819-.819-.819a2.349,2.349,0,0,0-4.036,1.609,2.335,2.335,0,0,0,.689,1.666l.862.862-.862.862a2.3,2.3,0,0,0-.675,1.681,2.378,2.378,0,0,0,.733,1.666,2.345,2.345,0,0,0,1.609.646,2.317,2.317,0,0,0,1.652-.689l.862-.862.862.862a2.324,2.324,0,0,0,3.261.043A2.352,2.352,0,0,0,92.5,53.5a2.255,2.255,0,0,0-.689-1.681l-.862-.862.862-.862A2.3,2.3,0,0,0,92.49,48.42Zm-1.695.661L89.43,50.445a.732.732,0,0,0-.215.5.674.674,0,0,0,.215.5l1.365,1.365a.845.845,0,0,1,.259.646.872.872,0,0,1-.287.646.884.884,0,0,1-1.25-.014l-1.365-1.365a.738.738,0,0,0-1.02,0l-1.365,1.365a.884.884,0,0,1-1.25.014.993.993,0,0,1-.287-.646.9.9,0,0,1,.259-.646l1.365-1.365a.731.731,0,0,0,.215-.5.674.674,0,0,0-.215-.5l-1.365-1.365a.845.845,0,0,1-.259-.646.914.914,0,0,1,.273-.646.9.9,0,0,1,.6-.244.992.992,0,0,1,.689.287l1.336,1.322a.732.732,0,0,0,.5.215.674.674,0,0,0,.5-.215l1.322-1.336a.926.926,0,0,1,1.293-.057.914.914,0,0,1,.273.646A.8.8,0,0,1,90.795,49.081Zm14.68-19.334a.711.711,0,0,1-.718.718l-8.805.014a.718.718,0,1,1,0-1.436l8.805-.014A.72.72,0,0,1,105.475,29.747Zm3.706-.014a.711.711,0,0,1-.718.718h-.632a.718.718,0,0,1,0-1.436h.632A.74.74,0,0,1,109.181,29.732ZM105.489,42.4a.711.711,0,0,1-.718.718l-8.805.014a.718.718,0,0,1,0-1.436l8.805-.014A.711.711,0,0,1,105.489,42.4Zm3.706,0a.711.711,0,0,1-.718.718h-.632a.718.718,0,0,1,0-1.436h.632A.711.711,0,0,1,109.2,42.4Zm-3.677,12.655a.711.711,0,0,1-.718.718l-8.805.014a.718.718,0,1,1,0-1.436l8.805-.014A.73.73,0,0,1,105.518,55.056Zm3.706,0a.711.711,0,0,1-.718.718h-.632a.718.718,0,0,1,0-1.436h.632A.72.72,0,0,1,109.224,55.056Z" transform="translate(-76.1 -0.3)" fill="#1c1d21"/>
    </g>
    <g id="_067-human-resources-1" data-name="067-human-resources-1" transform="translate(1027 1011)">
      <g id="Grupo_1029098" data-name="Grupo 1029098" transform="translate(38.955 0.718)">
        <g id="Grupo_1029097" data-name="Grupo 1029097">
          <path id="Trazado_776540" data-name="Trazado 776540" d="M273.745,7.788,271.264,10.5a29.867,29.867,0,0,1,26.453,25.554l2.837,2.6,2.692-2.464A35.332,35.332,0,0,0,271.194,5Z" transform="translate(-271.194 -5)" fill="#ffca00"/>
        </g>
      </g>
      <g id="Grupo_1029100" data-name="Grupo 1029100" transform="translate(0.718 0.814)">
        <g id="Grupo_1029099" data-name="Grupo 1029099">
          <path id="Trazado_776541" data-name="Trazado 776541" d="M7.788,35.166,10.5,37.647A29.867,29.867,0,0,1,36.053,11.194l2.6-2.837L36.186,5.665A35.332,35.332,0,0,0,5,37.717Z" transform="translate(-5 -5.665)" fill="#fe502d"/>
        </g>
      </g>
      <g id="Grupo_1029102" data-name="Grupo 1029102" transform="translate(0.814 37.454)">
        <g id="Grupo_1029101" data-name="Grupo 1029101">
          <path id="Trazado_776542" data-name="Trazado 776542" d="M35.166,291.6l2.481-2.711a29.867,29.867,0,0,1-26.453-25.555l-2.837-2.6-2.692,2.464a35.332,35.332,0,0,0,32.052,31.185Z" transform="translate(-5.665 -260.742)" fill="#ffca00"/>
        </g>
      </g>
      <g id="Grupo_1029104" data-name="Grupo 1029104" transform="translate(37.454 38.955)">
        <g id="Grupo_1029103" data-name="Grupo 1029103">
          <path id="Trazado_776543" data-name="Trazado 776543" d="M291.6,273.745l-2.711-2.481a29.867,29.867,0,0,1-25.555,26.453l-2.6,2.837,2.464,2.692a35.333,35.333,0,0,0,31.186-32.053Z" transform="translate(-260.742 -271.194)" fill="#fe502d"/>
        </g>
      </g>
      <g id="Grupo_1029106" data-name="Grupo 1029106" transform="translate(11.591 11.591)">
        <g id="Grupo_1029105" data-name="Grupo 1029105">
          <ellipse id="Elipse_8808" data-name="Elipse 8808" cx="24.32" cy="24.32" rx="24.32" ry="24.32" fill="#aab1ba"/>
        </g>
      </g>
      <g id="Grupo_1029108" data-name="Grupo 1029108" transform="translate(16.441 16.441)">
        <g id="Grupo_1029107" data-name="Grupo 1029107">
          <ellipse id="Elipse_8809" data-name="Elipse 8809" cx="19.47" cy="19.47" rx="19.47" ry="19.47" fill="#d2e1f1"/>
        </g>
      </g>
      <g id="Grupo_1029110" data-name="Grupo 1029110" transform="translate(24.763 41.598)">
        <g id="Grupo_1029109" data-name="Grupo 1029109">
          <path id="Trazado_776544" data-name="Trazado 776544" d="M191.054,289.6H176.024a3.633,3.633,0,0,0-3.633,3.633v6.642a19.472,19.472,0,0,0,22.3,0v-6.642A3.633,3.633,0,0,0,191.054,289.6Z" transform="translate(-172.391 -289.596)" fill="#ecf4f7"/>
        </g>
      </g>
      <g id="Grupo_1029112" data-name="Grupo 1029112" transform="translate(33.944 41.598)">
        <g id="Grupo_1029111" data-name="Grupo 1029111">
          <path id="Trazado_776545" data-name="Trazado 776545" d="M236.761,289.6l-.454,13.684a19.683,19.683,0,0,0,3.934,0l-.454-13.684Z" transform="translate(-236.307 -289.595)" fill="#2d54fe"/>
        </g>
      </g>
      <g id="Grupo_1029114" data-name="Grupo 1029114" transform="translate(26.999 23.775)">
        <g id="Grupo_1029113" data-name="Grupo 1029113">
          <ellipse id="Elipse_8810" data-name="Elipse 8810" cx="8.912" cy="8.912" rx="8.912" ry="8.912" fill="#ffca00"/>
        </g>
      </g>
      <path id="Trazado_776546" data-name="Trazado 776546" d="M6.365,3.41a.718.718,0,0,1,.718-.718h.838V1.854a.718.718,0,0,1,1.436,0v.838h.838a.718.718,0,0,1,0,1.436H9.357v.838a.718.718,0,0,1-1.436,0V4.129H7.083A.718.718,0,0,1,6.365,3.41ZM64.739,67.691H63.9v-.838a.718.718,0,1,0-1.436,0v.838h-.838a.718.718,0,0,0,0,1.436h.838v.838a.718.718,0,0,0,1.436,0v-.838h.838a.718.718,0,0,0,0-1.436ZM60.949,35.91A25.038,25.038,0,1,1,35.911,10.872,25.067,25.067,0,0,1,60.949,35.91Zm-1.436,0a23.6,23.6,0,1,0-23.6,23.6A23.629,23.629,0,0,0,59.513,35.91Zm-3.414,0A20.188,20.188,0,1,1,35.911,15.722,20.211,20.211,0,0,1,56.1,35.91Zm-1.436,0A18.751,18.751,0,1,0,35.911,54.661,18.773,18.773,0,0,0,54.662,35.91ZM29.472,45.927a.718.718,0,0,0-.718.718v4.7a.718.718,0,0,0,1.436,0v-4.7A.718.718,0,0,0,29.472,45.927Zm12.878,0a.718.718,0,0,0-.718.718v4.7a.718.718,0,0,0,1.436,0v-4.7A.718.718,0,0,0,42.35,45.927Zm5.427-.7v3.258a.718.718,0,0,1-1.436,0V45.231a2.918,2.918,0,0,0-2.915-2.915h-5.26l.344,10.342a.718.718,0,0,1-.694.742h-.024a.718.718,0,0,1-.717-.694l-.345-10.389H35.093l-.345,10.389a.718.718,0,1,1-1.436-.048l.343-10.342H28.4a2.918,2.918,0,0,0-2.915,2.915v3.258a.718.718,0,0,1-1.436,0V45.231A4.356,4.356,0,0,1,28.4,40.879h2.462a9.63,9.63,0,1,1,10.1,0h2.462A4.356,4.356,0,0,1,47.777,45.231ZM35.911,40.879a8.193,8.193,0,1,0-8.193-8.193A8.2,8.2,0,0,0,35.911,40.879ZM38.894,1.433A34.651,34.651,0,0,1,70.251,31.622l-1.936,1.772-2.162-1.979A30.586,30.586,0,0,0,39.1,5.5a.718.718,0,1,0-.148,1.429A29.031,29.031,0,0,1,64.767,31.87a.718.718,0,0,0,.226.431l2.837,2.6a.718.718,0,0,0,.97,0l2.692-2.464a.719.719,0,0,0,.229-.61A36.091,36.091,0,0,0,39.016,0a.718.718,0,0,0-.122,1.431ZM.657,33.581l.062,0a.718.718,0,0,0,.715-.657A34.651,34.651,0,0,1,31.623,1.57l1.771,1.936L31.416,5.668A30.586,30.586,0,0,0,5.5,32.721a.718.718,0,0,0,1.429.148A29.03,29.03,0,0,1,31.87,7.054a.718.718,0,0,0,.431-.227L34.9,3.99a.718.718,0,0,0,0-.97L32.434.328A.715.715,0,0,0,31.824.1,36.09,36.09,0,0,0,0,32.8.718.718,0,0,0,.657,33.581Zm32.27,36.806A34.651,34.651,0,0,1,1.571,40.2l1.936-1.771,2.162,1.979A30.586,30.586,0,0,0,32.722,66.318a.718.718,0,0,0,.148-1.429A29.03,29.03,0,0,1,7.054,39.95a.717.717,0,0,0-.227-.431l-2.837-2.6a.718.718,0,0,0-.97,0L.329,39.387A.719.719,0,0,0,.1,40a36.09,36.09,0,0,0,32.7,31.82l.062,0a.718.718,0,0,0,.06-1.434ZM71.164,38.239a.716.716,0,0,0-.777.654A34.651,34.651,0,0,1,40.2,70.25l-1.771-1.936,1.979-2.162A30.586,30.586,0,0,0,66.319,39.1a.718.718,0,1,0-1.429-.148A29.03,29.03,0,0,1,39.951,64.766a.718.718,0,0,0-.431.227l-2.6,2.837a.718.718,0,0,0,0,.97l2.464,2.692a.718.718,0,0,0,.53.233.763.763,0,0,0,.081,0,36.09,36.09,0,0,0,31.82-32.7A.718.718,0,0,0,71.164,38.239ZM6.221,34.511a.718.718,0,0,0-.718.718v.495a.718.718,0,0,0,1.436,0v-.495A.718.718,0,0,0,6.221,34.511ZM36.314,1.436h.268a.718.718,0,1,0,0-1.436h-.268a.718.718,0,1,0,0,1.436ZM71.1,35.518a.718.718,0,0,0-.718.718v.332a.718.718,0,1,0,1.436,0v-.332A.718.718,0,0,0,71.1,35.518ZM35.954,70.384h-.309a.718.718,0,0,0,0,1.436h.309a.718.718,0,0,0,0-1.436Z" transform="translate(0 0.001)" fill="#1c1d21"/>
    </g>
  </g>
</svg>
