<svg xmlns="http://www.w3.org/2000/svg" width="68" height="68" viewBox="0 0 68 68">
  <g id="Grupo_1029171" data-name="Grupo 1029171" transform="translate(-302 -8524)">
    <rect id="Rectángulo_361819" data-name="Rectángulo 361819" width="68" height="68" transform="translate(302 8524)" fill="none"/>
    <g id="_025-exchange" data-name="025-exchange" transform="translate(309 8525)">
      <g id="Grupo_1029117" data-name="Grupo 1029117" transform="translate(0.661 45.114)">
        <g id="Grupo_1029116" data-name="Grupo 1029116">
          <path id="Trazado_776547" data-name="Trazado 776547" d="M55.3,358.431a.58.58,0,0,1-.58-.58v-8.64H57.5a1.482,1.482,0,0,0,1.147-2.42l-4.261-5.208a1.482,1.482,0,0,0-2.294,0l-4.261,5.208a1.482,1.482,0,0,0,1.147,2.42h2.779v8.64a3.547,3.547,0,0,0,3.543,3.543h6.95v-2.963Z" transform="translate(-47.492 -341.039)" fill="#ffca00"/>
        </g>
      </g>
      <g id="Grupo_1029119" data-name="Grupo 1029119" transform="translate(39.484 8.112)">
        <g id="Grupo_1029118" data-name="Grupo 1029118">
          <path id="Trazado_776548" data-name="Trazado 776548" d="M347.924,64.283a.58.58,0,0,1,.58.58V73.5h-2.779a1.482,1.482,0,0,0-1.147,2.42l4.261,5.208a1.482,1.482,0,0,0,2.294,0l4.261-5.208a1.482,1.482,0,0,0-1.147-2.42h-2.779v-8.64a3.547,3.547,0,0,0-3.543-3.543h-6.95v2.963Z" transform="translate(-340.974 -61.32)" fill="#ffca00"/>
        </g>
      </g>
      <g id="Grupo_1029121" data-name="Grupo 1029121" transform="translate(5.579 14.705)">
        <g id="Grupo_1029120" data-name="Grupo 1029120">
          <path id="Trazado_776549" data-name="Trazado 776549" d="M112.712,130.916q.006-.124.006-.249v-19.5H89.584v19.5a4.917,4.917,0,0,1-4.917,4.917h15.691v-4.668h12.354Z" transform="translate(-84.667 -111.165)" fill="#ecf4f7"/>
        </g>
      </g>
      <g id="Grupo_1029123" data-name="Grupo 1029123" transform="translate(0.661 8.112)">
        <g id="Grupo_1029122" data-name="Grupo 1029122">
          <path id="Trazado_776550" data-name="Trazado 776550" d="M47.493,61.32v26.1a4.917,4.917,0,1,0,9.835,0v-19.5H70.963V61.32Z" transform="translate(-47.493 -61.32)" fill="#aab1ba"/>
        </g>
      </g>
      <g id="Grupo_1029125" data-name="Grupo 1029125" transform="translate(26.184 41.062)">
        <g id="Grupo_1029124" data-name="Grupo 1029124">
          <path id="Trazado_776551" data-name="Trazado 776551" d="M268.483,310.4H245.348v19.5a4.917,4.917,0,0,1-4.917,4.917l22.034-.009a6.02,6.02,0,0,0,6.018-6.02V310.4Z" transform="translate(-240.431 -310.404)" fill="#ecf4f7"/>
        </g>
      </g>
      <g id="Grupo_1029127" data-name="Grupo 1029127" transform="translate(21.267 34.468)">
        <g id="Grupo_1029126" data-name="Grupo 1029126">
          <path id="Trazado_776552" data-name="Trazado 776552" d="M203.258,260.559v26.1a4.917,4.917,0,1,0,9.835,0v-19.5h13.635v-6.594Z" transform="translate(-203.258 -260.559)" fill="#aab1ba"/>
        </g>
      </g>
      <path id="Trazado_776553" data-name="Trazado 776553" d="M48.442,2.094a.661.661,0,0,1,.661-.661h.771V.661a.661.661,0,1,1,1.323,0v.771h.771a.661.661,0,1,1,0,1.323H51.2v.771a.661.661,0,1,1-1.323,0V2.756H49.1A.661.661,0,0,1,48.442,2.094Zm8.034.661h.771v.771a.661.661,0,0,0,1.323,0V2.756h.771a.661.661,0,0,0,0-1.323H58.57V.661a.661.661,0,0,0-1.323,0v.771h-.771a.661.661,0,1,0,0,1.323ZM43.154,17.319a.661.661,0,0,0,.661-.661v-.982a.661.661,0,1,0-1.323,0v.982A.661.661,0,0,0,43.154,17.319ZM60.913,38.463H51.675c.022-.018.042-.038.063-.056.041-.036.082-.072.122-.109l.089-.085c.039-.037.077-.075.114-.114l.085-.089c.037-.04.073-.08.109-.12l.08-.092c.036-.042.07-.085.1-.128s.049-.062.073-.093.069-.094.1-.141c.021-.03.043-.059.063-.089.037-.055.073-.111.109-.167.015-.024.031-.047.046-.072q.074-.121.142-.246L53,36.815c.037-.069.072-.138.106-.209.015-.03.028-.062.042-.092.026-.056.051-.113.075-.17.015-.035.028-.071.042-.107.021-.054.042-.108.061-.162.014-.038.026-.076.039-.115.018-.054.035-.107.051-.162s.023-.079.034-.119.029-.109.042-.164.019-.081.028-.121c.012-.056.023-.112.034-.169.007-.04.015-.08.022-.121.01-.059.018-.119.025-.179.005-.039.011-.077.015-.116.007-.066.012-.133.017-.2,0-.033.006-.066.008-.1.005-.1.008-.2.008-.3h0V15.367H75.462V31.743a.661.661,0,0,0,1.323,0V14.705a.661.661,0,0,0-.661-.661H67.285V8.112a.661.661,0,0,0-.661-.661H43.154a.661.661,0,0,0-.661.661v5.407a.661.661,0,1,0,1.323,0V8.773H65.962v5.271H52.989a.661.661,0,0,0-.661.661v19.5a4.256,4.256,0,0,1-8.512,0V18.86a.661.661,0,1,0-1.323,0V34.207a5.585,5.585,0,0,0,5.578,5.579H60.913a.661.661,0,0,0,0-1.323Zm8.869-18.676H59.622a.661.661,0,0,0,0,1.323h10.16a.661.661,0,0,0,0-1.323Zm0,4.369H59.622a.661.661,0,0,0,0,1.323h10.16a.661.661,0,0,0,0-1.323Zm0,4.369H59.622a.661.661,0,0,0,0,1.323h10.16a.661.661,0,0,0,0-1.323ZM97.39,41.062v18.39a6.689,6.689,0,0,1-6.679,6.681l-22.034.009h0A5.585,5.585,0,0,1,63.1,60.564v-26.1a.661.661,0,0,1,.661-.661H87.229a.661.661,0,0,1,.661.661V40.4h8.838A.661.661,0,0,1,97.39,41.062ZM68.677,64.82l.109,0,.112,0,.1-.008.116-.009.093-.012.12-.015.08-.014c.043-.008.087-.015.13-.023l.072-.017c.045-.01.09-.02.134-.031l.061-.017c.047-.013.094-.026.141-.04l.048-.016c.05-.016.1-.033.149-.051l.035-.014c.053-.02.106-.04.158-.063l.028-.013c.054-.023.108-.047.161-.073l.022-.011c.054-.027.108-.054.161-.083l.01-.006q.085-.047.168-.1h0a4.281,4.281,0,0,0,1.79-2.176L72.682,62c.021-.058.041-.117.06-.176,0-.012.007-.025.011-.037.016-.054.033-.109.047-.164.005-.02.009-.04.014-.06.012-.048.024-.1.034-.146.005-.025.009-.051.014-.076.008-.044.017-.088.024-.133s.008-.061.012-.091.011-.081.015-.122,0-.059.007-.088c.009-.114.015-.23.015-.346v-19.5a.661.661,0,0,1,.661-.661H86.568V35.13H64.421V60.564A4.261,4.261,0,0,0,68.677,64.82Zm27.39-23.1H74.256V60.564c0,.1,0,.2-.008.3,0,.033-.005.066-.008.1,0,.067-.01.133-.017.2,0,.039-.01.078-.015.116-.008.06-.016.119-.025.178-.007.041-.014.081-.022.122-.01.056-.021.112-.033.168s-.019.082-.028.123-.027.108-.042.162-.023.081-.035.122-.033.106-.05.158-.026.079-.04.118-.039.106-.06.158c-.015.037-.029.074-.044.111-.023.055-.047.109-.072.163-.015.033-.029.066-.045.1-.031.065-.064.128-.1.191-.011.021-.021.042-.032.063q-.067.124-.141.244c-.016.027-.034.052-.05.079-.034.054-.068.107-.1.16-.022.032-.044.063-.067.094s-.065.092-.1.136-.05.064-.076.1-.067.084-.1.125l-.082.094c-.035.04-.071.079-.107.118l-.086.091q-.056.057-.113.113l-.09.086c-.04.037-.081.073-.122.109l-.062.056,18.429-.008a5.365,5.365,0,0,0,5.356-5.359V41.723Zm-16.5,5.082a.661.661,0,0,0,.661.661h10.16a.661.661,0,1,0,0-1.323H80.228A.661.661,0,0,0,79.567,46.805Zm10.821,3.708H80.228a.661.661,0,1,0,0,1.323h10.16a.661.661,0,1,0,0-1.323Zm0,4.369H80.228a.661.661,0,1,0,0,1.323h10.16a.661.661,0,1,0,0-1.323ZM60.247,64.808H50.959a2.885,2.885,0,0,1-2.882-2.882v-8.64a.661.661,0,0,0-.661-.661H44.636A.82.82,0,0,1,44,51.285l4.261-5.208a.821.821,0,0,1,1.27,0l4.261,5.208a.82.82,0,0,1-.635,1.34H50.379a.661.661,0,0,0-.661.661v8.64a1.243,1.243,0,0,0,1.241,1.241h6.95a.661.661,0,1,0,0-1.323H51.04v-7.9h2.118a2.143,2.143,0,0,0,1.659-3.5l-4.261-5.208a2.143,2.143,0,0,0-3.318,0l-4.261,5.209a2.143,2.143,0,0,0,1.659,3.5h2.118v7.979a4.209,4.209,0,0,0,4.2,4.2h9.288a.661.661,0,0,0,0-1.323ZM79.771,8.773h9.157a2.885,2.885,0,0,1,2.882,2.882V20.3a.661.661,0,0,0,.661.661H95.25a.82.82,0,0,1,.635,1.34L91.624,27.5a.821.821,0,0,1-1.27,0L86.093,22.3a.82.82,0,0,1,.635-1.34h2.779a.661.661,0,0,0,.661-.661v-8.64a1.243,1.243,0,0,0-1.241-1.241h-6.95a.661.661,0,0,0,0,1.323h6.868v7.9H86.728a2.143,2.143,0,0,0-1.659,3.5l4.261,5.208a2.143,2.143,0,0,0,3.318,0l4.261-5.209a2.143,2.143,0,0,0-1.659-3.5H93.132V11.655a4.209,4.209,0,0,0-4.2-4.2H79.771a.661.661,0,1,0,0,1.323Zm-3.647,0h1.1a.661.661,0,0,0,0-1.323h-1.1a.661.661,0,0,0,0,1.323ZM63.363,64.82h-.794a.661.661,0,0,0,0,1.323h.794a.661.661,0,0,0,0-1.323Z" transform="translate(-42.493)" fill="#1c1d21"/>
    </g>
  </g>
</svg>
