<svg xmlns="http://www.w3.org/2000/svg" width="68" height="68" viewBox="0 0 68 68">
  <g id="Grupo_1029173" data-name="Grupo 1029173" transform="translate(-612 -8524)">
    <rect id="Rectángulo_361820" data-name="Rectángulo 361820" width="68" height="68" transform="translate(612 8524)" fill="none"/>
    <g id="_052-quality-control" data-name="052-quality-control" transform="translate(623 8525)">
      <g id="Grupo_1029129" data-name="Grupo 1029129" transform="translate(9.657 45.929)">
        <g id="Grupo_1029128" data-name="Grupo 1029128">
          <ellipse id="Elipse_8811" data-name="Elipse 8811" cx="9.776" cy="9.776" rx="9.776" ry="9.776" fill="#fe502d"/>
        </g>
      </g>
      <g id="Grupo_1029131" data-name="Grupo 1029131" transform="translate(2.091 14.313)">
        <g id="Grupo_1029130" data-name="Grupo 1029130">
          <path id="Trazado_776554" data-name="Trazado 776554" d="M119.392,108.2H92.3v41.379h7.553a9.776,9.776,0,1,1,19.552,0h7.567V115.793Z" transform="translate(-92.3 -108.2)" fill="#ecf4f7"/>
        </g>
      </g>
      <g id="Grupo_1029134" data-name="Grupo 1029134" transform="translate(14.099 51.654)">
        <g id="Grupo_1029133" data-name="Grupo 1029133">
          <g id="Grupo_1029132" data-name="Grupo 1029132">
            <path id="Trazado_776555" data-name="Trazado 776555" d="M187.245,398.561a1.626,1.626,0,0,1-1.124-.463l-2.58-2.58a1.581,1.581,0,1,1,2.236-2.236l1.468,1.468,3.81-3.81a1.581,1.581,0,0,1,2.236,2.236l-4.934,4.921A1.54,1.54,0,0,1,187.245,398.561Z" transform="translate(-183.075 -390.475)" fill="#ecf4f7"/>
          </g>
        </g>
      </g>
      <g id="Grupo_1029136" data-name="Grupo 1029136" transform="translate(5.9 19.539)">
        <g id="Grupo_1029135" data-name="Grupo 1029135">
          <path id="Trazado_776556" data-name="Trazado 776556" d="M125.2,152.436h-3.466a.627.627,0,0,1-.635-.635v-3.466a.635.635,0,0,1,.635-.635H125.2a.627.627,0,0,1,.635.635V151.8A.627.627,0,0,1,125.2,152.436Z" transform="translate(-121.1 -147.7)" fill="#ffca00"/>
        </g>
      </g>
      <g id="Grupo_1029138" data-name="Grupo 1029138" transform="translate(5.9 28.336)">
        <g id="Grupo_1029137" data-name="Grupo 1029137">
          <path id="Trazado_776557" data-name="Trazado 776557" d="M125.2,218.936h-3.466a.627.627,0,0,1-.635-.635v-3.466a.635.635,0,0,1,.635-.635H125.2a.627.627,0,0,1,.635.635V218.3A.627.627,0,0,1,125.2,218.936Z" transform="translate(-121.1 -214.2)" fill="#ffca00"/>
        </g>
      </g>
      <g id="Grupo_1029140" data-name="Grupo 1029140" transform="translate(5.9 37.132)">
        <g id="Grupo_1029139" data-name="Grupo 1029139">
          <path id="Trazado_776558" data-name="Trazado 776558" d="M125.2,285.436h-3.466a.627.627,0,0,1-.635-.635v-3.466a.635.635,0,0,1,.635-.635H125.2a.627.627,0,0,1,.635.635V284.8A.635.635,0,0,1,125.2,285.436Z" transform="translate(-121.1 -280.7)" fill="#ffca00"/>
        </g>
      </g>
      <g id="Grupo_1029141" data-name="Grupo 1029141" transform="translate(9.128 7.276)">
        <path id="Trazado_776559" data-name="Trazado 776559" d="M172.592,55H145.5v7.038h20.054v7.593h7.593V99.554h7.038V62.593Z" transform="translate(-145.5 -55)" fill="#aab1ba"/>
      </g>
      <path id="Trazado_776560" data-name="Trazado 776560" d="M113.923,21.774h0c-.013-.04-.013-.079-.04-.106a.046.046,0,0,0-.013-.026l-.04-.079c0-.013-.013-.013-.013-.026-.026-.026-.053-.066-.079-.093l-7.593-7.593h0a.575.575,0,0,0-.093-.079c-.013-.013-.013-.013-.026-.013l-.079-.04a.046.046,0,0,1-.026-.013.911.911,0,0,1-.106-.04h0a.366.366,0,0,0-.119-.013H79.252V9.273a.661.661,0,1,0-1.323,0v5.04h0V55.692a.655.655,0,0,0,.661.661h5.238a.661.661,0,0,0,0-1.323H79.252V14.975h25.769v6.932a.655.655,0,0,0,.661.661h6.932V55.031h-4.458a.661.661,0,0,0,0,1.323h5.119a.655.655,0,0,0,.661-.661v-33.8A.366.366,0,0,0,113.923,21.774Zm-7.58-.529V15.914l5.331,5.331ZM77.929,2.752h-.767a.661.661,0,0,1,0-1.323h.767V.661a.661.661,0,1,1,1.323,0v.767h.767a.661.661,0,0,1,0,1.323h-.767v.767a.661.661,0,1,1-1.323,0Zm1.323,3.175v.622a.661.661,0,1,1-1.323,0V5.926a.661.661,0,1,1,1.323,0ZM122.4,64.053a.655.655,0,0,1-.661.661h-.767v.767a.661.661,0,1,1-1.323,0v-.767h-.767a.661.661,0,0,1,0-1.323h.767v-.767a.661.661,0,1,1,1.323,0v.767h.767A.655.655,0,0,1,122.4,64.053Zm-1.429-4.458v.622a.661.661,0,1,1-1.323,0v-.622a.655.655,0,0,1,.661-.661A.663.663,0,0,1,120.974,59.595Zm-1.323-7.1h-3.664a.661.661,0,1,1,0-1.323h3.664V15.147l-7.21-7.21H86.289v3.929a.661.661,0,0,1-1.323,0V7.276a.655.655,0,0,1,.661-.661H112.72a.621.621,0,0,1,.463.2l7.593,7.593a.674.674,0,0,1,.2.463V51.816h0v5.04a.661.661,0,1,1-1.323,0V52.491ZM95.933,45.255A10.437,10.437,0,1,0,106.37,55.692,10.45,10.45,0,0,0,95.933,45.255Zm0,19.565a9.114,9.114,0,1,1,9.114-9.114A9.123,9.123,0,0,1,95.933,64.82Zm-12.9-39.884H86.5a1.3,1.3,0,0,0,1.3-1.3V20.174a1.3,1.3,0,0,0-1.3-1.3H83.035a1.3,1.3,0,0,0-1.3,1.3v3.466A1.3,1.3,0,0,0,83.035,24.936Zm.026-4.736h3.413v3.413H83.061ZM81.738,32.436a1.3,1.3,0,0,0,1.3,1.3H86.5a1.3,1.3,0,0,0,1.3-1.3V28.97a1.3,1.3,0,0,0-1.3-1.3H83.035a1.3,1.3,0,0,0-1.3,1.3ZM83.061,29h3.413V32.41H83.061ZM81.738,41.233a1.3,1.3,0,0,0,1.3,1.3H86.5a1.3,1.3,0,0,0,1.3-1.3V37.767a1.3,1.3,0,0,0-1.3-1.3H83.035a1.3,1.3,0,0,0-1.3,1.3Zm1.323-3.453h3.413v3.413H83.061Zm7.051-15.874a.655.655,0,0,1,.661-.661H99.8a.661.661,0,0,1,0,1.323H90.774A.655.655,0,0,1,90.112,21.906Zm0,8.8a.655.655,0,0,1,.661-.661H99.8a.661.661,0,0,1,0,1.323H90.774A.663.663,0,0,1,90.112,30.7Zm0,8.784a.655.655,0,0,1,.661-.661H99.8a.661.661,0,0,1,0,1.323H90.774A.655.655,0,0,1,90.112,39.487ZM99.69,51a2.243,2.243,0,0,0-1.587.661l-3.334,3.334L93.776,54A2.245,2.245,0,1,0,90.6,57.174l2.58,2.58a2.236,2.236,0,0,0,3.175,0l4.921-4.921A2.249,2.249,0,0,0,99.69,51Zm.648,2.9-4.921,4.921a.921.921,0,0,1-.648.265.9.9,0,0,1-.648-.265l-2.58-2.58a.913.913,0,0,1,.648-1.561.9.9,0,0,1,.648.265l1.468,1.468a.655.655,0,0,0,.939,0l3.81-3.81a.913.913,0,0,1,1.561.648A.935.935,0,0,1,100.338,53.893Z" transform="translate(-76.5)" fill="#1c1d21"/>
    </g>
  </g>
</svg>
