<svg xmlns="http://www.w3.org/2000/svg" xmlns:xlink="http://www.w3.org/1999/xlink" width="628" height="286.067" viewBox="0 0 628 286.067">
  <defs>
    <filter id="Trazado_776654" x="0" y="0" width="208" height="138.067" filterUnits="userSpaceOnUse">
      <feOffset dy="3" input="SourceAlpha"/>
      <feGaussianBlur stdDeviation="3" result="blur"/>
      <feFlood flood-opacity="0.161"/>
      <feComposite operator="in" in2="blur"/>
      <feComposite in="SourceGraphic"/>
    </filter>
    <filter id="Trazado_776655" x="210" y="148" width="208" height="138.067" filterUnits="userSpaceOnUse">
      <feOffset dy="3" input="SourceAlpha"/>
      <feGaussianBlur stdDeviation="3" result="blur-2"/>
      <feFlood flood-opacity="0.161"/>
      <feComposite operator="in" in2="blur-2"/>
      <feComposite in="SourceGraphic"/>
    </filter>
    <filter id="Trazado_776656" x="210" y="0" width="208" height="138.067" filterUnits="userSpaceOnUse">
      <feOffset dy="3" input="SourceAlpha"/>
      <feGaussianBlur stdDeviation="3" result="blur-3"/>
      <feFlood flood-opacity="0.161"/>
      <feComposite operator="in" in2="blur-3"/>
      <feComposite in="SourceGraphic"/>
    </filter>
    <filter id="Trazado_776657" x="420" y="148" width="208" height="138.067" filterUnits="userSpaceOnUse">
      <feOffset dy="3" input="SourceAlpha"/>
      <feGaussianBlur stdDeviation="3" result="blur-4"/>
      <feFlood flood-opacity="0.161"/>
      <feComposite operator="in" in2="blur-4"/>
      <feComposite in="SourceGraphic"/>
    </filter>
    <filter id="Trazado_776658" x="420" y="0" width="208" height="138.067" filterUnits="userSpaceOnUse">
      <feOffset dy="3" input="SourceAlpha"/>
      <feGaussianBlur stdDeviation="3" result="blur-5"/>
      <feFlood flood-opacity="0.161"/>
      <feComposite operator="in" in2="blur-5"/>
      <feComposite in="SourceGraphic"/>
    </filter>
    <filter id="Trazado_776659" x="0" y="148" width="208" height="138.067" filterUnits="userSpaceOnUse">
      <feOffset dy="3" input="SourceAlpha"/>
      <feGaussianBlur stdDeviation="3" result="blur-6"/>
      <feFlood flood-opacity="0.161"/>
      <feComposite operator="in" in2="blur-6"/>
      <feComposite in="SourceGraphic"/>
    </filter>
  </defs>
  <g id="Grupo_1029245" data-name="Grupo 1029245" transform="translate(8482 1539)">
    <g transform="matrix(1, 0, 0, 1, -8482, -1539)" filter="url(#Trazado_776654)">
      <g id="Trazado_776654-2" data-name="Trazado 776654" transform="translate(9 6)" fill="#fff">
        <path d="M 165 118.5667877197266 L 25 118.5667877197266 C 21.82685089111328 118.5667877197266 18.74942588806152 117.9456634521484 15.85319995880127 116.7206649780273 C 13.05502510070801 115.537109375 10.54167461395264 113.8424835205078 8.383000373840332 111.6837844848633 C 6.224299907684326 109.5251083374023 4.529650211334229 107.0117645263672 3.346124887466431 104.2135848999023 C 2.121124982833862 101.3173370361328 1.5 98.23991394042969 1.5 95.06678771972656 L 1.5 25.0000114440918 C 1.5 21.82686042785645 2.121124982833862 18.74943542480469 3.346124887466431 15.85321140289307 C 4.529650211334229 13.05501079559326 6.224299907684326 10.54168605804443 8.383000373840332 8.383010864257812 C 10.54167461395264 6.224311351776123 13.05500030517578 4.529661178588867 15.85319995880127 3.346136331558228 C 18.74942588806152 2.12113618850708 21.82685089111328 1.500011205673218 25 1.500011205673218 L 165 1.500011205673218 C 168.1731567382812 1.500011205673218 171.2505798339844 2.12113618850708 174.1468048095703 3.346136331558228 C 176.9450073242188 4.529661178588867 179.4583282470703 6.224311351776123 181.6170043945312 8.383010864257812 C 183.7756958007812 10.54168605804443 185.4703521728516 13.05501079559326 186.6538696289062 15.85321140289307 C 187.8788757324219 18.74943542480469 188.5 21.82686042785645 188.5 25.0000114440918 L 188.5 95.06678771972656 C 188.5 98.23991394042969 187.8788757324219 101.3173370361328 186.6538696289062 104.2135848999023 C 185.4703521728516 107.0117645263672 183.7756958007812 109.5251083374023 181.6170043945312 111.6837844848633 C 179.4583282470703 113.8424835205078 176.9449768066406 115.537109375 174.1468048095703 116.7206649780273 C 171.2505798339844 117.9456634521484 168.1731567382812 118.5667877197266 165 118.5667877197266 Z" stroke="none"/>
        <path d="M 25 2.999992370605469 C 22.02871704101562 2.999992370605469 19.14787292480469 3.581253051757812 16.43753051757812 4.727622985839844 C 13.81816101074219 5.835540771484375 11.46507263183594 7.422225952148438 9.44366455078125 9.443649291992188 C 7.4222412109375 11.46507263183594 5.835556030273438 13.81814575195312 4.727630615234375 16.43751525878906 C 3.581268310546875 19.14785766601562 3 22.02870178222656 3 24.99999237060547 L 3 95.06678009033203 C 3 98.03807067871094 3.581268310546875 100.9189147949219 4.727630615234375 103.6292572021484 C 5.835556030273438 106.2486267089844 7.4222412109375 108.6016998291016 9.44366455078125 110.6231231689453 C 11.46507263183594 112.6445465087891 13.81816101074219 114.2312316894531 16.43753051757812 115.3391494750977 C 19.14787292480469 116.4855194091797 22.02871704101562 117.066780090332 25 117.066780090332 L 165 117.066780090332 C 167.9712829589844 117.066780090332 170.8521270751953 116.4855194091797 173.5624694824219 115.3391494750977 C 176.1818389892578 114.2312316894531 178.5349273681641 112.6445465087891 180.5563354492188 110.6231231689453 C 182.5777587890625 108.6016998291016 184.1644439697266 106.2486267089844 185.2723693847656 103.6292572021484 C 186.4187316894531 100.9189147949219 187 98.03807067871094 187 95.06678009033203 L 187 24.99999237060547 C 187 22.02870178222656 186.4187316894531 19.14785766601562 185.2723693847656 16.43751525878906 C 184.1644439697266 13.81814575195312 182.5777587890625 11.46507263183594 180.5563354492188 9.443649291992188 C 178.5349273681641 7.422225952148438 176.1818389892578 5.835540771484375 173.5624694824219 4.727622985839844 C 170.8521270751953 3.581253051757812 167.9712829589844 2.999992370605469 165 2.999992370605469 L 25 2.999992370605469 M 25 -7.62939453125e-06 L 165 -7.62939453125e-06 C 178.8070983886719 -7.62939453125e-06 190 11.19288635253906 190 24.99999237060547 L 190 95.06678009033203 C 190 108.8738861083984 178.8070983886719 120.066780090332 165 120.066780090332 L 25 120.066780090332 C 11.19290161132812 120.066780090332 0 108.8738861083984 0 95.06678009033203 L 0 24.99999237060547 C 0 11.19288635253906 11.19290161132812 -7.62939453125e-06 25 -7.62939453125e-06 Z" stroke="none" fill="#2d54fe"/>
      </g>
    </g>
    <g transform="matrix(1, 0, 0, 1, -8482, -1539)" filter="url(#Trazado_776655)">
      <g id="Trazado_776655-2" data-name="Trazado 776655" transform="translate(219 154)" fill="#fff">
        <path d="M 165 118.5667877197266 L 25 118.5667877197266 C 21.82685089111328 118.5667877197266 18.74942588806152 117.9456634521484 15.85319995880127 116.7206649780273 C 13.05502510070801 115.537109375 10.54167461395264 113.8424835205078 8.383000373840332 111.6837844848633 C 6.224299907684326 109.5251083374023 4.529650211334229 107.0117645263672 3.346124887466431 104.2135848999023 C 2.121124982833862 101.3173370361328 1.5 98.23991394042969 1.5 95.06678771972656 L 1.5 25.0000114440918 C 1.5 21.82686042785645 2.121124982833862 18.74943542480469 3.346124887466431 15.85321140289307 C 4.529650211334229 13.05501079559326 6.224299907684326 10.54168605804443 8.383000373840332 8.383010864257812 C 10.54167461395264 6.224311351776123 13.05500030517578 4.529661178588867 15.85319995880127 3.346136331558228 C 18.74942588806152 2.12113618850708 21.82685089111328 1.500011205673218 25 1.500011205673218 L 165 1.500011205673218 C 168.1731567382812 1.500011205673218 171.2505798339844 2.12113618850708 174.1468048095703 3.346136331558228 C 176.9450073242188 4.529661178588867 179.4583282470703 6.224311351776123 181.6170043945312 8.383010864257812 C 183.7756958007812 10.54168605804443 185.4703521728516 13.05501079559326 186.6538696289062 15.85321140289307 C 187.8788757324219 18.74943542480469 188.5 21.82686042785645 188.5 25.0000114440918 L 188.5 95.06678771972656 C 188.5 98.23991394042969 187.8788757324219 101.3173370361328 186.6538696289062 104.2135848999023 C 185.4703521728516 107.0117645263672 183.7756958007812 109.5251083374023 181.6170043945312 111.6837844848633 C 179.4583282470703 113.8424835205078 176.9449768066406 115.537109375 174.1468048095703 116.7206649780273 C 171.2505798339844 117.9456634521484 168.1731567382812 118.5667877197266 165 118.5667877197266 Z" stroke="none"/>
        <path d="M 25 2.999992370605469 C 22.02871704101562 2.999992370605469 19.14787292480469 3.581253051757812 16.43753051757812 4.727622985839844 C 13.81816101074219 5.835540771484375 11.46507263183594 7.422225952148438 9.44366455078125 9.443649291992188 C 7.4222412109375 11.46507263183594 5.835556030273438 13.81814575195312 4.727630615234375 16.43751525878906 C 3.581268310546875 19.14785766601562 3 22.02870178222656 3 24.99999237060547 L 3 95.06678009033203 C 3 98.03807067871094 3.581268310546875 100.9189147949219 4.727630615234375 103.6292572021484 C 5.835556030273438 106.2486267089844 7.4222412109375 108.6016998291016 9.44366455078125 110.6231231689453 C 11.46507263183594 112.6445465087891 13.81816101074219 114.2312316894531 16.43753051757812 115.3391494750977 C 19.14787292480469 116.4855194091797 22.02871704101562 117.066780090332 25 117.066780090332 L 165 117.066780090332 C 167.9712829589844 117.066780090332 170.8521270751953 116.4855194091797 173.5624694824219 115.3391494750977 C 176.1818389892578 114.2312316894531 178.5349273681641 112.6445465087891 180.5563354492188 110.6231231689453 C 182.5777587890625 108.6016998291016 184.1644439697266 106.2486267089844 185.2723693847656 103.6292572021484 C 186.4187316894531 100.9189147949219 187 98.03807067871094 187 95.06678009033203 L 187 24.99999237060547 C 187 22.02870178222656 186.4187316894531 19.14785766601562 185.2723693847656 16.43751525878906 C 184.1644439697266 13.81814575195312 182.5777587890625 11.46507263183594 180.5563354492188 9.443649291992188 C 178.5349273681641 7.422225952148438 176.1818389892578 5.835540771484375 173.5624694824219 4.727622985839844 C 170.8521270751953 3.581253051757812 167.9712829589844 2.999992370605469 165 2.999992370605469 L 25 2.999992370605469 M 25 -7.62939453125e-06 L 165 -7.62939453125e-06 C 178.8070983886719 -7.62939453125e-06 190 11.19288635253906 190 24.99999237060547 L 190 95.06678009033203 C 190 108.8738861083984 178.8070983886719 120.066780090332 165 120.066780090332 L 25 120.066780090332 C 11.19290161132812 120.066780090332 0 108.8738861083984 0 95.06678009033203 L 0 24.99999237060547 C 0 11.19288635253906 11.19290161132812 -7.62939453125e-06 25 -7.62939453125e-06 Z" stroke="none" fill="#2d54fe"/>
      </g>
    </g>
    <g transform="matrix(1, 0, 0, 1, -8482, -1539)" filter="url(#Trazado_776656)">
      <g id="Trazado_776656-2" data-name="Trazado 776656" transform="translate(219 6)" fill="#fff">
        <path d="M 165 118.5667877197266 L 25 118.5667877197266 C 21.82685089111328 118.5667877197266 18.74942588806152 117.9456634521484 15.85319995880127 116.7206649780273 C 13.05502510070801 115.537109375 10.54167461395264 113.8424835205078 8.383000373840332 111.6837844848633 C 6.224299907684326 109.5251083374023 4.529650211334229 107.0117645263672 3.346124887466431 104.2135848999023 C 2.121124982833862 101.3173370361328 1.5 98.23991394042969 1.5 95.06678771972656 L 1.5 25.0000114440918 C 1.5 21.82686042785645 2.121124982833862 18.74943542480469 3.346124887466431 15.85321140289307 C 4.529650211334229 13.05501079559326 6.224299907684326 10.54168605804443 8.383000373840332 8.383010864257812 C 10.54167461395264 6.224311351776123 13.05500030517578 4.529661178588867 15.85319995880127 3.346136331558228 C 18.74942588806152 2.12113618850708 21.82685089111328 1.500011205673218 25 1.500011205673218 L 165 1.500011205673218 C 168.1731567382812 1.500011205673218 171.2505798339844 2.12113618850708 174.1468048095703 3.346136331558228 C 176.9450073242188 4.529661178588867 179.4583282470703 6.224311351776123 181.6170043945312 8.383010864257812 C 183.7756958007812 10.54168605804443 185.4703521728516 13.05501079559326 186.6538696289062 15.85321140289307 C 187.8788757324219 18.74943542480469 188.5 21.82686042785645 188.5 25.0000114440918 L 188.5 95.06678771972656 C 188.5 98.23991394042969 187.8788757324219 101.3173370361328 186.6538696289062 104.2135848999023 C 185.4703521728516 107.0117645263672 183.7756958007812 109.5251083374023 181.6170043945312 111.6837844848633 C 179.4583282470703 113.8424835205078 176.9449768066406 115.537109375 174.1468048095703 116.7206649780273 C 171.2505798339844 117.9456634521484 168.1731567382812 118.5667877197266 165 118.5667877197266 Z" stroke="none"/>
        <path d="M 25 2.999992370605469 C 22.02871704101562 2.999992370605469 19.14787292480469 3.581253051757812 16.43753051757812 4.727622985839844 C 13.81816101074219 5.835540771484375 11.46507263183594 7.422225952148438 9.44366455078125 9.443649291992188 C 7.4222412109375 11.46507263183594 5.835556030273438 13.81814575195312 4.727630615234375 16.43751525878906 C 3.581268310546875 19.14785766601562 3 22.02870178222656 3 24.99999237060547 L 3 95.06678009033203 C 3 98.03807067871094 3.581268310546875 100.9189147949219 4.727630615234375 103.6292572021484 C 5.835556030273438 106.2486267089844 7.4222412109375 108.6016998291016 9.44366455078125 110.6231231689453 C 11.46507263183594 112.6445465087891 13.81816101074219 114.2312316894531 16.43753051757812 115.3391494750977 C 19.14787292480469 116.4855194091797 22.02871704101562 117.066780090332 25 117.066780090332 L 165 117.066780090332 C 167.9712829589844 117.066780090332 170.8521270751953 116.4855194091797 173.5624694824219 115.3391494750977 C 176.1818389892578 114.2312316894531 178.5349273681641 112.6445465087891 180.5563354492188 110.6231231689453 C 182.5777587890625 108.6016998291016 184.1644439697266 106.2486267089844 185.2723693847656 103.6292572021484 C 186.4187316894531 100.9189147949219 187 98.03807067871094 187 95.06678009033203 L 187 24.99999237060547 C 187 22.02870178222656 186.4187316894531 19.14785766601562 185.2723693847656 16.43751525878906 C 184.1644439697266 13.81814575195312 182.5777587890625 11.46507263183594 180.5563354492188 9.443649291992188 C 178.5349273681641 7.422225952148438 176.1818389892578 5.835540771484375 173.5624694824219 4.727622985839844 C 170.8521270751953 3.581253051757812 167.9712829589844 2.999992370605469 165 2.999992370605469 L 25 2.999992370605469 M 25 -7.62939453125e-06 L 165 -7.62939453125e-06 C 178.8070983886719 -7.62939453125e-06 190 11.19288635253906 190 24.99999237060547 L 190 95.06678009033203 C 190 108.8738861083984 178.8070983886719 120.066780090332 165 120.066780090332 L 25 120.066780090332 C 11.19290161132812 120.066780090332 0 108.8738861083984 0 95.06678009033203 L 0 24.99999237060547 C 0 11.19288635253906 11.19290161132812 -7.62939453125e-06 25 -7.62939453125e-06 Z" stroke="none" fill="#ffca00"/>
      </g>
    </g>
    <g transform="matrix(1, 0, 0, 1, -8482, -1539)" filter="url(#Trazado_776657)">
      <g id="Trazado_776657-2" data-name="Trazado 776657" transform="translate(429 154)" fill="#fff">
        <path d="M 165 118.5667877197266 L 25 118.5667877197266 C 21.82685089111328 118.5667877197266 18.74942588806152 117.9456634521484 15.85319995880127 116.7206649780273 C 13.05502510070801 115.537109375 10.54167461395264 113.8424835205078 8.383000373840332 111.6837844848633 C 6.224299907684326 109.5251083374023 4.529650211334229 107.0117645263672 3.346124887466431 104.2135848999023 C 2.121124982833862 101.3173370361328 1.5 98.23991394042969 1.5 95.06678771972656 L 1.5 25.0000114440918 C 1.5 21.82686042785645 2.121124982833862 18.74943542480469 3.346124887466431 15.85321140289307 C 4.529650211334229 13.05501079559326 6.224299907684326 10.54168605804443 8.383000373840332 8.383010864257812 C 10.54167461395264 6.224311351776123 13.05500030517578 4.529661178588867 15.85319995880127 3.346136331558228 C 18.74942588806152 2.12113618850708 21.82685089111328 1.500011205673218 25 1.500011205673218 L 165 1.500011205673218 C 168.1731567382812 1.500011205673218 171.2505798339844 2.12113618850708 174.1468048095703 3.346136331558228 C 176.9450073242188 4.529661178588867 179.4583282470703 6.224311351776123 181.6170043945312 8.383010864257812 C 183.7756958007812 10.54168605804443 185.4703521728516 13.05501079559326 186.6538696289062 15.85321140289307 C 187.8788757324219 18.74943542480469 188.5 21.82686042785645 188.5 25.0000114440918 L 188.5 95.06678771972656 C 188.5 98.23991394042969 187.8788757324219 101.3173370361328 186.6538696289062 104.2135848999023 C 185.4703521728516 107.0117645263672 183.7756958007812 109.5251083374023 181.6170043945312 111.6837844848633 C 179.4583282470703 113.8424835205078 176.9449768066406 115.537109375 174.1468048095703 116.7206649780273 C 171.2505798339844 117.9456634521484 168.1731567382812 118.5667877197266 165 118.5667877197266 Z" stroke="none"/>
        <path d="M 25 2.999992370605469 C 22.02871704101562 2.999992370605469 19.14787292480469 3.581253051757812 16.43753051757812 4.727622985839844 C 13.81816101074219 5.835540771484375 11.46507263183594 7.422225952148438 9.44366455078125 9.443649291992188 C 7.4222412109375 11.46507263183594 5.835556030273438 13.81814575195312 4.727630615234375 16.43751525878906 C 3.581268310546875 19.14785766601562 3 22.02870178222656 3 24.99999237060547 L 3 95.06678009033203 C 3 98.03807067871094 3.581268310546875 100.9189147949219 4.727630615234375 103.6292572021484 C 5.835556030273438 106.2486267089844 7.4222412109375 108.6016998291016 9.44366455078125 110.6231231689453 C 11.46507263183594 112.6445465087891 13.81816101074219 114.2312316894531 16.43753051757812 115.3391494750977 C 19.14787292480469 116.4855194091797 22.02871704101562 117.066780090332 25 117.066780090332 L 165 117.066780090332 C 167.9712829589844 117.066780090332 170.8521270751953 116.4855194091797 173.5624694824219 115.3391494750977 C 176.1818389892578 114.2312316894531 178.5349273681641 112.6445465087891 180.5563354492188 110.6231231689453 C 182.5777587890625 108.6016998291016 184.1644439697266 106.2486267089844 185.2723693847656 103.6292572021484 C 186.4187316894531 100.9189147949219 187 98.03807067871094 187 95.06678009033203 L 187 24.99999237060547 C 187 22.02870178222656 186.4187316894531 19.14785766601562 185.2723693847656 16.43751525878906 C 184.1644439697266 13.81814575195312 182.5777587890625 11.46507263183594 180.5563354492188 9.443649291992188 C 178.5349273681641 7.422225952148438 176.1818389892578 5.835540771484375 173.5624694824219 4.727622985839844 C 170.8521270751953 3.581253051757812 167.9712829589844 2.999992370605469 165 2.999992370605469 L 25 2.999992370605469 M 25 -7.62939453125e-06 L 165 -7.62939453125e-06 C 178.8070983886719 -7.62939453125e-06 190 11.19288635253906 190 24.99999237060547 L 190 95.06678009033203 C 190 108.8738861083984 178.8070983886719 120.066780090332 165 120.066780090332 L 25 120.066780090332 C 11.19290161132812 120.066780090332 0 108.8738861083984 0 95.06678009033203 L 0 24.99999237060547 C 0 11.19288635253906 11.19290161132812 -7.62939453125e-06 25 -7.62939453125e-06 Z" stroke="none" fill="#ffca00"/>
      </g>
    </g>
    <g transform="matrix(1, 0, 0, 1, -8482, -1539)" filter="url(#Trazado_776658)">
      <g id="Trazado_776658-2" data-name="Trazado 776658" transform="translate(429 6)" fill="#fff">
        <path d="M 165 118.5667877197266 L 25 118.5667877197266 C 21.82685089111328 118.5667877197266 18.74942588806152 117.9456634521484 15.85319995880127 116.7206649780273 C 13.05502510070801 115.537109375 10.54167461395264 113.8424835205078 8.383000373840332 111.6837844848633 C 6.224299907684326 109.5251083374023 4.529650211334229 107.0117645263672 3.346124887466431 104.2135848999023 C 2.121124982833862 101.3173370361328 1.5 98.23991394042969 1.5 95.06678771972656 L 1.5 25.0000114440918 C 1.5 21.82686042785645 2.121124982833862 18.74943542480469 3.346124887466431 15.85321140289307 C 4.529650211334229 13.05501079559326 6.224299907684326 10.54168605804443 8.383000373840332 8.383010864257812 C 10.54167461395264 6.224311351776123 13.05500030517578 4.529661178588867 15.85319995880127 3.346136331558228 C 18.74942588806152 2.12113618850708 21.82685089111328 1.500011205673218 25 1.500011205673218 L 165 1.500011205673218 C 168.1731567382812 1.500011205673218 171.2505798339844 2.12113618850708 174.1468048095703 3.346136331558228 C 176.9450073242188 4.529661178588867 179.4583282470703 6.224311351776123 181.6170043945312 8.383010864257812 C 183.7756958007812 10.54168605804443 185.4703521728516 13.05501079559326 186.6538696289062 15.85321140289307 C 187.8788757324219 18.74943542480469 188.5 21.82686042785645 188.5 25.0000114440918 L 188.5 95.06678771972656 C 188.5 98.23991394042969 187.8788757324219 101.3173370361328 186.6538696289062 104.2135848999023 C 185.4703521728516 107.0117645263672 183.7756958007812 109.5251083374023 181.6170043945312 111.6837844848633 C 179.4583282470703 113.8424835205078 176.9449768066406 115.537109375 174.1468048095703 116.7206649780273 C 171.2505798339844 117.9456634521484 168.1731567382812 118.5667877197266 165 118.5667877197266 Z" stroke="none"/>
        <path d="M 25 2.999992370605469 C 22.02871704101562 2.999992370605469 19.14787292480469 3.581253051757812 16.43753051757812 4.727622985839844 C 13.81816101074219 5.835540771484375 11.46507263183594 7.422225952148438 9.44366455078125 9.443649291992188 C 7.4222412109375 11.46507263183594 5.835556030273438 13.81814575195312 4.727630615234375 16.43751525878906 C 3.581268310546875 19.14785766601562 3 22.02870178222656 3 24.99999237060547 L 3 95.06678009033203 C 3 98.03807067871094 3.581268310546875 100.9189147949219 4.727630615234375 103.6292572021484 C 5.835556030273438 106.2486267089844 7.4222412109375 108.6016998291016 9.44366455078125 110.6231231689453 C 11.46507263183594 112.6445465087891 13.81816101074219 114.2312316894531 16.43753051757812 115.3391494750977 C 19.14787292480469 116.4855194091797 22.02871704101562 117.066780090332 25 117.066780090332 L 165 117.066780090332 C 167.9712829589844 117.066780090332 170.8521270751953 116.4855194091797 173.5624694824219 115.3391494750977 C 176.1818389892578 114.2312316894531 178.5349273681641 112.6445465087891 180.5563354492188 110.6231231689453 C 182.5777587890625 108.6016998291016 184.1644439697266 106.2486267089844 185.2723693847656 103.6292572021484 C 186.4187316894531 100.9189147949219 187 98.03807067871094 187 95.06678009033203 L 187 24.99999237060547 C 187 22.02870178222656 186.4187316894531 19.14785766601562 185.2723693847656 16.43751525878906 C 184.1644439697266 13.81814575195312 182.5777587890625 11.46507263183594 180.5563354492188 9.443649291992188 C 178.5349273681641 7.422225952148438 176.1818389892578 5.835540771484375 173.5624694824219 4.727622985839844 C 170.8521270751953 3.581253051757812 167.9712829589844 2.999992370605469 165 2.999992370605469 L 25 2.999992370605469 M 25 -7.62939453125e-06 L 165 -7.62939453125e-06 C 178.8070983886719 -7.62939453125e-06 190 11.19288635253906 190 24.99999237060547 L 190 95.06678009033203 C 190 108.8738861083984 178.8070983886719 120.066780090332 165 120.066780090332 L 25 120.066780090332 C 11.19290161132812 120.066780090332 0 108.8738861083984 0 95.06678009033203 L 0 24.99999237060547 C 0 11.19288635253906 11.19290161132812 -7.62939453125e-06 25 -7.62939453125e-06 Z" stroke="none" fill="#fe502d"/>
      </g>
    </g>
    <g transform="matrix(1, 0, 0, 1, -8482, -1539)" filter="url(#Trazado_776659)">
      <g id="Trazado_776659-2" data-name="Trazado 776659" transform="translate(9 154)" fill="#fff">
        <path d="M 165 118.5667877197266 L 25 118.5667877197266 C 21.82685089111328 118.5667877197266 18.74942588806152 117.9456634521484 15.85319995880127 116.7206649780273 C 13.05502510070801 115.537109375 10.54167461395264 113.8424835205078 8.383000373840332 111.6837844848633 C 6.224299907684326 109.5251083374023 4.529650211334229 107.0117645263672 3.346124887466431 104.2135848999023 C 2.121124982833862 101.3173370361328 1.5 98.23991394042969 1.5 95.06678771972656 L 1.5 25.0000114440918 C 1.5 21.82686042785645 2.121124982833862 18.74943542480469 3.346124887466431 15.85321140289307 C 4.529650211334229 13.05501079559326 6.224299907684326 10.54168605804443 8.383000373840332 8.383010864257812 C 10.54167461395264 6.224311351776123 13.05500030517578 4.529661178588867 15.85319995880127 3.346136331558228 C 18.74942588806152 2.12113618850708 21.82685089111328 1.500011205673218 25 1.500011205673218 L 165 1.500011205673218 C 168.1731567382812 1.500011205673218 171.2505798339844 2.12113618850708 174.1468048095703 3.346136331558228 C 176.9450073242188 4.529661178588867 179.4583282470703 6.224311351776123 181.6170043945312 8.383010864257812 C 183.7756958007812 10.54168605804443 185.4703521728516 13.05501079559326 186.6538696289062 15.85321140289307 C 187.8788757324219 18.74943542480469 188.5 21.82686042785645 188.5 25.0000114440918 L 188.5 95.06678771972656 C 188.5 98.23991394042969 187.8788757324219 101.3173370361328 186.6538696289062 104.2135848999023 C 185.4703521728516 107.0117645263672 183.7756958007812 109.5251083374023 181.6170043945312 111.6837844848633 C 179.4583282470703 113.8424835205078 176.9449768066406 115.537109375 174.1468048095703 116.7206649780273 C 171.2505798339844 117.9456634521484 168.1731567382812 118.5667877197266 165 118.5667877197266 Z" stroke="none"/>
        <path d="M 25 2.999992370605469 C 22.02871704101562 2.999992370605469 19.14787292480469 3.581253051757812 16.43753051757812 4.727622985839844 C 13.81816101074219 5.835540771484375 11.46507263183594 7.422225952148438 9.44366455078125 9.443649291992188 C 7.4222412109375 11.46507263183594 5.835556030273438 13.81814575195312 4.727630615234375 16.43751525878906 C 3.581268310546875 19.14785766601562 3 22.02870178222656 3 24.99999237060547 L 3 95.06678009033203 C 3 98.03807067871094 3.581268310546875 100.9189147949219 4.727630615234375 103.6292572021484 C 5.835556030273438 106.2486267089844 7.4222412109375 108.6016998291016 9.44366455078125 110.6231231689453 C 11.46507263183594 112.6445465087891 13.81816101074219 114.2312316894531 16.43753051757812 115.3391494750977 C 19.14787292480469 116.4855194091797 22.02871704101562 117.066780090332 25 117.066780090332 L 165 117.066780090332 C 167.9712829589844 117.066780090332 170.8521270751953 116.4855194091797 173.5624694824219 115.3391494750977 C 176.1818389892578 114.2312316894531 178.5349273681641 112.6445465087891 180.5563354492188 110.6231231689453 C 182.5777587890625 108.6016998291016 184.1644439697266 106.2486267089844 185.2723693847656 103.6292572021484 C 186.4187316894531 100.9189147949219 187 98.03807067871094 187 95.06678009033203 L 187 24.99999237060547 C 187 22.02870178222656 186.4187316894531 19.14785766601562 185.2723693847656 16.43751525878906 C 184.1644439697266 13.81814575195312 182.5777587890625 11.46507263183594 180.5563354492188 9.443649291992188 C 178.5349273681641 7.422225952148438 176.1818389892578 5.835540771484375 173.5624694824219 4.727622985839844 C 170.8521270751953 3.581253051757812 167.9712829589844 2.999992370605469 165 2.999992370605469 L 25 2.999992370605469 M 25 -7.62939453125e-06 L 165 -7.62939453125e-06 C 178.8070983886719 -7.62939453125e-06 190 11.19288635253906 190 24.99999237060547 L 190 95.06678009033203 C 190 108.8738861083984 178.8070983886719 120.066780090332 165 120.066780090332 L 25 120.066780090332 C 11.19290161132812 120.066780090332 0 108.8738861083984 0 95.06678009033203 L 0 24.99999237060547 C 0 11.19288635253906 11.19290161132812 -7.62939453125e-06 25 -7.62939453125e-06 Z" stroke="none" fill="#fe502d"/>
      </g>
    </g>
    <path id="Trazado_776660" data-name="Trazado 776660" d="M44.442,9.247a6.612,6.612,0,0,1-2.633-1.278A2.442,2.442,0,0,1,40.985,6.1a2.58,2.58,0,0,1,1.007-2.084,4,4,0,0,1,2.618-.824,4.369,4.369,0,0,1,1.959.425A3.222,3.222,0,0,1,47.9,4.786a3,3,0,0,1,.472,1.633H46.962a1.95,1.95,0,0,0-.615-1.525,2.5,2.5,0,0,0-1.736-.555,2.561,2.561,0,0,0-1.622.459,1.53,1.53,0,0,0-.582,1.273,1.376,1.376,0,0,0,.553,1.1A5.424,5.424,0,0,0,44.842,8a8.734,8.734,0,0,1,2.08.825,3.157,3.157,0,0,1,1.113,1.051A2.683,2.683,0,0,1,48.4,11.29a2.492,2.492,0,0,1-1.011,2.076,4.31,4.31,0,0,1-2.7.78,5.013,5.013,0,0,1-2.051-.421,3.451,3.451,0,0,1-1.469-1.154,2.815,2.815,0,0,1-.516-1.663h1.414a1.837,1.837,0,0,0,.714,1.527,3.007,3.007,0,0,0,1.908.56,2.764,2.764,0,0,0,1.707-.454,1.475,1.475,0,0,0,.593-1.238,1.448,1.448,0,0,0-.549-1.212A6.333,6.333,0,0,0,44.442,9.247Zm8.833,4.9a3.463,3.463,0,0,1-2.622-1.058,3.928,3.928,0,0,1-1.011-2.831v-.249a4.756,4.756,0,0,1,.45-2.106,3.514,3.514,0,0,1,1.26-1.45,3.167,3.167,0,0,1,1.754-.524,2.968,2.968,0,0,1,2.4,1.018,4.408,4.408,0,0,1,.857,2.915v.564H51a2.817,2.817,0,0,0,.685,1.893,2.153,2.153,0,0,0,1.666.721,2.36,2.36,0,0,0,1.216-.293,3.055,3.055,0,0,0,.872-.776l.828.645A3.328,3.328,0,0,1,53.275,14.146Zm-.168-7.1a1.807,1.807,0,0,0-1.377.6,2.9,2.9,0,0,0-.688,1.674h3.97v-.1a2.581,2.581,0,0,0-.557-1.6A1.7,1.7,0,0,0,53.107,7.042Zm4.5,2.93a4.658,4.658,0,0,1,.857-2.948A2.954,2.954,0,0,1,63,6.954l.066-.879h1.238V13.81a3.224,3.224,0,0,1-.912,2.424,3.365,3.365,0,0,1-2.45.886,4.076,4.076,0,0,1-1.677-.366,2.887,2.887,0,0,1-1.252-1l.7-.813a2.65,2.65,0,0,0,2.131,1.077,2.076,2.076,0,0,0,1.542-.557,2.128,2.128,0,0,0,.553-1.567v-.681a2.785,2.785,0,0,1-2.219.938,2.707,2.707,0,0,1-2.252-1.121A4.9,4.9,0,0,1,57.611,9.972Zm1.362.154a3.553,3.553,0,0,0,.549,2.106A1.785,1.785,0,0,0,61.061,13a1.985,1.985,0,0,0,1.882-1.165V8.214a2.008,2.008,0,0,0-1.868-1.135,1.8,1.8,0,0,0-1.545.769A3.87,3.87,0,0,0,58.974,10.125Zm12.268,3.091a2.878,2.878,0,0,1-2.322.93,2.464,2.464,0,0,1-1.93-.736,3.186,3.186,0,0,1-.67-2.179V6.075h1.355v5.12q0,1.8,1.465,1.8a2.028,2.028,0,0,0,2.065-1.157V6.075H72.56V14H71.271Zm-1.1-10.452h1.641L69.821,4.918l-1.091,0ZM75.9,6.075l.044,1a2.888,2.888,0,0,1,2.373-1.143q2.512,0,2.534,2.834V14H79.5V8.756A1.824,1.824,0,0,0,79.1,7.489a1.57,1.57,0,0,0-1.2-.41,1.956,1.956,0,0,0-1.157.352,2.387,2.387,0,0,0-.776.923V14H74.618V6.075Zm11.99,0,.044,1a2.888,2.888,0,0,1,2.373-1.143q2.512,0,2.534,2.834V14H91.486V8.756a1.824,1.824,0,0,0-.392-1.267,1.57,1.57,0,0,0-1.2-.41,1.956,1.956,0,0,0-1.157.352,2.387,2.387,0,0,0-.776.923V14H86.608V6.075ZM96.356,14H95V6.075h1.355ZM94.892,3.973a.809.809,0,0,1,.2-.557.756.756,0,0,1,.6-.227.768.768,0,0,1,.6.227.8.8,0,0,1,.205.557.774.774,0,0,1-.205.549.782.782,0,0,1-.6.22.77.77,0,0,1-.6-.22A.782.782,0,0,1,94.892,3.973Zm6.248,8.188L103.1,6.075h1.384L101.645,14h-1.033L97.741,6.075h1.384Zm7.844,1.985a3.463,3.463,0,0,1-2.622-1.058,3.928,3.928,0,0,1-1.011-2.831v-.249A4.756,4.756,0,0,1,105.8,7.9a3.514,3.514,0,0,1,1.26-1.45,3.167,3.167,0,0,1,1.754-.524,2.968,2.968,0,0,1,2.4,1.018,4.408,4.408,0,0,1,.857,2.915v.564h-5.369a2.817,2.817,0,0,0,.685,1.893,2.153,2.153,0,0,0,1.666.721,2.36,2.36,0,0,0,1.216-.293,3.055,3.055,0,0,0,.872-.776l.828.645A3.328,3.328,0,0,1,108.983,14.146Zm-.168-7.1a1.807,1.807,0,0,0-1.377.6,2.9,2.9,0,0,0-.688,1.674h3.97v-.1a2.581,2.581,0,0,0-.557-1.6A1.7,1.7,0,0,0,108.815,7.042Zm6.3,6.958h-1.355V2.75h1.355Zm5.457.146a3.463,3.463,0,0,1-2.622-1.058,3.928,3.928,0,0,1-1.011-2.831v-.249a4.756,4.756,0,0,1,.45-2.106,3.514,3.514,0,0,1,1.26-1.45,3.167,3.167,0,0,1,1.754-.524,2.968,2.968,0,0,1,2.4,1.018,4.408,4.408,0,0,1,.857,2.915v.564h-5.369a2.817,2.817,0,0,0,.685,1.893,2.153,2.153,0,0,0,1.666.721,2.36,2.36,0,0,0,1.216-.293,3.055,3.055,0,0,0,.872-.776l.828.645A3.328,3.328,0,0,1,120.57,14.146Zm-.168-7.1a1.807,1.807,0,0,0-1.377.6,2.9,2.9,0,0,0-.688,1.674h3.97v-.1a2.581,2.581,0,0,0-.557-1.6A1.7,1.7,0,0,0,120.4,7.042Zm9.441,4.856a1,1,0,0,0-.414-.853,3.983,3.983,0,0,0-1.443-.524,6.822,6.822,0,0,1-1.633-.527,2.324,2.324,0,0,1-.894-.732,1.752,1.752,0,0,1-.289-1.011,2.056,2.056,0,0,1,.824-1.648,3.218,3.218,0,0,1,2.106-.674,3.311,3.311,0,0,1,2.186.7,2.21,2.21,0,0,1,.839,1.78h-1.362a1.223,1.223,0,0,0-.472-.959,1.77,1.77,0,0,0-1.19-.4,1.852,1.852,0,0,0-1.157.322,1.014,1.014,0,0,0-.417.842.822.822,0,0,0,.388.74,4.776,4.776,0,0,0,1.4.476,7.308,7.308,0,0,1,1.644.542,2.4,2.4,0,0,1,.934.758,1.864,1.864,0,0,1,.3,1.08,2.028,2.028,0,0,1-.85,1.7,3.564,3.564,0,0,1-2.2.641,3.991,3.991,0,0,1-1.685-.337,2.74,2.74,0,0,1-1.146-.941,2.268,2.268,0,0,1-.414-1.307h1.355a1.4,1.4,0,0,0,.546,1.08,2.117,2.117,0,0,0,1.344.4,2.185,2.185,0,0,0,1.234-.311A.956.956,0,0,0,129.843,11.9ZM47.6,30.972a4.642,4.642,0,0,1,.864-2.933,2.941,2.941,0,0,1,4.468-.157V23.75H54.29V35H53.045l-.066-.85a2.759,2.759,0,0,1-2.263,1,2.707,2.707,0,0,1-2.245-1.128,4.7,4.7,0,0,1-.868-2.944Zm1.355.154a3.515,3.515,0,0,0,.557,2.109A1.8,1.8,0,0,0,51.052,34a1.977,1.977,0,0,0,1.882-1.157V29.2a1.992,1.992,0,0,0-1.868-1.121,1.808,1.808,0,0,0-1.553.769A3.87,3.87,0,0,0,48.958,31.125ZM59.68,35.146a3.463,3.463,0,0,1-2.622-1.058,3.928,3.928,0,0,1-1.011-2.831v-.249A4.756,4.756,0,0,1,56.5,28.9a3.514,3.514,0,0,1,1.26-1.45,3.167,3.167,0,0,1,1.754-.524,2.968,2.968,0,0,1,2.4,1.018,4.408,4.408,0,0,1,.857,2.915v.564H57.4a2.817,2.817,0,0,0,.685,1.893,2.153,2.153,0,0,0,1.666.721,2.36,2.36,0,0,0,1.216-.293,3.055,3.055,0,0,0,.872-.776l.828.645A3.328,3.328,0,0,1,59.68,35.146Zm-.168-7.1a1.807,1.807,0,0,0-1.377.6,2.9,2.9,0,0,0-.688,1.674h3.97v-.1a2.581,2.581,0,0,0-.557-1.6A1.7,1.7,0,0,0,59.512,28.042Zm9.939-.967v8.84q0,2.285-2.073,2.285a2.528,2.528,0,0,1-.828-.131V36.992a2.62,2.62,0,0,0,.615.059.921.921,0,0,0,.692-.246,1.214,1.214,0,0,0,.238-.854V27.075Zm-1.494-2.1a.812.812,0,0,1,.2-.553.741.741,0,0,1,.59-.231.768.768,0,0,1,.6.227.8.8,0,0,1,.205.557.774.774,0,0,1-.205.549.782.782,0,0,1-.6.22.758.758,0,0,1-.593-.22A.791.791,0,0,1,67.957,24.973Zm6.965,10.173A3.463,3.463,0,0,1,72.3,34.088a3.928,3.928,0,0,1-1.011-2.831v-.249a4.756,4.756,0,0,1,.45-2.106A3.514,3.514,0,0,1,73,27.452a3.167,3.167,0,0,1,1.754-.524,2.968,2.968,0,0,1,2.4,1.018,4.408,4.408,0,0,1,.857,2.915v.564H72.644a2.817,2.817,0,0,0,.685,1.893A2.153,2.153,0,0,0,75,34.041a2.36,2.36,0,0,0,1.216-.293,3.055,3.055,0,0,0,.872-.776l.828.645A3.328,3.328,0,0,1,74.922,35.146Zm-.168-7.1a1.807,1.807,0,0,0-1.377.6,2.9,2.9,0,0,0-.688,1.674h3.97v-.1a2.581,2.581,0,0,0-.557-1.6A1.7,1.7,0,0,0,74.754,28.042Zm8.657.249a4.06,4.06,0,0,0-.667-.051,1.786,1.786,0,0,0-1.809,1.135V35H79.58V27.075H80.9l.022.916a2.11,2.11,0,0,1,1.89-1.062,1.384,1.384,0,0,1,.6.1ZM89.256,35a2.846,2.846,0,0,1-.19-.835,3.023,3.023,0,0,1-2.256.981,2.8,2.8,0,0,1-1.923-.663,2.145,2.145,0,0,1-.751-1.681,2.24,2.24,0,0,1,.941-1.923,4.437,4.437,0,0,1,2.648-.685h1.318v-.623a1.522,1.522,0,0,0-.425-1.132,1.707,1.707,0,0,0-1.252-.421,1.976,1.976,0,0,0-1.216.366,1.079,1.079,0,0,0-.491.886H84.3a1.87,1.87,0,0,1,.421-1.146,2.874,2.874,0,0,1,1.143-.875,3.844,3.844,0,0,1,1.586-.322,3.133,3.133,0,0,1,2.146.685A2.47,2.47,0,0,1,90.4,29.5v3.647a4.459,4.459,0,0,0,.278,1.736V35Zm-2.249-1.033a2.381,2.381,0,0,0,1.208-.33,1.994,1.994,0,0,0,.828-.857V31.155H87.981q-2.49,0-2.49,1.458a1.234,1.234,0,0,0,.425,1A1.633,1.633,0,0,0,87.007,33.967Zm9.346-5.676a4.06,4.06,0,0,0-.667-.051,1.786,1.786,0,0,0-1.809,1.135V35H92.522V27.075h1.318l.022.916a2.11,2.11,0,0,1,1.89-1.062,1.384,1.384,0,0,1,.6.1Zm.776,2.681a4.651,4.651,0,0,1,.857-2.955,3.024,3.024,0,0,1,4.519-.143l.059-.8h1.245V38.047h-1.355V34.268a2.844,2.844,0,0,1-2.183.879,2.733,2.733,0,0,1-2.289-1.117,4.755,4.755,0,0,1-.853-2.963Zm1.355.154a3.526,3.526,0,0,0,.575,2.139,1.829,1.829,0,0,0,1.549.776,2.029,2.029,0,0,0,1.846-1.069V29.089a2.035,2.035,0,0,0-1.831-1.047,1.843,1.843,0,0,0-1.56.78A3.838,3.838,0,0,0,98.484,31.125Zm12.393,3.091a2.878,2.878,0,0,1-2.322.93,2.464,2.464,0,0,1-1.93-.736,3.186,3.186,0,0,1-.67-2.179V27.075h1.355v5.12q0,1.8,1.465,1.8a2.028,2.028,0,0,0,2.065-1.157V27.075H112.2V35h-1.289Zm4.849.784h-1.362V27.075h1.362Zm.015-11.228h1.641l-1.963,2.153-1.091,0ZM122.852,35a2.846,2.846,0,0,1-.19-.835,3.023,3.023,0,0,1-2.256.981,2.8,2.8,0,0,1-1.923-.663,2.145,2.145,0,0,1-.751-1.681,2.24,2.24,0,0,1,.941-1.923,4.437,4.437,0,0,1,2.648-.685h1.318v-.623a1.522,1.522,0,0,0-.425-1.132,1.707,1.707,0,0,0-1.252-.421,1.976,1.976,0,0,0-1.216.366,1.079,1.079,0,0,0-.491.886h-1.362a1.87,1.87,0,0,1,.421-1.146,2.874,2.874,0,0,1,1.143-.875,3.844,3.844,0,0,1,1.586-.322,3.133,3.133,0,0,1,2.146.685,2.47,2.47,0,0,1,.806,1.886v3.647a4.459,4.459,0,0,0,.278,1.736V35ZM120.6,33.967a2.381,2.381,0,0,0,1.208-.33,1.994,1.994,0,0,0,.828-.857V31.155h-1.062q-2.49,0-2.49,1.458a1.234,1.234,0,0,0,.425,1A1.633,1.633,0,0,0,120.6,33.967Z" transform="translate(-8464 -1493)" fill="#12263f"/>
    <path id="Trazado_776661" data-name="Trazado 776661" d="M54.656,9.686h-2.5V14H50.738V3.336h3.53a4.178,4.178,0,0,1,2.772.82,2.951,2.951,0,0,1,.97,2.388,2.871,2.871,0,0,1-.538,1.736,3.214,3.214,0,0,1-1.5,1.106l2.5,4.526V14H56.97Zm-2.5-1.15h2.161a2.437,2.437,0,0,0,1.666-.543A1.836,1.836,0,0,0,56.6,6.54a1.933,1.933,0,0,0-.59-1.519,2.5,2.5,0,0,0-1.7-.536H52.151Zm10.906,5.61a3.463,3.463,0,0,1-2.622-1.058,3.928,3.928,0,0,1-1.011-2.831v-.249a4.756,4.756,0,0,1,.45-2.106,3.514,3.514,0,0,1,1.26-1.45,3.167,3.167,0,0,1,1.754-.524,2.968,2.968,0,0,1,2.4,1.018,4.408,4.408,0,0,1,.857,2.915v.564H60.779a2.817,2.817,0,0,0,.685,1.893,2.153,2.153,0,0,0,1.666.721,2.36,2.36,0,0,0,1.216-.293,3.055,3.055,0,0,0,.872-.776l.828.645A3.328,3.328,0,0,1,63.057,14.146Zm-.168-7.1a1.807,1.807,0,0,0-1.377.6,2.9,2.9,0,0,0-.688,1.674h3.97v-.1a2.581,2.581,0,0,0-.557-1.6A1.7,1.7,0,0,0,62.888,7.042ZM69.187,14H67.832V2.75h1.355Zm7.061,0a2.846,2.846,0,0,1-.19-.835,3.023,3.023,0,0,1-2.256.981,2.8,2.8,0,0,1-1.923-.663,2.145,2.145,0,0,1-.751-1.681,2.24,2.24,0,0,1,.941-1.923A4.437,4.437,0,0,1,74.717,9.2h1.318V8.573a1.522,1.522,0,0,0-.425-1.132,1.707,1.707,0,0,0-1.252-.421,1.976,1.976,0,0,0-1.216.366,1.079,1.079,0,0,0-.491.886H71.289a1.87,1.87,0,0,1,.421-1.146,2.874,2.874,0,0,1,1.143-.875,3.844,3.844,0,0,1,1.586-.322,3.133,3.133,0,0,1,2.146.685A2.47,2.47,0,0,1,77.39,8.5v3.647a4.459,4.459,0,0,0,.278,1.736V14ZM74,12.967a2.381,2.381,0,0,0,1.208-.33,1.994,1.994,0,0,0,.828-.857V10.155H74.973q-2.49,0-2.49,1.458a1.234,1.234,0,0,0,.425,1A1.633,1.633,0,0,0,74,12.967Zm8.694.073A1.952,1.952,0,0,0,83.96,12.6a1.546,1.546,0,0,0,.6-1.1h1.282a2.457,2.457,0,0,1-.469,1.3,3.087,3.087,0,0,1-1.154.981,3.329,3.329,0,0,1-1.527.366,3.265,3.265,0,0,1-2.574-1.08,4.3,4.3,0,0,1-.956-2.955V9.884a4.771,4.771,0,0,1,.425-2.058,3.236,3.236,0,0,1,1.219-1.4,3.464,3.464,0,0,1,1.879-.5,3.178,3.178,0,0,1,2.216.8A2.853,2.853,0,0,1,85.843,8.8H84.561a1.867,1.867,0,0,0-.582-1.263,1.811,1.811,0,0,0-1.293-.494,1.9,1.9,0,0,0-1.6.743,3.491,3.491,0,0,0-.568,2.15v.256a3.422,3.422,0,0,0,.564,2.109A1.906,1.906,0,0,0,82.693,13.041ZM88.838,14H87.483V6.075h1.355ZM87.373,3.973a.809.809,0,0,1,.2-.557.756.756,0,0,1,.6-.227.768.768,0,0,1,.6.227.8.8,0,0,1,.205.557.774.774,0,0,1-.205.549.782.782,0,0,1-.6.22.77.77,0,0,1-.6-.22A.782.782,0,0,1,87.373,3.973Zm3.274,5.991A4.681,4.681,0,0,1,91.1,7.87a3.415,3.415,0,0,1,1.274-1.436,3.469,3.469,0,0,1,1.864-.505,3.342,3.342,0,0,1,2.618,1.121,4.311,4.311,0,0,1,1,2.981v.1a4.722,4.722,0,0,1-.443,2.076,3.365,3.365,0,0,1-1.267,1.432,3.509,3.509,0,0,1-1.893.513,3.334,3.334,0,0,1-2.611-1.121,4.29,4.29,0,0,1-1-2.966Zm1.362.161a3.39,3.39,0,0,0,.612,2.117,2.072,2.072,0,0,0,3.278-.011,3.707,3.707,0,0,0,.608-2.267,3.384,3.384,0,0,0-.619-2.113,1.968,1.968,0,0,0-1.644-.809,1.946,1.946,0,0,0-1.619.8A3.68,3.68,0,0,0,92.01,10.125Zm8.833-4.05.044,1a2.888,2.888,0,0,1,2.373-1.143q2.512,0,2.534,2.834V14h-1.355V8.756a1.824,1.824,0,0,0-.392-1.267,1.57,1.57,0,0,0-1.2-.41,1.956,1.956,0,0,0-1.157.352,2.387,2.387,0,0,0-.776.923V14H99.561V6.075Zm10.283,8.071a3.463,3.463,0,0,1-2.622-1.058,3.928,3.928,0,0,1-1.011-2.831v-.249a4.756,4.756,0,0,1,.45-2.106,3.514,3.514,0,0,1,1.26-1.45,3.167,3.167,0,0,1,1.754-.524,2.968,2.968,0,0,1,2.4,1.018,4.408,4.408,0,0,1,.857,2.915v.564h-5.369a2.817,2.817,0,0,0,.685,1.893,2.153,2.153,0,0,0,1.666.721,2.36,2.36,0,0,0,1.216-.293,3.055,3.055,0,0,0,.872-.776l.828.645A3.328,3.328,0,0,1,111.126,14.146Zm-.168-7.1a1.807,1.807,0,0,0-1.377.6,2.9,2.9,0,0,0-.688,1.674h3.97v-.1a2.581,2.581,0,0,0-.557-1.6A1.7,1.7,0,0,0,110.957,7.042ZM120.4,11.9a1,1,0,0,0-.414-.853,3.983,3.983,0,0,0-1.443-.524,6.822,6.822,0,0,1-1.633-.527,2.324,2.324,0,0,1-.894-.732,1.752,1.752,0,0,1-.289-1.011,2.056,2.056,0,0,1,.824-1.648,3.218,3.218,0,0,1,2.106-.674,3.311,3.311,0,0,1,2.186.7,2.21,2.21,0,0,1,.839,1.78h-1.362a1.223,1.223,0,0,0-.472-.959,1.77,1.77,0,0,0-1.19-.4,1.852,1.852,0,0,0-1.157.322,1.014,1.014,0,0,0-.417.842.822.822,0,0,0,.388.74,4.776,4.776,0,0,0,1.4.476,7.308,7.308,0,0,1,1.644.542,2.4,2.4,0,0,1,.934.758,1.864,1.864,0,0,1,.3,1.08,2.028,2.028,0,0,1-.85,1.7,3.564,3.564,0,0,1-2.2.641,3.991,3.991,0,0,1-1.685-.337,2.74,2.74,0,0,1-1.146-.941,2.268,2.268,0,0,1-.414-1.307h1.355a1.4,1.4,0,0,0,.546,1.08,2.117,2.117,0,0,0,1.344.4,2.185,2.185,0,0,0,1.234-.311A.956.956,0,0,0,120.4,11.9ZM47.35,28.035a2.881,2.881,0,0,1,2.344-1.106q2.512,0,2.534,2.834V35H50.873V29.756a1.824,1.824,0,0,0-.392-1.267,1.57,1.57,0,0,0-1.2-.41,1.956,1.956,0,0,0-1.157.352,2.387,2.387,0,0,0-.776.923V35H46V23.75H47.35Zm6.548,2.93a4.681,4.681,0,0,1,.458-2.095,3.415,3.415,0,0,1,1.274-1.436,3.469,3.469,0,0,1,1.864-.505,3.342,3.342,0,0,1,2.618,1.121,4.311,4.311,0,0,1,1,2.981v.1a4.722,4.722,0,0,1-.443,2.076A3.365,3.365,0,0,1,59.4,34.634a3.509,3.509,0,0,1-1.893.513A3.334,3.334,0,0,1,54.9,34.026a4.29,4.29,0,0,1-1-2.966Zm1.362.161a3.39,3.39,0,0,0,.612,2.117,2.072,2.072,0,0,0,3.278-.011,3.707,3.707,0,0,0,.608-2.267,3.384,3.384,0,0,0-.619-2.113,1.968,1.968,0,0,0-1.644-.809,1.946,1.946,0,0,0-1.619.8A3.68,3.68,0,0,0,55.26,31.125Zm11.382-2.834a4.06,4.06,0,0,0-.667-.051,1.786,1.786,0,0,0-1.809,1.135V35H62.812V27.075H64.13l.022.916a2.11,2.11,0,0,1,1.89-1.062,1.384,1.384,0,0,1,.6.1ZM69.359,35H68V27.075h1.355ZM67.895,24.973a.809.809,0,0,1,.2-.557.756.756,0,0,1,.6-.227.768.768,0,0,1,.6.227.8.8,0,0,1,.205.557.774.774,0,0,1-.205.549.782.782,0,0,1-.6.22.77.77,0,0,1-.6-.22A.782.782,0,0,1,67.895,24.973ZM72.8,33.894h4.636V35H71.146V34L75.519,28.2H71.212V27.075h6.006v.959Zm5.684-2.93a4.681,4.681,0,0,1,.458-2.095,3.415,3.415,0,0,1,1.274-1.436,3.469,3.469,0,0,1,1.864-.505A3.342,3.342,0,0,1,84.7,28.049a4.311,4.311,0,0,1,1,2.981v.1a4.722,4.722,0,0,1-.443,2.076,3.365,3.365,0,0,1-1.267,1.432,3.509,3.509,0,0,1-1.893.513,3.334,3.334,0,0,1-2.611-1.121,4.29,4.29,0,0,1-1-2.966Zm1.362.161a3.39,3.39,0,0,0,.612,2.117,2.072,2.072,0,0,0,3.278-.011,3.707,3.707,0,0,0,.608-2.267,3.384,3.384,0,0,0-.619-2.113,1.968,1.968,0,0,0-1.644-.809,1.946,1.946,0,0,0-1.619.8A3.68,3.68,0,0,0,79.848,31.125Zm8.833-4.05.044,1A2.888,2.888,0,0,1,91.1,26.929q2.512,0,2.534,2.834V35H92.277V29.756a1.824,1.824,0,0,0-.392-1.267,1.57,1.57,0,0,0-1.2-.41,1.956,1.956,0,0,0-1.157.352,2.387,2.387,0,0,0-.776.923V35H87.4V27.075Zm8.833-1.919v1.919h1.479v1.047H97.514v4.921a1.1,1.1,0,0,0,.2.715.832.832,0,0,0,.674.238,3.281,3.281,0,0,0,.645-.088V35a3.951,3.951,0,0,1-1.04.146,1.687,1.687,0,0,1-1.37-.549,2.36,2.36,0,0,1-.461-1.56V28.123H94.716V27.075h1.443V25.156ZM105.468,35a2.846,2.846,0,0,1-.19-.835,3.023,3.023,0,0,1-2.256.981,2.8,2.8,0,0,1-1.923-.663,2.145,2.145,0,0,1-.751-1.681,2.24,2.24,0,0,1,.941-1.923,4.437,4.437,0,0,1,2.648-.685h1.318v-.623a1.522,1.522,0,0,0-.425-1.132,1.707,1.707,0,0,0-1.252-.421,1.976,1.976,0,0,0-1.216.366,1.079,1.079,0,0,0-.491.886h-1.362a1.87,1.87,0,0,1,.421-1.146,2.874,2.874,0,0,1,1.143-.875,3.844,3.844,0,0,1,1.586-.322,3.133,3.133,0,0,1,2.146.685,2.47,2.47,0,0,1,.806,1.886v3.647a4.459,4.459,0,0,0,.278,1.736V35Zm-2.249-1.033a2.381,2.381,0,0,0,1.208-.33,1.994,1.994,0,0,0,.828-.857V31.155h-1.062q-2.49,0-2.49,1.458a1.234,1.234,0,0,0,.425,1A1.633,1.633,0,0,0,103.219,33.967ZM110.207,35h-1.355V23.75h1.355Zm5.457.146a3.463,3.463,0,0,1-2.622-1.058,3.928,3.928,0,0,1-1.011-2.831v-.249a4.756,4.756,0,0,1,.45-2.106,3.514,3.514,0,0,1,1.26-1.45,3.167,3.167,0,0,1,1.754-.524,2.968,2.968,0,0,1,2.4,1.018,4.408,4.408,0,0,1,.857,2.915v.564h-5.369a2.817,2.817,0,0,0,.685,1.893,2.153,2.153,0,0,0,1.666.721,2.36,2.36,0,0,0,1.216-.293,3.055,3.055,0,0,0,.872-.776l.828.645A3.328,3.328,0,0,1,115.663,35.146Zm-.168-7.1a1.807,1.807,0,0,0-1.377.6,2.9,2.9,0,0,0-.688,1.674h3.97v-.1a2.581,2.581,0,0,0-.557-1.6A1.7,1.7,0,0,0,115.495,28.042Zm9.441,4.856a1,1,0,0,0-.414-.853,3.983,3.983,0,0,0-1.443-.524,6.822,6.822,0,0,1-1.633-.527,2.324,2.324,0,0,1-.894-.732,1.752,1.752,0,0,1-.289-1.011,2.056,2.056,0,0,1,.824-1.648,3.218,3.218,0,0,1,2.106-.674,3.311,3.311,0,0,1,2.186.7,2.21,2.21,0,0,1,.839,1.78h-1.362a1.223,1.223,0,0,0-.472-.959,1.77,1.77,0,0,0-1.19-.4,1.852,1.852,0,0,0-1.157.322,1.014,1.014,0,0,0-.417.842.822.822,0,0,0,.388.74,4.776,4.776,0,0,0,1.4.476,7.308,7.308,0,0,1,1.644.542,2.4,2.4,0,0,1,.934.758,1.864,1.864,0,0,1,.3,1.08,2.028,2.028,0,0,1-.85,1.7,3.564,3.564,0,0,1-2.2.641,3.991,3.991,0,0,1-1.685-.337,2.74,2.74,0,0,1-1.146-.941,2.268,2.268,0,0,1-.414-1.307h1.355a1.4,1.4,0,0,0,.546,1.08,2.117,2.117,0,0,0,1.344.4,2.185,2.185,0,0,0,1.234-.311A.956.956,0,0,0,124.936,32.9Z" transform="translate(-8254 -1345)" fill="#12263f"/>
    <path id="Trazado_776662" data-name="Trazado 776662" d="M38.308,9.686H35.8V14H34.39V3.336h3.53a4.178,4.178,0,0,1,2.772.82,2.951,2.951,0,0,1,.97,2.388,2.871,2.871,0,0,1-.538,1.736,3.214,3.214,0,0,1-1.5,1.106l2.5,4.526V14H40.623Zm-2.5-1.15h2.161a2.437,2.437,0,0,0,1.666-.543,1.836,1.836,0,0,0,.619-1.453,1.933,1.933,0,0,0-.59-1.519,2.5,2.5,0,0,0-1.7-.536H35.8Zm10.906,5.61a3.463,3.463,0,0,1-2.622-1.058,3.928,3.928,0,0,1-1.011-2.831v-.249a4.756,4.756,0,0,1,.45-2.106,3.514,3.514,0,0,1,1.26-1.45,3.167,3.167,0,0,1,1.754-.524,2.968,2.968,0,0,1,2.4,1.018A4.408,4.408,0,0,1,49.8,9.862v.564H44.431a2.817,2.817,0,0,0,.685,1.893,2.153,2.153,0,0,0,1.666.721A2.36,2.36,0,0,0,48,12.748a3.055,3.055,0,0,0,.872-.776l.828.645A3.328,3.328,0,0,1,46.709,14.146Zm-.168-7.1a1.807,1.807,0,0,0-1.377.6,2.9,2.9,0,0,0-.688,1.674h3.97v-.1a2.581,2.581,0,0,0-.557-1.6A1.7,1.7,0,0,0,46.541,7.042Zm4.5,2.93A4.658,4.658,0,0,1,51.9,7.024a2.954,2.954,0,0,1,4.534-.07l.066-.879H57.74V13.81a3.224,3.224,0,0,1-.912,2.424,3.365,3.365,0,0,1-2.45.886,4.076,4.076,0,0,1-1.677-.366,2.887,2.887,0,0,1-1.252-1l.7-.813a2.65,2.65,0,0,0,2.131,1.077,2.076,2.076,0,0,0,1.542-.557,2.128,2.128,0,0,0,.553-1.567v-.681a2.785,2.785,0,0,1-2.219.938,2.707,2.707,0,0,1-2.252-1.121A4.9,4.9,0,0,1,51.045,9.972Zm1.362.154a3.553,3.553,0,0,0,.549,2.106A1.785,1.785,0,0,0,54.495,13a1.985,1.985,0,0,0,1.882-1.165V8.214A2.008,2.008,0,0,0,54.51,7.079a1.8,1.8,0,0,0-1.545.769A3.87,3.87,0,0,0,52.407,10.125ZM61.255,14H59.9V2.75h1.355Zm7.061,0a2.846,2.846,0,0,1-.19-.835,3.023,3.023,0,0,1-2.256.981,2.8,2.8,0,0,1-1.923-.663A2.145,2.145,0,0,1,63.2,11.8a2.24,2.24,0,0,1,.941-1.923A4.437,4.437,0,0,1,66.785,9.2H68.1V8.573a1.522,1.522,0,0,0-.425-1.132,1.707,1.707,0,0,0-1.252-.421,1.976,1.976,0,0,0-1.216.366,1.079,1.079,0,0,0-.491.886H63.357a1.87,1.87,0,0,1,.421-1.146,2.874,2.874,0,0,1,1.143-.875,3.844,3.844,0,0,1,1.586-.322,3.133,3.133,0,0,1,2.146.685A2.47,2.47,0,0,1,69.458,8.5v3.647a4.459,4.459,0,0,0,.278,1.736V14Zm-2.249-1.033a2.381,2.381,0,0,0,1.208-.33,1.994,1.994,0,0,0,.828-.857V10.155H67.041q-2.49,0-2.49,1.458a1.234,1.234,0,0,0,.425,1A1.633,1.633,0,0,0,66.067,12.967ZM76.2,11.9a1,1,0,0,0-.414-.853,3.983,3.983,0,0,0-1.443-.524,6.822,6.822,0,0,1-1.633-.527,2.324,2.324,0,0,1-.894-.732,1.752,1.752,0,0,1-.289-1.011A2.056,2.056,0,0,1,72.348,6.6a3.218,3.218,0,0,1,2.106-.674,3.311,3.311,0,0,1,2.186.7,2.21,2.21,0,0,1,.839,1.78H76.116a1.223,1.223,0,0,0-.472-.959,1.77,1.77,0,0,0-1.19-.4,1.852,1.852,0,0,0-1.157.322,1.014,1.014,0,0,0-.417.842.822.822,0,0,0,.388.74,4.776,4.776,0,0,0,1.4.476,7.308,7.308,0,0,1,1.644.542,2.4,2.4,0,0,1,.934.758,1.864,1.864,0,0,1,.3,1.08,2.028,2.028,0,0,1-.85,1.7,3.564,3.564,0,0,1-2.2.641,3.991,3.991,0,0,1-1.685-.337,2.74,2.74,0,0,1-1.146-.941,2.268,2.268,0,0,1-.414-1.307h1.355a1.4,1.4,0,0,0,.546,1.08,2.117,2.117,0,0,0,1.344.4,2.185,2.185,0,0,0,1.234-.311A.956.956,0,0,0,76.2,11.9Zm3.076,4.226L78.5,15.6a3.534,3.534,0,0,0,.718-1.978V12.4h1.326v1.062a3.336,3.336,0,0,1-.363,1.479A3.464,3.464,0,0,1,79.273,16.124ZM87.256,6.075l.044,1a2.888,2.888,0,0,1,2.373-1.143q2.512,0,2.534,2.834V14H90.852V8.756a1.824,1.824,0,0,0-.392-1.267,1.57,1.57,0,0,0-1.2-.41,1.956,1.956,0,0,0-1.157.352,2.387,2.387,0,0,0-.776.923V14H85.974V6.075Zm6.636,3.889A4.681,4.681,0,0,1,94.35,7.87a3.415,3.415,0,0,1,1.274-1.436,3.469,3.469,0,0,1,1.864-.505,3.342,3.342,0,0,1,2.618,1.121,4.311,4.311,0,0,1,1,2.981v.1a4.722,4.722,0,0,1-.443,2.076A3.365,3.365,0,0,1,99.4,13.634a3.509,3.509,0,0,1-1.893.513,3.334,3.334,0,0,1-2.611-1.121,4.29,4.29,0,0,1-1-2.966Zm1.362.161a3.39,3.39,0,0,0,.612,2.117,2.072,2.072,0,0,0,3.278-.011,3.707,3.707,0,0,0,.608-2.267,3.384,3.384,0,0,0-.619-2.113,1.968,1.968,0,0,0-1.644-.809,1.946,1.946,0,0,0-1.619.8A3.68,3.68,0,0,0,95.254,10.125Zm11.382-2.834a4.061,4.061,0,0,0-.667-.051,1.786,1.786,0,0,0-1.809,1.135V14h-1.355V6.075h1.318l.022.916a2.11,2.11,0,0,1,1.89-1.062,1.384,1.384,0,0,1,.6.1Zm2.52-1.216.037.879a2.927,2.927,0,0,1,2.351-1.025A2.266,2.266,0,0,1,113.806,7.2a3,3,0,0,1,1.029-.923,3.039,3.039,0,0,1,1.5-.352q2.607,0,2.651,2.761V14H117.63V8.771a1.82,1.82,0,0,0-.388-1.271,1.71,1.71,0,0,0-1.3-.421,1.8,1.8,0,0,0-1.252.45,1.827,1.827,0,0,0-.579,1.212V14h-1.362V8.807a1.512,1.512,0,0,0-1.692-1.729,1.813,1.813,0,0,0-1.824,1.135V14h-1.355V6.075ZM125.921,14a2.846,2.846,0,0,1-.19-.835,3.023,3.023,0,0,1-2.256.981,2.8,2.8,0,0,1-1.923-.663A2.145,2.145,0,0,1,120.8,11.8a2.24,2.24,0,0,1,.941-1.923A4.437,4.437,0,0,1,124.39,9.2h1.318V8.573a1.522,1.522,0,0,0-.425-1.132,1.707,1.707,0,0,0-1.252-.421,1.976,1.976,0,0,0-1.216.366,1.079,1.079,0,0,0-.491.886h-1.362a1.87,1.87,0,0,1,.421-1.146,2.874,2.874,0,0,1,1.143-.875,3.844,3.844,0,0,1,1.586-.322,3.133,3.133,0,0,1,2.146.685,2.47,2.47,0,0,1,.806,1.886v3.647a4.459,4.459,0,0,0,.278,1.736V14Zm-2.249-1.033a2.381,2.381,0,0,0,1.208-.33,1.994,1.994,0,0,0,.828-.857V10.155h-1.062q-2.49,0-2.49,1.458a1.234,1.234,0,0,0,.425,1A1.633,1.633,0,0,0,123.672,12.967ZM133.8,11.9a1,1,0,0,0-.414-.853,3.983,3.983,0,0,0-1.443-.524,6.822,6.822,0,0,1-1.633-.527,2.324,2.324,0,0,1-.894-.732,1.752,1.752,0,0,1-.289-1.011,2.056,2.056,0,0,1,.824-1.648,3.218,3.218,0,0,1,2.106-.674,3.311,3.311,0,0,1,2.186.7,2.21,2.21,0,0,1,.839,1.78h-1.362a1.223,1.223,0,0,0-.472-.959,1.77,1.77,0,0,0-1.19-.4,1.852,1.852,0,0,0-1.157.322,1.014,1.014,0,0,0-.417.842.822.822,0,0,0,.388.74,4.776,4.776,0,0,0,1.4.476,7.308,7.308,0,0,1,1.644.542,2.4,2.4,0,0,1,.934.758,1.864,1.864,0,0,1,.3,1.08,2.028,2.028,0,0,1-.85,1.7,3.564,3.564,0,0,1-2.2.641,3.991,3.991,0,0,1-1.685-.337,2.74,2.74,0,0,1-1.146-.941,2.268,2.268,0,0,1-.414-1.307h1.355a1.4,1.4,0,0,0,.546,1.08,2.117,2.117,0,0,0,1.344.4,2.185,2.185,0,0,0,1.234-.311A.956.956,0,0,0,133.8,11.9Zm3.076,4.226-.769-.527a3.534,3.534,0,0,0,.718-1.978V12.4h1.326v1.062a3.336,3.336,0,0,1-.363,1.479A3.464,3.464,0,0,1,136.878,16.124Zm-95.083,15a4.745,4.745,0,0,1-.828,2.915,2.653,2.653,0,0,1-2.241,1.106,2.906,2.906,0,0,1-2.271-.916v3.816H35.1V27.075h1.238l.066.879a2.791,2.791,0,0,1,2.3-1.025,2.7,2.7,0,0,1,2.26,1.077,4.8,4.8,0,0,1,.831,3Zm-1.355-.154a3.5,3.5,0,0,0-.571-2.117,1.84,1.84,0,0,0-1.567-.776,1.992,1.992,0,0,0-1.846,1.091v3.787a2,2,0,0,0,1.86,1.084,1.832,1.832,0,0,0,1.549-.773A3.822,3.822,0,0,0,40.44,30.972Zm6.907-2.681a4.06,4.06,0,0,0-.667-.051,1.786,1.786,0,0,0-1.809,1.135V35H43.516V27.075h1.318l.022.916a2.11,2.11,0,0,1,1.89-1.062,1.384,1.384,0,0,1,.6.1Zm.74,2.673a4.681,4.681,0,0,1,.458-2.095,3.415,3.415,0,0,1,1.274-1.436,3.469,3.469,0,0,1,1.864-.505A3.342,3.342,0,0,1,54.3,28.049a4.311,4.311,0,0,1,1,2.981v.1a4.722,4.722,0,0,1-.443,2.076,3.365,3.365,0,0,1-1.267,1.432,3.509,3.509,0,0,1-1.893.513,3.334,3.334,0,0,1-2.611-1.121,4.29,4.29,0,0,1-1-2.966Zm1.362.161a3.39,3.39,0,0,0,.612,2.117,2.072,2.072,0,0,0,3.278-.011,3.707,3.707,0,0,0,.608-2.267,3.384,3.384,0,0,0-.619-2.113,1.968,1.968,0,0,0-1.644-.809,1.946,1.946,0,0,0-1.619.8A3.68,3.68,0,0,0,49.448,31.125Zm10.73,2.915a1.952,1.952,0,0,0,1.267-.439,1.546,1.546,0,0,0,.6-1.1h1.282a2.457,2.457,0,0,1-.469,1.3,3.087,3.087,0,0,1-1.154.981,3.329,3.329,0,0,1-1.527.366,3.265,3.265,0,0,1-2.574-1.08,4.3,4.3,0,0,1-.956-2.955v-.227a4.771,4.771,0,0,1,.425-2.058,3.236,3.236,0,0,1,1.219-1.4,3.464,3.464,0,0,1,1.879-.5,3.178,3.178,0,0,1,2.216.8,2.853,2.853,0,0,1,.941,2.073H62.046a1.867,1.867,0,0,0-.582-1.263,1.811,1.811,0,0,0-1.293-.494,1.9,1.9,0,0,0-1.6.743A3.491,3.491,0,0,0,58,30.935v.256a3.422,3.422,0,0,0,.564,2.109A1.906,1.906,0,0,0,60.178,34.041Zm7.961,1.106a3.463,3.463,0,0,1-2.622-1.058,3.928,3.928,0,0,1-1.011-2.831v-.249a4.756,4.756,0,0,1,.45-2.106,3.514,3.514,0,0,1,1.26-1.45,3.167,3.167,0,0,1,1.754-.524,2.968,2.968,0,0,1,2.4,1.018,4.408,4.408,0,0,1,.857,2.915v.564H65.862a2.817,2.817,0,0,0,.685,1.893,2.153,2.153,0,0,0,1.666.721,2.36,2.36,0,0,0,1.216-.293,3.055,3.055,0,0,0,.872-.776l.828.645A3.328,3.328,0,0,1,68.14,35.146Zm-.168-7.1a1.807,1.807,0,0,0-1.377.6,2.9,2.9,0,0,0-.688,1.674h3.97v-.1a2.581,2.581,0,0,0-.557-1.6A1.7,1.7,0,0,0,67.971,28.042Zm4.5,2.93a4.642,4.642,0,0,1,.864-2.933,2.941,2.941,0,0,1,4.468-.157V23.75h1.355V35H77.91l-.066-.85a2.759,2.759,0,0,1-2.263,1,2.707,2.707,0,0,1-2.245-1.128,4.7,4.7,0,0,1-.868-2.944Zm1.355.154a3.515,3.515,0,0,0,.557,2.109A1.8,1.8,0,0,0,75.918,34,1.977,1.977,0,0,0,77.8,32.839V29.2a1.992,1.992,0,0,0-1.868-1.121,1.808,1.808,0,0,0-1.553.769A3.87,3.87,0,0,0,73.823,31.125ZM82.73,35H81.375V27.075H82.73ZM81.265,24.973a.809.809,0,0,1,.2-.557.756.756,0,0,1,.6-.227.768.768,0,0,1,.6.227.8.8,0,0,1,.205.557.774.774,0,0,1-.205.549.782.782,0,0,1-.6.22.77.77,0,0,1-.6-.22A.782.782,0,0,1,81.265,24.973Zm4.907,2.1.037.879a2.927,2.927,0,0,1,2.351-1.025A2.266,2.266,0,0,1,90.823,28.2a3,3,0,0,1,1.029-.923,3.039,3.039,0,0,1,1.5-.352q2.607,0,2.651,2.761V35H94.646V29.771a1.82,1.82,0,0,0-.388-1.271,1.71,1.71,0,0,0-1.3-.421,1.8,1.8,0,0,0-1.252.45,1.827,1.827,0,0,0-.579,1.212V35H89.761V29.807a1.512,1.512,0,0,0-1.692-1.729,1.813,1.813,0,0,0-1.824,1.135V35H84.89V27.075ZM99.517,35H98.162V27.075h1.355ZM98.052,24.973a.809.809,0,0,1,.2-.557.756.756,0,0,1,.6-.227.768.768,0,0,1,.6.227.8.8,0,0,1,.205.557.774.774,0,0,1-.205.549.782.782,0,0,1-.6.22.77.77,0,0,1-.6-.22A.782.782,0,0,1,98.052,24.973Zm6.921,10.173a3.463,3.463,0,0,1-2.622-1.058,3.928,3.928,0,0,1-1.011-2.831v-.249a4.756,4.756,0,0,1,.45-2.106,3.514,3.514,0,0,1,1.26-1.45,3.167,3.167,0,0,1,1.754-.524,2.968,2.968,0,0,1,2.4,1.018,4.408,4.408,0,0,1,.857,2.915v.564H102.7a2.817,2.817,0,0,0,.685,1.893,2.153,2.153,0,0,0,1.666.721,2.36,2.36,0,0,0,1.216-.293,3.055,3.055,0,0,0,.872-.776l.828.645A3.328,3.328,0,0,1,104.973,35.146Zm-.168-7.1a1.807,1.807,0,0,0-1.377.6,2.9,2.9,0,0,0-.688,1.674h3.97v-.1a2.581,2.581,0,0,0-.557-1.6A1.7,1.7,0,0,0,104.8,28.042Zm6.108-.967.044,1a2.888,2.888,0,0,1,2.373-1.143q2.512,0,2.534,2.834V35H114.51V29.756a1.824,1.824,0,0,0-.392-1.267,1.57,1.57,0,0,0-1.2-.41,1.956,1.956,0,0,0-1.157.352,2.387,2.387,0,0,0-.776.923V35h-1.355V27.075Zm8.833-1.919v1.919h1.479v1.047h-1.479v4.921a1.1,1.1,0,0,0,.2.715.832.832,0,0,0,.674.238,3.281,3.281,0,0,0,.645-.088V35a3.951,3.951,0,0,1-1.04.146,1.687,1.687,0,0,1-1.37-.549,2.36,2.36,0,0,1-.461-1.56V28.123h-1.443V27.075h1.443V25.156Zm2.556,5.808a4.681,4.681,0,0,1,.458-2.095,3.415,3.415,0,0,1,1.274-1.436,3.469,3.469,0,0,1,1.864-.505,3.342,3.342,0,0,1,2.618,1.121,4.311,4.311,0,0,1,1,2.981v.1a4.722,4.722,0,0,1-.443,2.076,3.365,3.365,0,0,1-1.267,1.432,3.509,3.509,0,0,1-1.893.513,3.334,3.334,0,0,1-2.611-1.121,4.29,4.29,0,0,1-1-2.966Zm1.362.161a3.39,3.39,0,0,0,.612,2.117,2.072,2.072,0,0,0,3.278-.011,3.707,3.707,0,0,0,.608-2.267,3.384,3.384,0,0,0-.619-2.113,1.968,1.968,0,0,0-1.644-.809,1.946,1.946,0,0,0-1.619.8A3.68,3.68,0,0,0,123.665,31.125ZM135.83,32.9a1,1,0,0,0-.414-.853,3.983,3.983,0,0,0-1.443-.524,6.822,6.822,0,0,1-1.633-.527,2.324,2.324,0,0,1-.894-.732,1.752,1.752,0,0,1-.289-1.011,2.056,2.056,0,0,1,.824-1.648,3.218,3.218,0,0,1,2.106-.674,3.311,3.311,0,0,1,2.186.7,2.21,2.21,0,0,1,.839,1.78H135.75a1.223,1.223,0,0,0-.472-.959,1.77,1.77,0,0,0-1.19-.4,1.852,1.852,0,0,0-1.157.322,1.014,1.014,0,0,0-.417.842.822.822,0,0,0,.388.74,4.776,4.776,0,0,0,1.4.476,7.308,7.308,0,0,1,1.644.542,2.4,2.4,0,0,1,.934.758,1.864,1.864,0,0,1,.3,1.08,2.028,2.028,0,0,1-.85,1.7,3.564,3.564,0,0,1-2.2.641,3.991,3.991,0,0,1-1.685-.337,2.74,2.74,0,0,1-1.146-.941,2.268,2.268,0,0,1-.414-1.307h1.355a1.4,1.4,0,0,0,.546,1.08,2.117,2.117,0,0,0,1.344.4,2.185,2.185,0,0,0,1.234-.311A.956.956,0,0,0,135.83,32.9Z" transform="translate(-8254 -1493)" fill="#12263f"/>
    <path id="Trazado_776663" data-name="Trazado 776663" d="M43.772,9.012a6.6,6.6,0,0,1-.527,2.736,3.994,3.994,0,0,1-1.494,1.783,4.123,4.123,0,0,1-6-1.769A6.33,6.33,0,0,1,35.2,9.107V8.338a6.518,6.518,0,0,1,.535-2.717,3.954,3.954,0,0,1,3.75-2.432,4.134,4.134,0,0,1,2.26.619A3.987,3.987,0,0,1,43.245,5.6a6.629,6.629,0,0,1,.527,2.736Zm-1.4-.688a4.781,4.781,0,0,0-.762-2.911A2.512,2.512,0,0,0,39.48,4.4a2.485,2.485,0,0,0-2.1,1.014,4.683,4.683,0,0,0-.787,2.816v.784a4.788,4.788,0,0,0,.773,2.889,2.708,2.708,0,0,0,4.237.059,4.761,4.761,0,0,0,.769-2.845ZM49.5,7.291a4.061,4.061,0,0,0-.667-.051,1.786,1.786,0,0,0-1.809,1.135V14H45.669V6.075h1.318l.022.916A2.11,2.11,0,0,1,48.9,5.929a1.384,1.384,0,0,1,.6.1Zm.784,2.681a4.658,4.658,0,0,1,.857-2.948,2.954,2.954,0,0,1,4.534-.07l.066-.879h1.238V13.81a3.224,3.224,0,0,1-.912,2.424,3.365,3.365,0,0,1-2.45.886,4.076,4.076,0,0,1-1.677-.366,2.887,2.887,0,0,1-1.252-1l.7-.813a2.65,2.65,0,0,0,2.131,1.077,2.076,2.076,0,0,0,1.542-.557,2.128,2.128,0,0,0,.553-1.567v-.681a2.785,2.785,0,0,1-2.219.938,2.707,2.707,0,0,1-2.252-1.121A4.9,4.9,0,0,1,50.283,9.972Zm1.362.154a3.553,3.553,0,0,0,.549,2.106A1.785,1.785,0,0,0,53.733,13a1.985,1.985,0,0,0,1.882-1.165V8.214a2.008,2.008,0,0,0-1.868-1.135,1.8,1.8,0,0,0-1.545.769A3.87,3.87,0,0,0,51.646,10.125ZM63.914,14a2.846,2.846,0,0,1-.19-.835,3.023,3.023,0,0,1-2.256.981,2.8,2.8,0,0,1-1.923-.663,2.145,2.145,0,0,1-.751-1.681,2.24,2.24,0,0,1,.941-1.923A4.437,4.437,0,0,1,62.383,9.2H63.7V8.573a1.522,1.522,0,0,0-.425-1.132,1.707,1.707,0,0,0-1.252-.421,1.976,1.976,0,0,0-1.216.366,1.079,1.079,0,0,0-.491.886H58.955a1.87,1.87,0,0,1,.421-1.146,2.874,2.874,0,0,1,1.143-.875A3.844,3.844,0,0,1,62.1,5.929a3.133,3.133,0,0,1,2.146.685A2.47,2.47,0,0,1,65.056,8.5v3.647a4.459,4.459,0,0,0,.278,1.736V14Zm-2.249-1.033a2.381,2.381,0,0,0,1.208-.33,1.994,1.994,0,0,0,.828-.857V10.155H62.639q-2.49,0-2.49,1.458a1.234,1.234,0,0,0,.425,1A1.633,1.633,0,0,0,61.665,12.967Zm6.8-6.892.044,1a2.888,2.888,0,0,1,2.373-1.143q2.512,0,2.534,2.834V14H72.058V8.756a1.824,1.824,0,0,0-.392-1.267,1.57,1.57,0,0,0-1.2-.41,1.956,1.956,0,0,0-1.157.352,2.387,2.387,0,0,0-.776.923V14H67.18V6.075ZM76.929,14H75.574V6.075h1.355ZM75.464,3.973a.809.809,0,0,1,.2-.557.756.756,0,0,1,.6-.227.768.768,0,0,1,.6.227.8.8,0,0,1,.205.557.774.774,0,0,1-.205.549.782.782,0,0,1-.6.22.77.77,0,0,1-.6-.22A.782.782,0,0,1,75.464,3.973Zm4.907,8.921h4.636V14H78.716V13L83.089,7.2H78.782V6.075h6.006v.959ZM91.424,14a2.846,2.846,0,0,1-.19-.835,3.023,3.023,0,0,1-2.256.981,2.8,2.8,0,0,1-1.923-.663A2.145,2.145,0,0,1,86.3,11.8a2.24,2.24,0,0,1,.941-1.923A4.437,4.437,0,0,1,89.893,9.2h1.318V8.573a1.522,1.522,0,0,0-.425-1.132,1.707,1.707,0,0,0-1.252-.421,1.976,1.976,0,0,0-1.216.366,1.079,1.079,0,0,0-.491.886H86.465a1.87,1.87,0,0,1,.421-1.146,2.874,2.874,0,0,1,1.143-.875,3.844,3.844,0,0,1,1.586-.322,3.133,3.133,0,0,1,2.146.685A2.47,2.47,0,0,1,92.566,8.5v3.647a4.459,4.459,0,0,0,.278,1.736V14Zm-2.249-1.033a2.381,2.381,0,0,0,1.208-.33,1.994,1.994,0,0,0,.828-.857V10.155H90.149q-2.49,0-2.49,1.458a1.234,1.234,0,0,0,.425,1A1.633,1.633,0,0,0,89.175,12.967Zm8.694.073a1.952,1.952,0,0,0,1.267-.439,1.546,1.546,0,0,0,.6-1.1h1.282a2.457,2.457,0,0,1-.469,1.3,3.087,3.087,0,0,1-1.154.981,3.329,3.329,0,0,1-1.527.366,3.265,3.265,0,0,1-2.574-1.08,4.3,4.3,0,0,1-.956-2.955V9.884a4.771,4.771,0,0,1,.425-2.058,3.236,3.236,0,0,1,1.219-1.4,3.464,3.464,0,0,1,1.879-.5,3.178,3.178,0,0,1,2.216.8,2.853,2.853,0,0,1,.941,2.073H99.737a1.867,1.867,0,0,0-.582-1.263,1.811,1.811,0,0,0-1.293-.494,1.9,1.9,0,0,0-1.6.743,3.491,3.491,0,0,0-.568,2.15v.256a3.422,3.422,0,0,0,.564,2.109A1.906,1.906,0,0,0,97.869,13.041Zm6.145.959h-1.355V6.075h1.355ZM102.549,3.973a.809.809,0,0,1,.2-.557.756.756,0,0,1,.6-.227.768.768,0,0,1,.6.227.8.8,0,0,1,.205.557.774.774,0,0,1-.205.549.782.782,0,0,1-.6.22.77.77,0,0,1-.6-.22A.782.782,0,0,1,102.549,3.973Zm3.274,5.991a4.681,4.681,0,0,1,.458-2.095,3.415,3.415,0,0,1,1.274-1.436,3.469,3.469,0,0,1,1.864-.505,3.342,3.342,0,0,1,2.618,1.121,4.311,4.311,0,0,1,1,2.981v.1a4.722,4.722,0,0,1-.443,2.076,3.365,3.365,0,0,1-1.267,1.432,3.509,3.509,0,0,1-1.893.513,3.334,3.334,0,0,1-2.611-1.121,4.29,4.29,0,0,1-1-2.966Zm1.362.161a3.39,3.39,0,0,0,.612,2.117,2.072,2.072,0,0,0,3.278-.011,3.707,3.707,0,0,0,.608-2.267,3.384,3.384,0,0,0-.619-2.113,1.968,1.968,0,0,0-1.644-.809,1.946,1.946,0,0,0-1.619.8A3.68,3.68,0,0,0,107.185,10.125Zm8.833-4.05.044,1a2.888,2.888,0,0,1,2.373-1.143q2.512,0,2.534,2.834V14h-1.355V8.756a1.824,1.824,0,0,0-.392-1.267,1.57,1.57,0,0,0-1.2-.41,1.956,1.956,0,0,0-1.157.352,2.387,2.387,0,0,0-.776.923V14h-1.355V6.075ZM126.3,14.146a3.463,3.463,0,0,1-2.622-1.058,3.928,3.928,0,0,1-1.011-2.831v-.249a4.756,4.756,0,0,1,.45-2.106,3.514,3.514,0,0,1,1.26-1.45,3.167,3.167,0,0,1,1.754-.524,2.968,2.968,0,0,1,2.4,1.018,4.408,4.408,0,0,1,.857,2.915v.564h-5.369a2.817,2.817,0,0,0,.685,1.893,2.153,2.153,0,0,0,1.666.721,2.36,2.36,0,0,0,1.216-.293,3.055,3.055,0,0,0,.872-.776l.828.645A3.328,3.328,0,0,1,126.3,14.146Zm-.168-7.1a1.807,1.807,0,0,0-1.377.6,2.9,2.9,0,0,0-.688,1.674h3.97v-.1a2.581,2.581,0,0,0-.557-1.6A1.7,1.7,0,0,0,126.133,7.042Zm9.441,4.856a1,1,0,0,0-.414-.853,3.983,3.983,0,0,0-1.443-.524,6.822,6.822,0,0,1-1.633-.527,2.324,2.324,0,0,1-.894-.732A1.752,1.752,0,0,1,130.9,8.25a2.056,2.056,0,0,1,.824-1.648,3.218,3.218,0,0,1,2.106-.674,3.311,3.311,0,0,1,2.186.7,2.21,2.21,0,0,1,.839,1.78h-1.362a1.223,1.223,0,0,0-.472-.959,1.77,1.77,0,0,0-1.19-.4,1.852,1.852,0,0,0-1.157.322,1.014,1.014,0,0,0-.417.842.822.822,0,0,0,.388.74,4.776,4.776,0,0,0,1.4.476,7.308,7.308,0,0,1,1.644.542,2.4,2.4,0,0,1,.934.758,1.864,1.864,0,0,1,.3,1.08,2.028,2.028,0,0,1-.85,1.7,3.564,3.564,0,0,1-2.2.641,3.991,3.991,0,0,1-1.685-.337,2.74,2.74,0,0,1-1.146-.941,2.268,2.268,0,0,1-.414-1.307h1.355a1.4,1.4,0,0,0,.546,1.08,2.117,2.117,0,0,0,1.344.4,2.185,2.185,0,0,0,1.234-.311A.956.956,0,0,0,135.574,11.9ZM51.353,27.075l.037.879a2.927,2.927,0,0,1,2.351-1.025A2.266,2.266,0,0,1,56,28.2a3,3,0,0,1,1.029-.923,3.039,3.039,0,0,1,1.5-.352q2.607,0,2.651,2.761V35H59.827V29.771a1.82,1.82,0,0,0-.388-1.271,1.71,1.71,0,0,0-1.3-.421,1.8,1.8,0,0,0-1.252.45,1.827,1.827,0,0,0-.579,1.212V35H54.942V29.807a1.512,1.512,0,0,0-1.692-1.729,1.813,1.813,0,0,0-1.824,1.135V35H50.071V27.075ZM68.118,35a2.846,2.846,0,0,1-.19-.835,3.023,3.023,0,0,1-2.256.981,2.8,2.8,0,0,1-1.923-.663A2.145,2.145,0,0,1,63,32.8a2.24,2.24,0,0,1,.941-1.923,4.437,4.437,0,0,1,2.648-.685h1.318v-.623a1.522,1.522,0,0,0-.425-1.132,1.707,1.707,0,0,0-1.252-.421,1.976,1.976,0,0,0-1.216.366,1.079,1.079,0,0,0-.491.886H63.159a1.87,1.87,0,0,1,.421-1.146,2.874,2.874,0,0,1,1.143-.875,3.844,3.844,0,0,1,1.586-.322,3.133,3.133,0,0,1,2.146.685A2.47,2.47,0,0,1,69.26,29.5v3.647a4.459,4.459,0,0,0,.278,1.736V35Zm-2.249-1.033a2.381,2.381,0,0,0,1.208-.33,1.994,1.994,0,0,0,.828-.857V31.155H66.844q-2.49,0-2.49,1.458a1.234,1.234,0,0,0,.425,1A1.633,1.633,0,0,0,65.869,33.967Zm7.354-8.811v1.919H74.7v1.047H73.223v4.921a1.1,1.1,0,0,0,.2.715.832.832,0,0,0,.674.238,3.281,3.281,0,0,0,.645-.088V35a3.951,3.951,0,0,1-1.04.146,1.687,1.687,0,0,1-1.37-.549,2.36,2.36,0,0,1-.461-1.56V28.123H70.425V27.075h1.443V25.156Zm6.892,3.135a4.06,4.06,0,0,0-.667-.051,1.786,1.786,0,0,0-1.809,1.135V35H76.284V27.075H77.6l.022.916a2.11,2.11,0,0,1,1.89-1.062,1.384,1.384,0,0,1,.6.1ZM82.832,35H81.477V27.075h1.355ZM81.367,24.973a.809.809,0,0,1,.2-.557.756.756,0,0,1,.6-.227.768.768,0,0,1,.6.227.8.8,0,0,1,.205.557.774.774,0,0,1-.205.549.782.782,0,0,1-.6.22.77.77,0,0,1-.6-.22A.782.782,0,0,1,81.367,24.973Zm6.812,9.067a1.952,1.952,0,0,0,1.267-.439,1.546,1.546,0,0,0,.6-1.1h1.282a2.457,2.457,0,0,1-.469,1.3,3.087,3.087,0,0,1-1.154.981,3.329,3.329,0,0,1-1.527.366,3.265,3.265,0,0,1-2.574-1.08,4.3,4.3,0,0,1-.956-2.955v-.227a4.771,4.771,0,0,1,.425-2.058,3.236,3.236,0,0,1,1.219-1.4,3.464,3.464,0,0,1,1.879-.5,3.178,3.178,0,0,1,2.216.8,2.853,2.853,0,0,1,.941,2.073H90.047a1.867,1.867,0,0,0-.582-1.263,1.811,1.811,0,0,0-1.293-.494,1.9,1.9,0,0,0-1.6.743A3.491,3.491,0,0,0,86,30.935v.256a3.422,3.422,0,0,0,.564,2.109A1.906,1.906,0,0,0,88.179,34.041ZM94.324,35H92.969V27.075h1.355ZM92.859,24.973a.809.809,0,0,1,.2-.557.756.756,0,0,1,.6-.227.768.768,0,0,1,.6.227.8.8,0,0,1,.205.557.774.774,0,0,1-.205.549.782.782,0,0,1-.6.22.77.77,0,0,1-.6-.22A.782.782,0,0,1,92.859,24.973ZM101.385,35a2.846,2.846,0,0,1-.19-.835,3.023,3.023,0,0,1-2.256.981,2.8,2.8,0,0,1-1.923-.663,2.145,2.145,0,0,1-.751-1.681,2.24,2.24,0,0,1,.941-1.923,4.437,4.437,0,0,1,2.648-.685h1.318v-.623a1.522,1.522,0,0,0-.425-1.132,1.707,1.707,0,0,0-1.252-.421,1.976,1.976,0,0,0-1.216.366,1.079,1.079,0,0,0-.491.886H96.426a1.87,1.87,0,0,1,.421-1.146,2.874,2.874,0,0,1,1.143-.875,3.844,3.844,0,0,1,1.586-.322,3.133,3.133,0,0,1,2.146.685,2.47,2.47,0,0,1,.806,1.886v3.647a4.459,4.459,0,0,0,.278,1.736V35Zm-2.249-1.033a2.381,2.381,0,0,0,1.208-.33,1.994,1.994,0,0,0,.828-.857V31.155H100.11q-2.49,0-2.49,1.458a1.234,1.234,0,0,0,.425,1A1.633,1.633,0,0,0,99.136,33.967ZM106.123,35h-1.355V23.75h1.355Zm5.457.146a3.463,3.463,0,0,1-2.622-1.058,3.928,3.928,0,0,1-1.011-2.831v-.249a4.756,4.756,0,0,1,.45-2.106,3.514,3.514,0,0,1,1.26-1.45,3.167,3.167,0,0,1,1.754-.524,2.968,2.968,0,0,1,2.4,1.018,4.408,4.408,0,0,1,.857,2.915v.564H109.3a2.817,2.817,0,0,0,.685,1.893,2.153,2.153,0,0,0,1.666.721,2.36,2.36,0,0,0,1.216-.293,3.055,3.055,0,0,0,.872-.776l.828.645A3.328,3.328,0,0,1,111.58,35.146Zm-.168-7.1a1.807,1.807,0,0,0-1.377.6,2.9,2.9,0,0,0-.688,1.674h3.97v-.1a2.581,2.581,0,0,0-.557-1.6A1.7,1.7,0,0,0,111.411,28.042Zm9.441,4.856a1,1,0,0,0-.414-.853A3.983,3.983,0,0,0,119,31.521a6.822,6.822,0,0,1-1.633-.527,2.324,2.324,0,0,1-.894-.732,1.752,1.752,0,0,1-.289-1.011A2.056,2.056,0,0,1,117,27.6a3.218,3.218,0,0,1,2.106-.674,3.311,3.311,0,0,1,2.186.7,2.21,2.21,0,0,1,.839,1.78h-1.362a1.223,1.223,0,0,0-.472-.959,1.77,1.77,0,0,0-1.19-.4,1.852,1.852,0,0,0-1.157.322,1.014,1.014,0,0,0-.417.842.822.822,0,0,0,.388.74,4.776,4.776,0,0,0,1.4.476,7.308,7.308,0,0,1,1.644.542,2.4,2.4,0,0,1,.934.758,1.864,1.864,0,0,1,.3,1.08,2.028,2.028,0,0,1-.85,1.7,3.564,3.564,0,0,1-2.2.641,3.991,3.991,0,0,1-1.685-.337,2.74,2.74,0,0,1-1.146-.941,2.268,2.268,0,0,1-.414-1.307h1.355a1.4,1.4,0,0,0,.546,1.08,2.117,2.117,0,0,0,1.344.4,2.185,2.185,0,0,0,1.234-.311A.956.956,0,0,0,120.852,32.9Z" transform="translate(-8044 -1345)" fill="#12263f"/>
    <path id="Trazado_776664" data-name="Trazado 776664" d="M23.546,9.071H18.925V12.85h5.369V14H17.519V3.336h6.7v1.15h-5.3V7.921h4.622Zm3.567-3,.044,1A2.888,2.888,0,0,1,29.53,5.929q2.512,0,2.534,2.834V14H30.709V8.756a1.824,1.824,0,0,0-.392-1.267,1.57,1.57,0,0,0-1.2-.41,1.956,1.956,0,0,0-1.157.352,2.387,2.387,0,0,0-.776.923V14H25.832V6.075ZM34.774,14V7.123H33.522V6.075h1.252V5.262a2.7,2.7,0,0,1,.681-1.97,2.573,2.573,0,0,1,1.926-.7,3.578,3.578,0,0,1,.93.124l-.073,1.092a3.892,3.892,0,0,0-.732-.066,1.322,1.322,0,0,0-1.018.386,1.564,1.564,0,0,0-.359,1.106v.838h1.692V7.123H36.129V14Zm4.182-4.036a4.681,4.681,0,0,1,.458-2.095,3.415,3.415,0,0,1,1.274-1.436,3.469,3.469,0,0,1,1.864-.505,3.342,3.342,0,0,1,2.618,1.121,4.311,4.311,0,0,1,1,2.981v.1a4.722,4.722,0,0,1-.443,2.076,3.365,3.365,0,0,1-1.267,1.432,3.509,3.509,0,0,1-1.893.513,3.334,3.334,0,0,1-2.611-1.121,4.29,4.29,0,0,1-1-2.966Zm1.362.161a3.39,3.39,0,0,0,.612,2.117,2.072,2.072,0,0,0,3.278-.011,3.707,3.707,0,0,0,.608-2.267A3.384,3.384,0,0,0,44.2,7.851a1.968,1.968,0,0,0-1.644-.809,1.946,1.946,0,0,0-1.619.8A3.68,3.68,0,0,0,40.319,10.125Zm7.222-.154A4.651,4.651,0,0,1,48.4,7.016a3.024,3.024,0,0,1,4.519-.143l.059-.8H54.22V17.047H52.865V13.268a2.844,2.844,0,0,1-2.183.879,2.733,2.733,0,0,1-2.289-1.117,4.755,4.755,0,0,1-.853-2.963Zm1.355.154a3.526,3.526,0,0,0,.575,2.139,1.829,1.829,0,0,0,1.549.776,2.029,2.029,0,0,0,1.846-1.069V8.089a2.035,2.035,0,0,0-1.831-1.047,1.843,1.843,0,0,0-1.56.78A3.838,3.838,0,0,0,48.9,10.125Zm12.393,3.091a2.878,2.878,0,0,1-2.322.93,2.464,2.464,0,0,1-1.93-.736,3.186,3.186,0,0,1-.67-2.179V6.075h1.355v5.12q0,1.8,1.465,1.8a2.028,2.028,0,0,0,2.065-1.157V6.075h1.355V14H61.317Zm6.665.93a3.463,3.463,0,0,1-2.622-1.058,3.928,3.928,0,0,1-1.011-2.831v-.249a4.756,4.756,0,0,1,.45-2.106,3.514,3.514,0,0,1,1.26-1.45,3.167,3.167,0,0,1,1.754-.524,2.968,2.968,0,0,1,2.4,1.018,4.408,4.408,0,0,1,.857,2.915v.564H65.675a2.817,2.817,0,0,0,.685,1.893,2.153,2.153,0,0,0,1.666.721,2.36,2.36,0,0,0,1.216-.293,3.055,3.055,0,0,0,.872-.776l.828.645A3.328,3.328,0,0,1,67.953,14.146Zm-.168-7.1a1.807,1.807,0,0,0-1.377.6,2.9,2.9,0,0,0-.688,1.674h3.97v-.1a2.581,2.581,0,0,0-.557-1.6A1.7,1.7,0,0,0,67.785,7.042Zm11.829,7.1a3.463,3.463,0,0,1-2.622-1.058,3.928,3.928,0,0,1-1.011-2.831v-.249a4.756,4.756,0,0,1,.45-2.106,3.514,3.514,0,0,1,1.26-1.45,3.167,3.167,0,0,1,1.754-.524,2.968,2.968,0,0,1,2.4,1.018A4.408,4.408,0,0,1,82.7,9.862v.564H77.335a2.817,2.817,0,0,0,.685,1.893,2.153,2.153,0,0,0,1.666.721,2.36,2.36,0,0,0,1.216-.293,3.055,3.055,0,0,0,.872-.776l.828.645A3.328,3.328,0,0,1,79.613,14.146Zm-.168-7.1a1.807,1.807,0,0,0-1.377.6,2.9,2.9,0,0,0-.688,1.674h3.97v-.1a2.581,2.581,0,0,0-.557-1.6A1.7,1.7,0,0,0,79.445,7.042Zm6.108-.967.044,1A2.888,2.888,0,0,1,87.97,5.929q2.512,0,2.534,2.834V14H89.149V8.756a1.824,1.824,0,0,0-.392-1.267,1.57,1.57,0,0,0-1.2-.41A1.956,1.956,0,0,0,86.4,7.43a2.387,2.387,0,0,0-.776.923V14H84.271V6.075ZM95.9,9.964A4.681,4.681,0,0,1,96.36,7.87a3.415,3.415,0,0,1,1.274-1.436A3.469,3.469,0,0,1,99.5,5.929a3.342,3.342,0,0,1,2.618,1.121,4.311,4.311,0,0,1,1,2.981v.1a4.722,4.722,0,0,1-.443,2.076,3.365,3.365,0,0,1-1.267,1.432,3.509,3.509,0,0,1-1.893.513A3.334,3.334,0,0,1,96.9,13.026a4.29,4.29,0,0,1-1-2.966Zm1.362.161a3.39,3.39,0,0,0,.612,2.117,2.072,2.072,0,0,0,3.278-.011,3.707,3.707,0,0,0,.608-2.267,3.384,3.384,0,0,0-.619-2.113A1.968,1.968,0,0,0,99.5,7.042a1.946,1.946,0,0,0-1.619.8A3.68,3.68,0,0,0,97.265,10.125Zm14.26,0a4.712,4.712,0,0,1-.835,2.919,2.668,2.668,0,0,1-2.241,1.1,2.763,2.763,0,0,1-2.322-1.062l-.066.916h-1.245V2.75h1.355v4.2a2.747,2.747,0,0,1,2.263-1.018A2.684,2.684,0,0,1,110.7,7.02a4.853,4.853,0,0,1,.824,2.988Zm-1.355-.154a3.662,3.662,0,0,0-.535-2.139,1.77,1.77,0,0,0-1.538-.754,1.989,1.989,0,0,0-1.926,1.245v3.428A2.045,2.045,0,0,0,108.112,13a1.76,1.76,0,0,0,1.516-.754A3.894,3.894,0,0,0,110.17,9.972Zm4.46-3.9v8.84q0,2.285-2.073,2.285a2.528,2.528,0,0,1-.828-.131V15.992a2.62,2.62,0,0,0,.615.059.921.921,0,0,0,.692-.246,1.214,1.214,0,0,0,.238-.854V6.075Zm-1.494-2.1a.812.812,0,0,1,.2-.553.741.741,0,0,1,.59-.231.768.768,0,0,1,.6.227.8.8,0,0,1,.205.557.774.774,0,0,1-.205.549.782.782,0,0,1-.6.22.758.758,0,0,1-.593-.22A.791.791,0,0,1,113.136,3.973ZM120.1,14.146a3.463,3.463,0,0,1-2.622-1.058,3.928,3.928,0,0,1-1.011-2.831v-.249a4.756,4.756,0,0,1,.45-2.106,3.514,3.514,0,0,1,1.26-1.45,3.167,3.167,0,0,1,1.754-.524,2.968,2.968,0,0,1,2.4,1.018,4.408,4.408,0,0,1,.857,2.915v.564h-5.369a2.817,2.817,0,0,0,.685,1.893,2.153,2.153,0,0,0,1.666.721,2.36,2.36,0,0,0,1.216-.293,3.055,3.055,0,0,0,.872-.776l.828.645A3.328,3.328,0,0,1,120.1,14.146Zm-.168-7.1a1.807,1.807,0,0,0-1.377.6,2.9,2.9,0,0,0-.688,1.674h3.97v-.1a2.581,2.581,0,0,0-.557-1.6A1.7,1.7,0,0,0,119.933,7.042ZM126.6,4.156V6.075h1.479V7.123H126.6v4.921a1.1,1.1,0,0,0,.2.715.832.832,0,0,0,.674.238,3.281,3.281,0,0,0,.645-.088V14a3.951,3.951,0,0,1-1.04.146,1.687,1.687,0,0,1-1.37-.549,2.36,2.36,0,0,1-.461-1.56V7.123H123.8V6.075h1.443V4.156ZM131.132,14h-1.355V6.075h1.355ZM129.667,3.973a.809.809,0,0,1,.2-.557.756.756,0,0,1,.6-.227.768.768,0,0,1,.6.227.8.8,0,0,1,.205.557.774.774,0,0,1-.205.549.782.782,0,0,1-.6.22.77.77,0,0,1-.6-.22A.782.782,0,0,1,129.667,3.973Zm6.248,8.188,1.963-6.086h1.384L136.42,14h-1.033l-2.871-7.925H133.9Zm4.182-2.2a4.681,4.681,0,0,1,.458-2.095,3.415,3.415,0,0,1,1.274-1.436,3.469,3.469,0,0,1,1.864-.505,3.342,3.342,0,0,1,2.618,1.121,4.311,4.311,0,0,1,1,2.981v.1a4.722,4.722,0,0,1-.443,2.076,3.365,3.365,0,0,1-1.267,1.432,3.509,3.509,0,0,1-1.893.513,3.334,3.334,0,0,1-2.611-1.121,4.29,4.29,0,0,1-1-2.966Zm1.362.161a3.39,3.39,0,0,0,.612,2.117,2.072,2.072,0,0,0,3.278-.011,3.707,3.707,0,0,0,.608-2.267,3.384,3.384,0,0,0-.619-2.113,1.968,1.968,0,0,0-1.644-.809,1.946,1.946,0,0,0-1.619.8A3.68,3.68,0,0,0,141.459,10.125ZM153.625,11.9a1,1,0,0,0-.414-.853,3.983,3.983,0,0,0-1.443-.524,6.822,6.822,0,0,1-1.633-.527,2.324,2.324,0,0,1-.894-.732,1.752,1.752,0,0,1-.289-1.011,2.056,2.056,0,0,1,.824-1.648,3.218,3.218,0,0,1,2.106-.674,3.311,3.311,0,0,1,2.186.7,2.21,2.21,0,0,1,.839,1.78h-1.362a1.223,1.223,0,0,0-.472-.959,1.77,1.77,0,0,0-1.19-.4,1.852,1.852,0,0,0-1.157.322,1.014,1.014,0,0,0-.417.842.822.822,0,0,0,.388.74,4.776,4.776,0,0,0,1.4.476,7.308,7.308,0,0,1,1.644.542,2.4,2.4,0,0,1,.934.758,1.864,1.864,0,0,1,.3,1.08,2.028,2.028,0,0,1-.85,1.7,3.564,3.564,0,0,1-2.2.641,3.991,3.991,0,0,1-1.685-.337,2.74,2.74,0,0,1-1.146-.941,2.268,2.268,0,0,1-.414-1.307h1.355a1.4,1.4,0,0,0,.546,1.08,2.117,2.117,0,0,0,1.344.4,2.185,2.185,0,0,0,1.234-.311A.956.956,0,0,0,153.625,11.9Z" transform="translate(-8044 -1483)" fill="#12263f"/>
    <path id="Trazado_776665" data-name="Trazado 776665" d="M25.227,9.247a6.612,6.612,0,0,1-2.633-1.278A2.442,2.442,0,0,1,21.77,6.1a2.58,2.58,0,0,1,1.007-2.084A4,4,0,0,1,25.4,3.189a4.369,4.369,0,0,1,1.959.425,3.222,3.222,0,0,1,1.333,1.172,3,3,0,0,1,.472,1.633H27.747a1.95,1.95,0,0,0-.615-1.525A2.5,2.5,0,0,0,25.4,4.339a2.561,2.561,0,0,0-1.622.459,1.53,1.53,0,0,0-.582,1.273,1.376,1.376,0,0,0,.553,1.1A5.424,5.424,0,0,0,25.626,8a8.734,8.734,0,0,1,2.08.825A3.157,3.157,0,0,1,28.82,9.876a2.683,2.683,0,0,1,.363,1.414,2.492,2.492,0,0,1-1.011,2.076,4.31,4.31,0,0,1-2.7.78,5.013,5.013,0,0,1-2.051-.421,3.451,3.451,0,0,1-1.469-1.154,2.815,2.815,0,0,1-.516-1.663h1.414a1.837,1.837,0,0,0,.714,1.527,3.007,3.007,0,0,0,1.908.56,2.764,2.764,0,0,0,1.707-.454,1.475,1.475,0,0,0,.593-1.238,1.448,1.448,0,0,0-.549-1.212A6.333,6.333,0,0,0,25.227,9.247ZM32.244,14H30.889V6.075h1.355ZM30.779,3.973a.809.809,0,0,1,.2-.557.756.756,0,0,1,.6-.227.768.768,0,0,1,.6.227.8.8,0,0,1,.205.557.774.774,0,0,1-.205.549.782.782,0,0,1-.6.22.77.77,0,0,1-.6-.22A.782.782,0,0,1,30.779,3.973ZM39.026,11.9a1,1,0,0,0-.414-.853,3.983,3.983,0,0,0-1.443-.524,6.822,6.822,0,0,1-1.633-.527,2.324,2.324,0,0,1-.894-.732,1.752,1.752,0,0,1-.289-1.011A2.056,2.056,0,0,1,35.177,6.6a3.218,3.218,0,0,1,2.106-.674,3.311,3.311,0,0,1,2.186.7,2.21,2.21,0,0,1,.839,1.78H38.946a1.223,1.223,0,0,0-.472-.959,1.77,1.77,0,0,0-1.19-.4,1.852,1.852,0,0,0-1.157.322,1.014,1.014,0,0,0-.417.842.822.822,0,0,0,.388.74,4.776,4.776,0,0,0,1.4.476,7.308,7.308,0,0,1,1.644.542,2.4,2.4,0,0,1,.934.758,1.864,1.864,0,0,1,.3,1.08,2.028,2.028,0,0,1-.85,1.7,3.564,3.564,0,0,1-2.2.641,3.991,3.991,0,0,1-1.685-.337,2.74,2.74,0,0,1-1.146-.941,2.268,2.268,0,0,1-.414-1.307h1.355a1.4,1.4,0,0,0,.546,1.08,2.117,2.117,0,0,0,1.344.4,2.185,2.185,0,0,0,1.234-.311A.956.956,0,0,0,39.026,11.9Zm4.958-7.742V6.075h1.479V7.123H43.985v4.921a1.1,1.1,0,0,0,.2.715.832.832,0,0,0,.674.238,3.281,3.281,0,0,0,.645-.088V14a3.951,3.951,0,0,1-1.04.146,1.687,1.687,0,0,1-1.37-.549,2.36,2.36,0,0,1-.461-1.56V7.123H41.187V6.075H42.63V4.156Zm6.35,9.99a3.463,3.463,0,0,1-2.622-1.058A3.928,3.928,0,0,1,46.7,10.257v-.249a4.756,4.756,0,0,1,.45-2.106,3.514,3.514,0,0,1,1.26-1.45,3.167,3.167,0,0,1,1.754-.524,2.968,2.968,0,0,1,2.4,1.018,4.408,4.408,0,0,1,.857,2.915v.564H48.057a2.817,2.817,0,0,0,.685,1.893,2.153,2.153,0,0,0,1.666.721,2.36,2.36,0,0,0,1.216-.293,3.055,3.055,0,0,0,.872-.776l.828.645A3.328,3.328,0,0,1,50.335,14.146Zm-.168-7.1a1.807,1.807,0,0,0-1.377.6A2.9,2.9,0,0,0,48.1,9.313h3.97v-.1a2.581,2.581,0,0,0-.557-1.6A1.7,1.7,0,0,0,50.166,7.042Zm6.1-.967.037.879a2.927,2.927,0,0,1,2.351-1.025A2.266,2.266,0,0,1,60.918,7.2a3,3,0,0,1,1.029-.923,3.039,3.039,0,0,1,1.5-.352q2.607,0,2.651,2.761V14H64.741V8.771A1.82,1.82,0,0,0,64.353,7.5a1.71,1.71,0,0,0-1.3-.421,1.8,1.8,0,0,0-1.252.45,1.827,1.827,0,0,0-.579,1.212V14H59.856V8.807a1.512,1.512,0,0,0-1.692-1.729,1.813,1.813,0,0,0-1.824,1.135V14H54.986V6.075ZM73.032,14a2.846,2.846,0,0,1-.19-.835,3.023,3.023,0,0,1-2.256.981,2.8,2.8,0,0,1-1.923-.663,2.145,2.145,0,0,1-.751-1.681,2.24,2.24,0,0,1,.941-1.923A4.437,4.437,0,0,1,71.5,9.2H72.82V8.573A1.522,1.522,0,0,0,72.4,7.441a1.707,1.707,0,0,0-1.252-.421,1.976,1.976,0,0,0-1.216.366,1.079,1.079,0,0,0-.491.886H68.074A1.87,1.87,0,0,1,68.5,7.126a2.874,2.874,0,0,1,1.143-.875,3.844,3.844,0,0,1,1.586-.322,3.133,3.133,0,0,1,2.146.685A2.47,2.47,0,0,1,74.175,8.5v3.647a4.459,4.459,0,0,0,.278,1.736V14Zm-2.249-1.033a2.381,2.381,0,0,0,1.208-.33,1.994,1.994,0,0,0,.828-.857V10.155H71.758q-2.49,0-2.49,1.458a1.234,1.234,0,0,0,.425,1A1.633,1.633,0,0,0,70.784,12.967ZM80.913,11.9a1,1,0,0,0-.414-.853,3.983,3.983,0,0,0-1.443-.524,6.822,6.822,0,0,1-1.633-.527,2.324,2.324,0,0,1-.894-.732A1.752,1.752,0,0,1,76.24,8.25,2.056,2.056,0,0,1,77.064,6.6a3.218,3.218,0,0,1,2.106-.674,3.311,3.311,0,0,1,2.186.7A2.21,2.21,0,0,1,82.2,8.4H80.833a1.223,1.223,0,0,0-.472-.959,1.77,1.77,0,0,0-1.19-.4,1.852,1.852,0,0,0-1.157.322,1.014,1.014,0,0,0-.417.842.822.822,0,0,0,.388.74,4.776,4.776,0,0,0,1.4.476,7.308,7.308,0,0,1,1.644.542,2.4,2.4,0,0,1,.934.758,1.864,1.864,0,0,1,.3,1.08,2.028,2.028,0,0,1-.85,1.7,3.564,3.564,0,0,1-2.2.641,3.991,3.991,0,0,1-1.685-.337,2.74,2.74,0,0,1-1.146-.941,2.268,2.268,0,0,1-.414-1.307h1.355a1.4,1.4,0,0,0,.546,1.08,2.117,2.117,0,0,0,1.344.4,2.185,2.185,0,0,0,1.234-.311A.956.956,0,0,0,80.913,11.9Zm9.448.264,1.963-6.086h1.384L90.867,14H89.834L86.963,6.075h1.384Zm7.844,1.985a3.463,3.463,0,0,1-2.622-1.058,3.928,3.928,0,0,1-1.011-2.831v-.249a4.756,4.756,0,0,1,.45-2.106,3.514,3.514,0,0,1,1.26-1.45,3.167,3.167,0,0,1,1.754-.524,2.968,2.968,0,0,1,2.4,1.018,4.408,4.408,0,0,1,.857,2.915v.564H95.928a2.817,2.817,0,0,0,.685,1.893,2.153,2.153,0,0,0,1.666.721,2.36,2.36,0,0,0,1.216-.293,3.055,3.055,0,0,0,.872-.776l.828.645A3.328,3.328,0,0,1,98.206,14.146Zm-.168-7.1a1.807,1.807,0,0,0-1.377.6,2.9,2.9,0,0,0-.688,1.674h3.97v-.1a2.581,2.581,0,0,0-.557-1.6A1.7,1.7,0,0,0,98.037,7.042Zm8.657.249a4.061,4.061,0,0,0-.667-.051,1.786,1.786,0,0,0-1.809,1.135V14h-1.355V6.075h1.318l.022.916a2.11,2.11,0,0,1,1.89-1.062,1.384,1.384,0,0,1,.6.1Zm3.45-3.135V6.075h1.479V7.123h-1.479v4.921a1.1,1.1,0,0,0,.2.715.832.832,0,0,0,.674.238,3.281,3.281,0,0,0,.645-.088V14a3.951,3.951,0,0,1-1.04.146,1.687,1.687,0,0,1-1.37-.549,2.36,2.36,0,0,1-.461-1.56V7.123h-1.443V6.075h1.443V4.156ZM114.678,14h-1.355V6.075h1.355ZM113.213,3.973a.809.809,0,0,1,.2-.557.756.756,0,0,1,.6-.227.768.768,0,0,1,.6.227.8.8,0,0,1,.205.557.774.774,0,0,1-.205.549.782.782,0,0,1-.6.22.77.77,0,0,1-.6-.22A.782.782,0,0,1,113.213,3.973Zm6.812,9.067a1.952,1.952,0,0,0,1.267-.439,1.546,1.546,0,0,0,.6-1.1h1.282a2.457,2.457,0,0,1-.469,1.3,3.087,3.087,0,0,1-1.154.981,3.329,3.329,0,0,1-1.527.366,3.265,3.265,0,0,1-2.574-1.08,4.3,4.3,0,0,1-.956-2.955V9.884a4.771,4.771,0,0,1,.425-2.058,3.236,3.236,0,0,1,1.219-1.4,3.464,3.464,0,0,1,1.879-.5,3.178,3.178,0,0,1,2.216.8,2.853,2.853,0,0,1,.941,2.073h-1.282a1.867,1.867,0,0,0-.582-1.263,1.811,1.811,0,0,0-1.293-.494,1.9,1.9,0,0,0-1.6.743,3.491,3.491,0,0,0-.568,2.15v.256a3.422,3.422,0,0,0,.564,2.109A1.906,1.906,0,0,0,120.025,13.041ZM129.59,14a2.846,2.846,0,0,1-.19-.835,3.023,3.023,0,0,1-2.256.981,2.8,2.8,0,0,1-1.923-.663,2.145,2.145,0,0,1-.751-1.681,2.24,2.24,0,0,1,.941-1.923,4.437,4.437,0,0,1,2.648-.685h1.318V8.573a1.522,1.522,0,0,0-.425-1.132A1.707,1.707,0,0,0,127.7,7.02a1.976,1.976,0,0,0-1.216.366,1.079,1.079,0,0,0-.491.886h-1.362a1.87,1.87,0,0,1,.421-1.146,2.874,2.874,0,0,1,1.143-.875,3.844,3.844,0,0,1,1.586-.322,3.133,3.133,0,0,1,2.146.685,2.47,2.47,0,0,1,.806,1.886v3.647a4.459,4.459,0,0,0,.278,1.736V14Zm-2.249-1.033a2.381,2.381,0,0,0,1.208-.33,1.994,1.994,0,0,0,.828-.857V10.155h-1.062q-2.49,0-2.49,1.458a1.234,1.234,0,0,0,.425,1A1.633,1.633,0,0,0,127.342,12.967ZM134.329,14h-1.355V2.75h1.355Zm5.457.146a3.463,3.463,0,0,1-2.622-1.058,3.928,3.928,0,0,1-1.011-2.831v-.249A4.756,4.756,0,0,1,136.6,7.9a3.514,3.514,0,0,1,1.26-1.45,3.167,3.167,0,0,1,1.754-.524,2.968,2.968,0,0,1,2.4,1.018,4.408,4.408,0,0,1,.857,2.915v.564h-5.369a2.817,2.817,0,0,0,.685,1.893,2.153,2.153,0,0,0,1.666.721,2.36,2.36,0,0,0,1.216-.293,3.055,3.055,0,0,0,.872-.776l.828.645A3.328,3.328,0,0,1,139.785,14.146Zm-.168-7.1a1.807,1.807,0,0,0-1.377.6,2.9,2.9,0,0,0-.688,1.674h3.97v-.1a2.581,2.581,0,0,0-.557-1.6A1.7,1.7,0,0,0,139.617,7.042Zm9.441,4.856a1,1,0,0,0-.414-.853,3.983,3.983,0,0,0-1.443-.524,6.822,6.822,0,0,1-1.633-.527,2.324,2.324,0,0,1-.894-.732,1.752,1.752,0,0,1-.289-1.011,2.056,2.056,0,0,1,.824-1.648,3.218,3.218,0,0,1,2.106-.674,3.311,3.311,0,0,1,2.186.7,2.21,2.21,0,0,1,.839,1.78h-1.362a1.223,1.223,0,0,0-.472-.959,1.77,1.77,0,0,0-1.19-.4,1.852,1.852,0,0,0-1.157.322,1.014,1.014,0,0,0-.417.842.822.822,0,0,0,.388.74,4.776,4.776,0,0,0,1.4.476,7.308,7.308,0,0,1,1.644.542,2.4,2.4,0,0,1,.934.758,1.864,1.864,0,0,1,.3,1.08,2.028,2.028,0,0,1-.85,1.7,3.564,3.564,0,0,1-2.2.641,3.991,3.991,0,0,1-1.685-.337,2.74,2.74,0,0,1-1.146-.941,2.268,2.268,0,0,1-.414-1.307h1.355a1.4,1.4,0,0,0,.546,1.08,2.117,2.117,0,0,0,1.344.4,2.185,2.185,0,0,0,1.234-.311A.956.956,0,0,0,149.058,11.9ZM36.444,30.972a4.642,4.642,0,0,1,.864-2.933,2.941,2.941,0,0,1,4.468-.157V23.75h1.355V35H41.886l-.066-.85a2.759,2.759,0,0,1-2.263,1,2.707,2.707,0,0,1-2.245-1.128,4.7,4.7,0,0,1-.868-2.944Zm1.355.154a3.515,3.515,0,0,0,.557,2.109A1.8,1.8,0,0,0,39.894,34a1.977,1.977,0,0,0,1.882-1.157V29.2a1.992,1.992,0,0,0-1.868-1.121,1.808,1.808,0,0,0-1.553.769A3.87,3.87,0,0,0,37.8,31.125Zm10.723,4.021A3.463,3.463,0,0,1,45.9,34.088a3.928,3.928,0,0,1-1.011-2.831v-.249a4.756,4.756,0,0,1,.45-2.106,3.514,3.514,0,0,1,1.26-1.45,3.167,3.167,0,0,1,1.754-.524,2.968,2.968,0,0,1,2.4,1.018,4.408,4.408,0,0,1,.857,2.915v.564H46.244a2.817,2.817,0,0,0,.685,1.893,2.153,2.153,0,0,0,1.666.721,2.36,2.36,0,0,0,1.216-.293,3.055,3.055,0,0,0,.872-.776l.828.645A3.328,3.328,0,0,1,48.522,35.146Zm-.168-7.1a1.807,1.807,0,0,0-1.377.6,2.9,2.9,0,0,0-.688,1.674h3.97v-.1a2.581,2.581,0,0,0-.557-1.6A1.7,1.7,0,0,0,48.354,28.042ZM58.366,35H57.011V27.075h1.355ZM56.9,24.973a.809.809,0,0,1,.2-.557.756.756,0,0,1,.6-.227.768.768,0,0,1,.6.227.8.8,0,0,1,.205.557.774.774,0,0,1-.205.549.782.782,0,0,1-.6.22.77.77,0,0,1-.6-.22A.782.782,0,0,1,56.9,24.973Zm4.915,2.1.044,1a2.888,2.888,0,0,1,2.373-1.143q2.512,0,2.534,2.834V35H65.412V29.756a1.824,1.824,0,0,0-.392-1.267,1.57,1.57,0,0,0-1.2-.41,1.956,1.956,0,0,0-1.157.352,2.387,2.387,0,0,0-.776.923V35H60.534V27.075ZM69.477,35V28.123H68.224V27.075h1.252v-.813a2.7,2.7,0,0,1,.681-1.97,2.573,2.573,0,0,1,1.926-.7,3.578,3.578,0,0,1,.93.124l-.073,1.092a3.892,3.892,0,0,0-.732-.066,1.322,1.322,0,0,0-1.018.386,1.564,1.564,0,0,0-.359,1.106v.838h1.692v1.047H70.832V35Zm4.182-4.036a4.681,4.681,0,0,1,.458-2.095,3.415,3.415,0,0,1,1.274-1.436,3.469,3.469,0,0,1,1.864-.505,3.342,3.342,0,0,1,2.618,1.121,4.311,4.311,0,0,1,1,2.981v.1A4.722,4.722,0,0,1,80.43,33.2a3.365,3.365,0,0,1-1.267,1.432,3.509,3.509,0,0,1-1.893.513,3.334,3.334,0,0,1-2.611-1.121,4.29,4.29,0,0,1-1-2.966Zm1.362.161a3.39,3.39,0,0,0,.612,2.117,2.072,2.072,0,0,0,3.278-.011,3.707,3.707,0,0,0,.608-2.267,3.384,3.384,0,0,0-.619-2.113,1.968,1.968,0,0,0-1.644-.809,1.946,1.946,0,0,0-1.619.8A3.68,3.68,0,0,0,75.021,31.125ZM86.4,28.291a4.06,4.06,0,0,0-.667-.051,1.786,1.786,0,0,0-1.809,1.135V35H82.572V27.075h1.318l.022.916a2.11,2.11,0,0,1,1.89-1.062,1.384,1.384,0,0,1,.6.1Zm2.52-1.216.037.879a2.927,2.927,0,0,1,2.351-1.025A2.266,2.266,0,0,1,93.573,28.2,3,3,0,0,1,94.6,27.28a3.039,3.039,0,0,1,1.5-.352q2.607,0,2.651,2.761V35H97.4V29.771a1.82,1.82,0,0,0-.388-1.271,1.71,1.71,0,0,0-1.3-.421,1.8,1.8,0,0,0-1.252.45,1.827,1.827,0,0,0-.579,1.212V35H92.511V29.807a1.512,1.512,0,0,0-1.692-1.729A1.813,1.813,0,0,0,89,29.214V35H87.641V27.075ZM105.688,35a2.846,2.846,0,0,1-.19-.835,3.023,3.023,0,0,1-2.256.981,2.8,2.8,0,0,1-1.923-.663,2.145,2.145,0,0,1-.751-1.681,2.24,2.24,0,0,1,.941-1.923,4.437,4.437,0,0,1,2.648-.685h1.318v-.623a1.522,1.522,0,0,0-.425-1.132,1.707,1.707,0,0,0-1.252-.421,1.976,1.976,0,0,0-1.216.366,1.079,1.079,0,0,0-.491.886h-1.362a1.87,1.87,0,0,1,.421-1.146,2.874,2.874,0,0,1,1.143-.875,3.844,3.844,0,0,1,1.586-.322,3.133,3.133,0,0,1,2.146.685,2.47,2.47,0,0,1,.806,1.886v3.647a4.459,4.459,0,0,0,.278,1.736V35Zm-2.249-1.033a2.381,2.381,0,0,0,1.208-.33,1.994,1.994,0,0,0,.828-.857V31.155h-1.062q-2.49,0-2.49,1.458a1.234,1.234,0,0,0,.425,1A1.633,1.633,0,0,0,103.439,33.967Zm8.694.073A1.952,1.952,0,0,0,113.4,33.6a1.546,1.546,0,0,0,.6-1.1h1.282a2.457,2.457,0,0,1-.469,1.3,3.087,3.087,0,0,1-1.154.981,3.329,3.329,0,0,1-1.527.366,3.265,3.265,0,0,1-2.574-1.08,4.3,4.3,0,0,1-.956-2.955v-.227a4.771,4.771,0,0,1,.425-2.058,3.236,3.236,0,0,1,1.219-1.4,3.464,3.464,0,0,1,1.879-.5,3.178,3.178,0,0,1,2.216.8,2.853,2.853,0,0,1,.941,2.073H114a1.867,1.867,0,0,0-.582-1.263,1.811,1.811,0,0,0-1.293-.494,1.9,1.9,0,0,0-1.6.743,3.491,3.491,0,0,0-.568,2.15v.256a3.422,3.422,0,0,0,.564,2.109A1.906,1.906,0,0,0,112.133,34.041Zm6.145.959h-1.355V27.075h1.355Zm-1.465-10.027a.809.809,0,0,1,.2-.557.756.756,0,0,1,.6-.227.768.768,0,0,1,.6.227.8.8,0,0,1,.205.557.774.774,0,0,1-.205.549.782.782,0,0,1-.6.22.77.77,0,0,1-.6-.22A.782.782,0,0,1,116.813,24.973Zm3.274,5.991a4.681,4.681,0,0,1,.458-2.095,3.415,3.415,0,0,1,1.274-1.436,3.469,3.469,0,0,1,1.864-.505,3.342,3.342,0,0,1,2.618,1.121,4.311,4.311,0,0,1,1,2.981v.1a4.722,4.722,0,0,1-.443,2.076,3.365,3.365,0,0,1-1.267,1.432,3.509,3.509,0,0,1-1.893.513,3.334,3.334,0,0,1-2.611-1.121,4.29,4.29,0,0,1-1-2.966Zm1.362.161a3.39,3.39,0,0,0,.612,2.117,2.072,2.072,0,0,0,3.278-.011,3.707,3.707,0,0,0,.608-2.267,3.384,3.384,0,0,0-.619-2.113,1.968,1.968,0,0,0-1.644-.809,1.946,1.946,0,0,0-1.619.8A3.68,3.68,0,0,0,121.449,31.125Zm2.849-7.361h1.641l-1.963,2.153-1.091,0Zm5.984,3.311.044,1a2.888,2.888,0,0,1,2.373-1.143q2.512,0,2.534,2.834V35h-1.355V29.756a1.824,1.824,0,0,0-.392-1.267,1.57,1.57,0,0,0-1.2-.41,1.956,1.956,0,0,0-1.157.352,2.387,2.387,0,0,0-.776.923V35H129V27.075Z" transform="translate(-8464 -1345)" fill="#12263f"/>
  </g>
</svg>
