<svg xmlns="http://www.w3.org/2000/svg" width="68" height="68" viewBox="0 0 68 68">
  <g id="Grupo_1029175" data-name="Grupo 1029175" transform="translate(-1232 -8524)">
    <rect id="Rectángulo_361822" data-name="Rectángulo 361822" width="68" height="68" transform="translate(1232 8524)" fill="none"/>
    <g id="_072-workflow-1" data-name="072-workflow-1" transform="translate(1235 8525)">
      <g id="Grupo_1029149" data-name="Grupo 1029149" transform="translate(29.882 27.779)">
        <g id="Grupo_1029148" data-name="Grupo 1029148">
          <path id="Trazado_776567" data-name="Trazado 776567" d="M239.162,210.009a.913.913,0,0,1-.162-.015V218l.523-.523a1.317,1.317,0,0,1,1.863,0l.523.523v-8.006a.925.925,0,0,1-.162.015Z" transform="translate(-239 -209.994)" fill="#aab1ba"/>
        </g>
      </g>
      <g id="Grupo_1029151" data-name="Grupo 1029151" transform="translate(5.625 37.244)">
        <g id="Grupo_1029150" data-name="Grupo 1029150">
          <path id="Trazado_776568" data-name="Trazado 776568" d="M77.905,282.069l.523-.523H57.086A1.455,1.455,0,0,0,55.631,283v7.526h2.91v-6.07H78.429l-.523-.523A1.318,1.318,0,0,1,77.905,282.069Z" transform="translate(-55.631 -281.546)" fill="#aab1ba"/>
        </g>
      </g>
      <g id="Grupo_1029153" data-name="Grupo 1029153" transform="translate(29.882 41.614)">
        <g id="Grupo_1029152" data-name="Grupo 1029152">
          <path id="Trazado_776569" data-name="Trazado 776569" d="M239.523,315.1l-.523-.523v11.03a1.451,1.451,0,0,0,.01.165,6.4,6.4,0,0,1,2.89,0,1.451,1.451,0,0,0,.01-.165v-11.03l-.523.523A1.317,1.317,0,0,1,239.523,315.1Z" transform="translate(-239 -314.577)" fill="#aab1ba"/>
        </g>
      </g>
      <g id="Grupo_1029155" data-name="Grupo 1029155" transform="translate(34.251 37.244)">
        <g id="Grupo_1029154" data-name="Grupo 1029154">
          <path id="Trazado_776570" data-name="Trazado 776570" d="M293.374,281.546H272.031l.523.523a1.318,1.318,0,0,1,0,1.863l-.523.523h19.888v6.07h2.91V283A1.455,1.455,0,0,0,293.374,281.546Z" transform="translate(-272.031 -281.546)" fill="#aab1ba"/>
        </g>
      </g>
      <g id="Grupo_1029157" data-name="Grupo 1029157" transform="translate(27.513 34.876)">
        <g id="Grupo_1029156" data-name="Grupo 1029156">
          <path id="Trazado_776571" data-name="Trazado 776571" d="M223.986,270.9l-2.506-2.506a1.317,1.317,0,0,1,0-1.863l2.506-2.506a1.317,1.317,0,0,1,1.863,0l2.506,2.506a1.317,1.317,0,0,1,0,1.863l-2.506,2.506A1.317,1.317,0,0,1,223.986,270.9Z" transform="translate(-221.094 -263.64)" fill="#ecf4f7"/>
        </g>
      </g>
      <g id="Grupo_1029159" data-name="Grupo 1029159" transform="translate(0.661 46.225)">
        <g id="Grupo_1029158" data-name="Grupo 1029158">
          <path id="Trazado_776572" data-name="Trazado 776572" d="M29.581,362.272h-10.1a1.367,1.367,0,0,1-1.367-1.367V350.8a1.367,1.367,0,0,1,1.367-1.367h10.1a1.367,1.367,0,0,1,1.367,1.367v10.1A1.367,1.367,0,0,1,29.581,362.272Z" transform="translate(-18.11 -349.435)" fill="#ffca00"/>
        </g>
      </g>
      <g id="Grupo_1029161" data-name="Grupo 1029161" transform="translate(49.175 46.225)">
        <g id="Grupo_1029160" data-name="Grupo 1029160">
          <path id="Trazado_776573" data-name="Trazado 776573" d="M396.318,362.272h-10.1a1.367,1.367,0,0,1-1.367-1.367V350.8a1.367,1.367,0,0,1,1.367-1.367h10.1a1.367,1.367,0,0,1,1.367,1.367v10.1A1.366,1.366,0,0,1,396.318,362.272Z" transform="translate(-384.847 -349.435)" fill="#ffca00"/>
        </g>
      </g>
      <g id="Grupo_1029163" data-name="Grupo 1029163" transform="translate(17.771 0.661)">
        <g id="Grupo_1029162" data-name="Grupo 1029162">
          <path id="Trazado_776574" data-name="Trazado 776574" d="M174.579,19.859V17.274a.916.916,0,0,0-.916-.916h-3.088a9.754,9.754,0,0,0-1.239-2.991l2.184-2.184a.916.916,0,0,0,0-1.3l-1.828-1.828a.916.916,0,0,0-1.3,0l-2.184,2.184A9.754,9.754,0,0,0,163.221,9V5.916A.916.916,0,0,0,162.305,5H159.72a.916.916,0,0,0-.916.916V9a9.754,9.754,0,0,0-2.991,1.239l-2.184-2.184a.916.916,0,0,0-1.3,0l-1.828,1.828a.916.916,0,0,0,0,1.3l2.184,2.184a9.754,9.754,0,0,0-1.239,2.991h-3.088a.916.916,0,0,0-.916.916v2.586a.916.916,0,0,0,.916.916h3.088a9.754,9.754,0,0,0,1.239,2.991l-2.184,2.184a.916.916,0,0,0,0,1.3l1.828,1.828a.916.916,0,0,0,1.3,0l2.184-2.184a9.754,9.754,0,0,0,2.991,1.239v3.088a.916.916,0,0,0,.916.916h2.586a.916.916,0,0,0,.916-.916V28.129a9.754,9.754,0,0,0,2.991-1.239l2.184,2.184a.916.916,0,0,0,1.3,0l1.828-1.828a.916.916,0,0,0,0-1.3l-2.184-2.184a9.754,9.754,0,0,0,1.239-2.991h3.088A.916.916,0,0,0,174.579,19.859Z" transform="translate(-147.446 -5)" fill="#fe502d"/>
        </g>
      </g>
      <g id="Grupo_1029165" data-name="Grupo 1029165" transform="translate(26.296 9.187)">
        <g id="Grupo_1029164" data-name="Grupo 1029164">
          <ellipse id="Elipse_8813" data-name="Elipse 8813" cx="5.041" cy="5.041" rx="5.041" ry="5.041" fill="#ecf4f7"/>
        </g>
      </g>
      <g id="Grupo_1029167" data-name="Grupo 1029167" transform="translate(24.918 52.644)">
        <g id="Grupo_1029166" data-name="Grupo 1029166">
          <ellipse id="Elipse_8814" data-name="Elipse 8814" cx="6.419" cy="6.419" rx="6.419" ry="6.419" fill="#2d54fe"/>
        </g>
      </g>
      <path id="Trazado_776575" data-name="Trazado 776575" d="M16.64,15.661A.661.661,0,0,1,17.3,15h.772v-.772a.661.661,0,1,1,1.323,0V15h.772a.661.661,0,0,1,0,1.323H19.4v.772a.661.661,0,1,1-1.323,0v-.772H17.3A.661.661,0,0,1,16.64,15.661Zm2.094,4.619a.662.662,0,0,0,.661-.661v-.437a.661.661,0,1,0-1.323,0v.437A.661.661,0,0,0,18.734,20.28ZM18.073,29.3a.661.661,0,1,0,1.323,0V21.96a.661.661,0,0,0-1.323,0Zm50.653-.772H69.5V29.3a.661.661,0,1,0,1.323,0V28.53h.772a.661.661,0,1,0,0-1.323H70.82v-.772a.661.661,0,1,0-1.323,0v.772h-.772a.661.661,0,0,0,0,1.323Zm1.433-3.521a.661.661,0,0,0,.661-.661V23.91a.661.661,0,1,0-1.323,0v.437A.661.661,0,0,0,70.158,25.009Zm0-2.778a.661.661,0,0,0,.661-.661V14.228a.661.661,0,1,0-1.323,0V21.57A.661.661,0,0,0,70.158,22.231ZM39.016,36.583H20.189A2.119,2.119,0,0,0,18.073,38.7v5.511a.661.661,0,1,0,1.323,0V38.7a.8.8,0,0,1,.794-.794H39.016a.661.661,0,1,0,0-1.323Zm0,2.91H21.644a.661.661,0,0,0-.661.661v4.056a.661.661,0,1,0,1.323,0V40.816H39.016a.661.661,0,1,0,0-1.323Zm9.336.606-2.506,2.506a1.981,1.981,0,0,1-2.8,0L40.541,40.1a1.979,1.979,0,0,1,0-2.8l2.506-2.506a1.981,1.981,0,0,1,2.8,0L48.352,37.3a1.979,1.979,0,0,1,0,2.8Zm-.743-1.4a.652.652,0,0,0-.192-.464L44.91,35.729a.657.657,0,0,0-.928,0l-2.506,2.506a.656.656,0,0,0,0,.928l2.506,2.506a.657.657,0,0,0,.928,0l2.506-2.506A.652.652,0,0,0,47.609,38.7Zm-3.956-5.43V29.645a.661.661,0,1,0-1.323,0V33.27a.661.661,0,1,0,1.323,0Zm2.91,0V29.645a.661.661,0,1,0-1.323,0V33.27a.661.661,0,0,0,1.323,0ZM42.33,44.129v6.81a.661.661,0,1,0,1.323,0v-6.81a.661.661,0,1,0-1.323,0Zm2.91,0v6.81a.661.661,0,0,0,1.323,0v-6.81a.661.661,0,0,0-1.323,0Zm22.008.743a.661.661,0,0,0,.661-.661V40.155a.661.661,0,0,0-.661-.661H49.876a.661.661,0,1,0,0,1.323H66.587v3.394A.661.661,0,0,0,67.248,44.872Zm2.91,0a.662.662,0,0,0,.661-.661V38.7A2.119,2.119,0,0,0,68.7,36.583H49.876a.661.661,0,1,0,0,1.323H68.7a.8.8,0,0,1,.794.794v5.511A.661.661,0,0,0,70.158,44.872ZM38.744,14.228a5.7,5.7,0,1,1,5.7,5.7A5.709,5.709,0,0,1,38.744,14.228Zm1.323,0a4.38,4.38,0,1,0,4.38-4.38A4.385,4.385,0,0,0,40.066,14.228Zm-9.848,1.293V12.935A1.579,1.579,0,0,1,31.8,11.358h2.575a10.39,10.39,0,0,1,.922-2.225L33.471,7.312a1.579,1.579,0,0,1,0-2.231L35.3,3.253a1.579,1.579,0,0,1,2.231,0l1.821,1.821a10.386,10.386,0,0,1,2.225-.922V1.577A1.579,1.579,0,0,1,43.153,0h2.586a1.579,1.579,0,0,1,1.577,1.577V4.152a10.385,10.385,0,0,1,2.225.922l1.821-1.821a1.579,1.579,0,0,1,2.231,0l1.828,1.828a1.579,1.579,0,0,1,0,2.231L53.6,9.133a10.387,10.387,0,0,1,.922,2.225H57.1a1.579,1.579,0,0,1,1.577,1.577v2.586A1.579,1.579,0,0,1,57.1,17.1H54.522a10.386,10.386,0,0,1-.922,2.225l1.821,1.821a1.579,1.579,0,0,1,0,2.231L53.593,25.2a1.579,1.579,0,0,1-2.231,0l-1.821-1.821a10.385,10.385,0,0,1-2.225.922v2.575a1.579,1.579,0,0,1-1.577,1.577H43.153a1.579,1.579,0,0,1-1.577-1.577V24.3a10.385,10.385,0,0,1-2.225-.922L37.53,25.2a1.579,1.579,0,0,1-2.231,0l-1.828-1.828a1.579,1.579,0,0,1,0-2.231l1.821-1.821a10.386,10.386,0,0,1-.922-2.225H31.8A1.579,1.579,0,0,1,30.218,15.521Zm1.323,0a.255.255,0,0,0,.254.254h3.088a.662.662,0,0,1,.645.513,9.082,9.082,0,0,0,1.155,2.789.662.662,0,0,1-.093.819l-2.184,2.184a.255.255,0,0,0,0,.36l1.828,1.828a.255.255,0,0,0,.36,0l2.184-2.184a.661.661,0,0,1,.819-.093,9.078,9.078,0,0,0,2.789,1.155.661.661,0,0,1,.513.645v3.088a.255.255,0,0,0,.254.254h2.586a.255.255,0,0,0,.254-.254V23.79a.662.662,0,0,1,.513-.645A9.078,9.078,0,0,0,49.3,21.991a.661.661,0,0,1,.819.093L52.3,24.267a.255.255,0,0,0,.36,0l1.828-1.828a.255.255,0,0,0,0-.36L52.3,19.9a.662.662,0,0,1-.093-.819,9.082,9.082,0,0,0,1.155-2.789.661.661,0,0,1,.645-.513H57.1a.255.255,0,0,0,.254-.254V12.935a.255.255,0,0,0-.254-.254H54.009a.662.662,0,0,1-.645-.513,9.082,9.082,0,0,0-1.155-2.789A.662.662,0,0,1,52.3,8.56l2.184-2.184a.255.255,0,0,0,0-.36L52.657,4.188a.255.255,0,0,0-.36,0L50.114,6.372a.661.661,0,0,1-.819.093A9.077,9.077,0,0,0,46.507,5.31a.661.661,0,0,1-.513-.645V1.577a.255.255,0,0,0-.254-.254H43.153a.255.255,0,0,0-.254.254V4.665a.662.662,0,0,1-.513.645A9.078,9.078,0,0,0,39.6,6.465a.662.662,0,0,1-.819-.093L36.595,4.189a.255.255,0,0,0-.36,0L34.407,6.017a.255.255,0,0,0,0,.36L36.59,8.56a.662.662,0,0,1,.093.819,9.082,9.082,0,0,0-1.155,2.789.661.661,0,0,1-.645.513H31.8a.255.255,0,0,0-.254.254ZM27.269,47.592V62.834a.661.661,0,1,1-1.323,0V59.595a2.014,2.014,0,0,1-.705.129h-10.1A2.03,2.03,0,0,1,13.109,57.7v-10.1a2.03,2.03,0,0,1,2.028-2.028h10.1A2.031,2.031,0,0,1,27.269,47.592ZM25.946,57.7v-10.1a.706.706,0,0,0-.705-.705h-10.1a.706.706,0,0,0-.705.705V57.7a.706.706,0,0,0,.705.705h10.1A.707.707,0,0,0,25.946,57.7Zm49.837-10.1V57.7a2.03,2.03,0,0,1-2.028,2.028h-10.1a2.014,2.014,0,0,1-.705-.129v3.239a.661.661,0,1,1-1.323,0V47.592a2.03,2.03,0,0,1,2.028-2.028h10.1A2.03,2.03,0,0,1,75.783,47.592Zm-1.323,0a.706.706,0,0,0-.705-.705h-10.1a.706.706,0,0,0-.705.705V57.7a.706.706,0,0,0,.705.705h10.1a.706.706,0,0,0,.705-.705ZM51.526,59.062a7.08,7.08,0,1,1-7.08-7.08A7.088,7.088,0,0,1,51.526,59.062Zm-1.323,0a5.757,5.757,0,1,0-5.757,5.757A5.764,5.764,0,0,0,50.2,59.062Zm-23.6,5.119a.661.661,0,0,0-.661.661v.638a.661.661,0,1,0,1.323,0v-.638A.661.661,0,0,0,26.608,64.182Zm35.677,0a.661.661,0,0,0-.661.661v.638a.661.661,0,1,0,1.323,0v-.638A.661.661,0,0,0,62.284,64.182Z" transform="translate(-13.109)" fill="#1c1d21"/>
    </g>
  </g>
</svg>
