<svg xmlns="http://www.w3.org/2000/svg" width="166" height="166" viewBox="0 0 166 166">
  <g id="Grupo_1029225" data-name="Grupo 1029225" transform="translate(-460 -11438)">
    <g id="Grupo_1028244" data-name="Grupo 1028244" transform="translate(0 6077)">
      <circle id="Elipse_8441" data-name="Elipse 8441" cx="83" cy="83" r="83" transform="translate(460 5361)" fill="#fff" opacity="0.45"/>
      <circle id="Elipse_8442" data-name="Elipse 8442" cx="67" cy="67" r="67" transform="translate(476 5377)" fill="#fff"/>
    </g>
    <g id="_028-focus" data-name="028-focus" transform="translate(501 11479)">
      <g id="Grupo_1029187" data-name="Grupo 1029187" transform="translate(39.02 0.839)">
        <g id="Grupo_1029186" data-name="Grupo 1029186">
          <path id="Trazado_776576" data-name="Trazado 776576" d="M235.443,20.387h0a2.936,2.936,0,0,1-2.936-2.936V7.936A2.936,2.936,0,0,1,235.443,5h0a2.936,2.936,0,0,1,2.936,2.936v9.516A2.936,2.936,0,0,1,235.443,20.387Z" transform="translate(-232.507 -5)" fill="#ffca00"/>
        </g>
      </g>
      <g id="Grupo_1029189" data-name="Grupo 1029189" transform="translate(39.02 67.684)">
        <g id="Grupo_1029188" data-name="Grupo 1029188">
          <path id="Trazado_776577" data-name="Trazado 776577" d="M235.443,418.7h0a2.936,2.936,0,0,1-2.936-2.936v-9.516a2.936,2.936,0,0,1,2.936-2.936h0a2.936,2.936,0,0,1,2.936,2.936v9.516A2.936,2.936,0,0,1,235.443,418.7Z" transform="translate(-232.507 -403.311)" fill="#ffca00"/>
        </g>
      </g>
      <g id="Grupo_1029191" data-name="Grupo 1029191" transform="translate(67.684 39.02)">
        <g id="Grupo_1029190" data-name="Grupo 1029190">
          <path id="Trazado_776578" data-name="Trazado 776578" d="M403.311,235.443h0a2.936,2.936,0,0,1,2.936-2.936h9.516a2.936,2.936,0,0,1,2.936,2.936h0a2.936,2.936,0,0,1-2.936,2.936h-9.516A2.936,2.936,0,0,1,403.311,235.443Z" transform="translate(-403.311 -232.507)" fill="#ffca00"/>
        </g>
      </g>
      <g id="Grupo_1029193" data-name="Grupo 1029193" transform="translate(0.839 39.02)">
        <g id="Grupo_1029192" data-name="Grupo 1029192">
          <path id="Trazado_776579" data-name="Trazado 776579" d="M5,235.443H5a2.936,2.936,0,0,1,2.936-2.936h9.516a2.936,2.936,0,0,1,2.936,2.936h0a2.936,2.936,0,0,1-2.936,2.936H7.936A2.936,2.936,0,0,1,5,235.443Z" transform="translate(-5 -232.507)" fill="#ffca00"/>
        </g>
      </g>
      <g id="Grupo_1029195" data-name="Grupo 1029195" transform="translate(8.663 8.663)">
        <g id="Grupo_1029194" data-name="Grupo 1029194">
          <path id="Trazado_776580" data-name="Trazado 776580" d="M110.64,84.911a2.936,2.936,0,0,1,2.936-2.936H118.2A33.428,33.428,0,0,0,87.846,51.618v4.628a2.936,2.936,0,1,1-5.871,0V51.618A33.428,33.428,0,0,0,51.618,81.975h4.628a2.936,2.936,0,0,1,0,5.871H51.618A33.428,33.428,0,0,0,81.975,118.2v-4.628a2.936,2.936,0,1,1,5.871,0V118.2A33.428,33.428,0,0,0,118.2,87.846h-4.628A2.936,2.936,0,0,1,110.64,84.911Z" transform="translate(-51.618 -51.618)" fill="#fe502d"/>
        </g>
      </g>
      <g id="Grupo_1029197" data-name="Grupo 1029197" transform="translate(26.181 47.423)">
        <g id="Grupo_1029196" data-name="Grupo 1029196">
          <path id="Trazado_776581" data-name="Trazado 776581" d="M187.552,296.866v-9.143a5.141,5.141,0,0,0-5.141-5.141H161.144A5.141,5.141,0,0,0,156,287.723v9.143Z" transform="translate(-156.003 -282.582)" fill="#aab1ba"/>
        </g>
      </g>
      <g id="Grupo_1029199" data-name="Grupo 1029199" transform="translate(29.345 22.203)">
        <g id="Grupo_1029198" data-name="Grupo 1029198">
          <ellipse id="Elipse_8815" data-name="Elipse 8815" cx="12.61" cy="12.61" rx="12.61" ry="12.61" fill="#ffca00"/>
        </g>
      </g>
      <g id="Grupo_1029201" data-name="Grupo 1029201" transform="translate(39.136 47.423)">
        <g id="Grupo_1029200" data-name="Grupo 1029200">
          <path id="Trazado_776582" data-name="Trazado 776582" d="M238.839,296.866l-.679-14.284h-4.28l-.679,14.284Z" transform="translate(-233.2 -282.582)" fill="#ecf4f7"/>
        </g>
      </g>
      <path id="Trazado_776583" data-name="Trazado 776583" d="M29.823,2.657a.839.839,0,0,1,.839-.839h.979V.839a.839.839,0,1,1,1.678,0v.979H34.3a.839.839,0,0,1,0,1.678h-.979v.979a.839.839,0,1,1-1.678,0V3.5h-.979A.839.839,0,0,1,29.823,2.657ZM53.249,80.414H52.27v-.979a.839.839,0,0,0-1.678,0v.979h-.979a.839.839,0,0,0,0,1.678h.979v.979a.839.839,0,0,0,1.678,0v-.979h.979a.839.839,0,0,0,0-1.678ZM49.613,3.5h.979v.979a.839.839,0,1,0,1.678,0V3.5h.979a.839.839,0,0,0,0-1.678H52.27V.839a.839.839,0,1,0-1.678,0v.979h-.979a.839.839,0,0,0,0,1.678ZM34.3,80.414h-.979v-.979a.839.839,0,0,0-1.678,0v.979h-.979a.839.839,0,0,0,0,1.678h.979v.979a.839.839,0,0,0,1.678,0v-.979H34.3a.839.839,0,0,0,0-1.678Zm45.138-47.1h.979V34.3a.839.839,0,1,0,1.678,0v-.979h.979a.839.839,0,0,0,0-1.678h-.979v-.979a.839.839,0,0,0-1.678,0v.979h-.979a.839.839,0,1,0,0,1.678ZM4.475,50.592H3.5v-.979a.839.839,0,1,0-1.678,0v.979H.839a.839.839,0,0,0,0,1.678h.979v.979a.839.839,0,1,0,1.678,0V52.27h.979a.839.839,0,0,0,0-1.678Zm78.6,0h-.979v-.979a.839.839,0,1,0-1.678,0v.979h-.979a.839.839,0,1,0,0,1.678h.979v.979a.839.839,0,1,0,1.678,0V52.27h.979a.839.839,0,0,0,0-1.678ZM.839,33.319h.979V34.3a.839.839,0,1,0,1.678,0v-.979h.979a.839.839,0,0,0,0-1.678H3.5v-.979a.839.839,0,0,0-1.678,0v.979H.839a.839.839,0,0,0,0,1.678Zm83.072,8.636a3.779,3.779,0,0,1-3.775,3.775H76.008a34,34,0,0,1-2.837,10.354.839.839,0,1,1-1.529-.693A32.329,32.329,0,0,0,74.32,45.73h-3.7a3.775,3.775,0,0,1,0-7.55h3.7A32.481,32.481,0,0,0,45.73,9.591v3.7a3.775,3.775,0,1,1-7.55,0v-3.7a32.481,32.481,0,0,0-28.59,28.59h3.7a3.775,3.775,0,0,1,0,7.55h-3.7a32.327,32.327,0,0,0,2.677,9.661.839.839,0,1,1-1.528.693A34.006,34.006,0,0,1,7.9,45.73H3.775a3.775,3.775,0,0,1,0-7.55H7.9A34.27,34.27,0,0,1,38.181,7.9V3.775a3.775,3.775,0,0,1,7.55,0V7.9A34.27,34.27,0,0,1,76.008,38.181h4.128A3.779,3.779,0,0,1,83.911,41.955Zm-75.248-2.1H3.775a2.1,2.1,0,0,0,0,4.193h9.516a2.1,2.1,0,1,0,0-4.193H8.663Zm35.389-31.2V3.775a2.1,2.1,0,0,0-4.193,0v9.516a2.1,2.1,0,0,0,4.193,0ZM82.232,41.955a2.1,2.1,0,0,0-2.1-2.1H70.62a2.1,2.1,0,1,0,0,4.193h9.516A2.1,2.1,0,0,0,82.232,41.955ZM32,54.565V59.1a.839.839,0,0,0,1.678,0V54.565a.839.839,0,1,0-1.678,0Zm18.223,0V59.1a.839.839,0,1,0,1.678,0V54.565a.839.839,0,0,0-1.678,0ZM31.322,46.584h4.136a13.449,13.449,0,1,1,12.994,0h4.136a5.987,5.987,0,0,1,5.98,5.98V59.1a.839.839,0,0,1-1.678,0V52.564a4.307,4.307,0,0,0-4.3-4.3H44.976l.508,10.688a.839.839,0,0,1-.8.878h-.04a.839.839,0,0,1-.837-.8L43.3,48.262h-2.68L40.1,59.03a.839.839,0,0,1-1.676-.08l.508-10.688H31.322a4.307,4.307,0,0,0-4.3,4.3V59.1a.839.839,0,1,1-1.678,0V52.564A5.987,5.987,0,0,1,31.322,46.584Zm10.627,0h.013a11.771,11.771,0,1,0-.013,0ZM72.7,61.707a.839.839,0,0,1-.839.839H69.335a34.251,34.251,0,0,1-23.6,13.46v4.129a3.775,3.775,0,0,1-7.55,0V76.007a34.251,34.251,0,0,1-23.6-13.46H12.053a.839.839,0,0,1,0-1.678h59.8A.839.839,0,0,1,72.7,61.707ZM44.052,75.248V70.62a2.1,2.1,0,0,0-4.193,0v9.516a2.1,2.1,0,0,0,4.193,0Zm23.154-12.7H16.7A32.568,32.568,0,0,0,38.181,74.32v-3.7a3.775,3.775,0,1,1,7.55,0v3.7A32.569,32.569,0,0,0,67.206,62.546ZM8.053,60.868H6.984a.839.839,0,0,0,0,1.678H8.053a.839.839,0,0,0,0-1.678Zm68.874,0H75.858a.839.839,0,1,0,0,1.678h1.069a.839.839,0,0,0,0-1.678Z" fill="#1c1d21"/>
    </g>
  </g>
</svg>
