<svg xmlns="http://www.w3.org/2000/svg" width="166" height="166" viewBox="0 0 166 166">
  <g id="Grupo_1029224" data-name="Grupo 1029224" transform="translate(-975 -11438)">
    <g id="Grupo_1029061" data-name="Grupo 1029061" transform="translate(515 6077)">
      <circle id="Elipse_8441" data-name="Elipse 8441" cx="83" cy="83" r="83" transform="translate(460 5361)" fill="#fff" opacity="0.45"/>
      <circle id="Elipse_8442" data-name="Elipse 8442" cx="67" cy="67" r="67" transform="translate(476 5377)" fill="#fff"/>
    </g>
    <g id="_039-manager" data-name="039-manager" transform="translate(1020 11479)">
      <g id="Grupo_1029203" data-name="Grupo 1029203" transform="translate(0.839 5.433)">
        <g id="Grupo_1029202" data-name="Grupo 1029202">
          <path id="Trazado_776584" data-name="Trazado 776584" d="M98.625,32.376H28.466A2.522,2.522,0,0,0,25.944,34.9v.908a2.522,2.522,0,0,0,2.522,2.522H58.536a8.672,8.672,0,0,1,10.021,0H98.625a2.522,2.522,0,0,0,2.522-2.522V34.9A2.521,2.521,0,0,0,98.625,32.376Z" transform="translate(-25.944 -32.376)" fill="#aab1ba"/>
        </g>
      </g>
      <g id="Grupo_1029205" data-name="Grupo 1029205" transform="translate(54.836 53.923)">
        <g id="Grupo_1029204" data-name="Grupo 1029204">
          <path id="Trazado_776585" data-name="Trazado 776585" d="M360.775,327.575v-4.128a2.131,2.131,0,0,0-2.131-2.131h-8.817a2.131,2.131,0,0,0-2.131,2.131v4.128Z" transform="translate(-347.696 -321.315)" fill="#fe502d"/>
        </g>
      </g>
      <g id="Grupo_1029207" data-name="Grupo 1029207" transform="translate(31.901 53.923)">
        <g id="Grupo_1029206" data-name="Grupo 1029206">
          <path id="Trazado_776586" data-name="Trazado 776586" d="M224.111,327.575v-4.128a2.131,2.131,0,0,0-2.131-2.131h-8.817a2.131,2.131,0,0,0-2.131,2.131v4.128Z" transform="translate(-211.032 -321.315)" fill="#fe502d"/>
        </g>
      </g>
      <g id="Grupo_1029209" data-name="Grupo 1029209" transform="translate(8.966 53.923)">
        <g id="Grupo_1029208" data-name="Grupo 1029208">
          <path id="Trazado_776587" data-name="Trazado 776587" d="M87.447,327.575v-4.128a2.131,2.131,0,0,0-2.131-2.131H76.5a2.131,2.131,0,0,0-2.131,2.131v4.128Z" transform="translate(-74.368 -321.315)" fill="#fe502d"/>
        </g>
      </g>
      <g id="Grupo_1029211" data-name="Grupo 1029211" transform="translate(27.581 27.154)">
        <g id="Grupo_1029210" data-name="Grupo 1029210">
          <path id="Trazado_776588" data-name="Trazado 776588" d="M207.014,171.639v-6.295a3.54,3.54,0,0,0-3.54-3.54H188.833a3.54,3.54,0,0,0-3.54,3.54v6.295Z" transform="translate(-185.293 -161.805)" fill="#ecf4f7"/>
        </g>
      </g>
      <g id="Grupo_1029213" data-name="Grupo 1029213" transform="translate(0.839 60.183)">
        <g id="Grupo_1029212" data-name="Grupo 1029212">
          <path id="Trazado_776589" data-name="Trazado 776589" d="M98.625,358.615H28.466a2.522,2.522,0,0,0-2.522,2.522v.908a2.522,2.522,0,0,0,2.522,2.522H55.975l-6.538,12.857a2.807,2.807,0,0,0,5,2.545l7.832-15.4H64.7l7.832,15.4a2.807,2.807,0,0,0,5-2.545L71,364.566h27.63a2.522,2.522,0,0,0,2.522-2.522v-.908A2.521,2.521,0,0,0,98.625,358.615Z" transform="translate(-25.944 -358.615)" fill="#aab1ba"/>
        </g>
      </g>
      <g id="Grupo_1029215" data-name="Grupo 1029215" transform="translate(29.76 9.791)">
        <g id="Grupo_1029214" data-name="Grupo 1029214">
          <ellipse id="Elipse_8816" data-name="Elipse 8816" cx="8.682" cy="8.682" rx="8.682" ry="8.682" fill="#ffca00"/>
        </g>
      </g>
      <g id="Grupo_1029217" data-name="Grupo 1029217" transform="translate(36.501 27.154)">
        <g id="Grupo_1029216" data-name="Grupo 1029216">
          <path id="Trazado_776590" data-name="Trazado 776590" d="M242.324,171.639l-.468-9.834H238.91l-.468,9.834Z" transform="translate(-238.442 -161.805)" fill="#fe502d"/>
        </g>
      </g>
      <g id="Grupo_1029219" data-name="Grupo 1029219" transform="translate(56.148 43.468)">
        <g id="Grupo_1029218" data-name="Grupo 1029218">
          <ellipse id="Elipse_8817" data-name="Elipse 8817" cx="5.228" cy="5.228" rx="5.228" ry="5.228" fill="#ffca00"/>
        </g>
      </g>
      <g id="Grupo_1029221" data-name="Grupo 1029221" transform="translate(33.212 43.468)">
        <g id="Grupo_1029220" data-name="Grupo 1029220">
          <ellipse id="Elipse_8818" data-name="Elipse 8818" cx="5.228" cy="5.228" rx="5.228" ry="5.228" fill="#ffca00"/>
        </g>
      </g>
      <g id="Grupo_1029223" data-name="Grupo 1029223" transform="translate(10.277 43.468)">
        <g id="Grupo_1029222" data-name="Grupo 1029222">
          <ellipse id="Elipse_8819" data-name="Elipse 8819" cx="5.228" cy="5.228" rx="5.228" ry="5.228" fill="#ffca00"/>
        </g>
      </g>
      <path id="Trazado_776591" data-name="Trazado 776591" d="M94.465,59.344H24.306A3.364,3.364,0,0,0,20.945,62.7v.908a3.364,3.364,0,0,0,3.361,3.361H94.465a3.364,3.364,0,0,0,3.361-3.361V62.7A3.364,3.364,0,0,0,94.465,59.344Zm1.683,4.269A1.684,1.684,0,0,1,94.465,65.3H24.306a1.684,1.684,0,0,1-1.682-1.682V62.7a1.684,1.684,0,0,1,1.682-1.682H94.465A1.684,1.684,0,0,1,96.147,62.7v.908ZM94.465,4.594H62.786a3.556,3.556,0,1,0-6.8,0H24.306a3.364,3.364,0,0,0-3.361,3.361v.908a3.363,3.363,0,0,0,3.318,3.358V33.083a.839.839,0,1,0,1.678,0V12.224h23.62a.839.839,0,0,0,0-1.678H24.306a1.684,1.684,0,0,1-1.682-1.682V7.955a1.684,1.684,0,0,1,1.682-1.682H94.465a1.684,1.684,0,0,1,1.682,1.682v.908a1.684,1.684,0,0,1-1.682,1.682H68.991a.839.839,0,0,0,0,1.678H92.83v20.86a.839.839,0,1,0,1.678,0V12.222a3.363,3.363,0,0,0,3.318-3.358V7.955A3.365,3.365,0,0,0,94.465,4.594Zm-36.641,0a1.878,1.878,0,1,1,3.125,0ZM93.669,36.829a.839.839,0,0,1-.839-.839v-.516a.839.839,0,1,1,1.678,0v.516A.839.839,0,0,1,93.669,36.829ZM24.263,35.99v-.516a.839.839,0,1,1,1.678,0v.516a.839.839,0,1,1-1.678,0ZM25.4,83.072a.839.839,0,0,1-.839.839h-.708a.839.839,0,0,1,0-1.678h.708A.839.839,0,0,1,25.4,83.072Zm66.487,0a.839.839,0,0,1-.839.839H27.721a.839.839,0,0,1,0-1.678H44.712a3.647,3.647,0,0,1-.183-3.621l5.227-10.278a.839.839,0,0,1,1.5.761L46.025,79.372a1.969,1.969,0,0,0,1.792,2.86h0a1.976,1.976,0,0,0,.571-.1,1.954,1.954,0,0,0,1.144-.979l6.521-12.823a.839.839,0,0,1,1.5.761L51.029,81.917q-.083.163-.181.316H67.8q-.1-.152-.181-.316L61.1,69.094a.839.839,0,0,1,1.5-.761l6.521,12.823a1.968,1.968,0,0,0,3.508-1.784L67.4,69.094a.839.839,0,0,1,1.5-.761l5.227,10.278a3.622,3.622,0,0,1,.217,2.782,3.665,3.665,0,0,1-.4.839H91.05A.839.839,0,0,1,91.889,83.072Zm3.866,0a.839.839,0,0,1-.839.839h-.708a.839.839,0,1,1,0-1.678h.708A.839.839,0,0,1,95.755,83.072ZM53.113,31.232a.839.839,0,0,1,.839.839v2.151a.839.839,0,1,1-1.678,0V32.071A.839.839,0,0,1,53.113,31.232Zm12.547,0a.839.839,0,0,1,.839.839v2.151a.839.839,0,1,1-1.678,0V32.071A.839.839,0,0,1,65.66,31.232Zm-17.973-.538v3.529a.839.839,0,1,0,1.678,0V30.694a2.7,2.7,0,0,1,2.7-2.7h4.968l-.311,6.53a.839.839,0,1,0,1.676.08l.314-6.61H60.06l.314,6.61a.839.839,0,0,0,.837.8h.04a.839.839,0,0,0,.8-.878l-.311-6.53h4.968a2.7,2.7,0,0,1,2.7,2.7v3.529a.839.839,0,1,0,1.678,0V30.694a4.384,4.384,0,0,0-4.379-4.379H64.776a9.521,9.521,0,1,0-10.779,0H52.066A4.384,4.384,0,0,0,47.687,30.694Zm3.857-12.221a7.843,7.843,0,1,1,7.844,7.843h0A7.852,7.852,0,0,1,51.544,18.473ZM88.387,48.7a6.067,6.067,0,1,0-10.249,4.389h-.226a2.974,2.974,0,0,0-2.97,2.97v1.439a.839.839,0,0,0,1.678,0V56.055a1.294,1.294,0,0,1,1.292-1.292h8.816a1.294,1.294,0,0,1,1.292,1.292v1.439a.839.839,0,0,0,1.678,0V56.055a2.974,2.974,0,0,0-2.971-2.97H86.5A6.049,6.049,0,0,0,88.387,48.7Zm-10.455,0a4.389,4.389,0,1,1,4.389,4.389A4.394,4.394,0,0,1,77.932,48.7ZM65.925,58.333a.839.839,0,0,0,.839-.839V56.055a2.974,2.974,0,0,0-2.97-2.97h-.226a6.067,6.067,0,1,0-8.365,0h-.226a2.974,2.974,0,0,0-2.97,2.97v1.439a.839.839,0,1,0,1.678,0V56.055a1.294,1.294,0,0,1,1.292-1.292h8.816a1.294,1.294,0,0,1,1.292,1.292v1.439A.839.839,0,0,0,65.925,58.333ZM55,48.7a4.389,4.389,0,1,1,4.389,4.389A4.394,4.394,0,0,1,55,48.7ZM29.071,56.055v1.439a.839.839,0,1,0,1.678,0V56.055a1.294,1.294,0,0,1,1.292-1.292h8.816a1.294,1.294,0,0,1,1.292,1.292v1.439a.839.839,0,1,0,1.678,0V56.055a2.974,2.974,0,0,0-2.97-2.97h-.226a6.067,6.067,0,1,0-8.365,0h-.226A2.974,2.974,0,0,0,29.071,56.055Zm2.99-7.359a4.389,4.389,0,1,1,4.389,4.389A4.394,4.394,0,0,1,32.062,48.7ZM86.3,36.15a.839.839,0,0,1,0,1.678H83.16v2.83a.839.839,0,1,1-1.678,0v-2.83H60.224v2.83a.839.839,0,1,1-1.678,0v-2.83H37.289v2.83a.839.839,0,1,1-1.678,0v-2.83H32.474a.839.839,0,0,1,0-1.678Z" transform="translate(-20.945)" fill="#1c1d21"/>
    </g>
  </g>
</svg>
