<svg xmlns="http://www.w3.org/2000/svg" xmlns:xlink="http://www.w3.org/1999/xlink" width="766.013" height="239.228" viewBox="0 0 766.013 239.228">
  <defs>
    <clipPath id="clip-path">
      <rect id="Rectángulo_358969" data-name="Rectángulo 358969" width="766.013" height="239.228" fill="none"/>
    </clipPath>
    <filter id="Trazado_762389" x="22.302" y="22.304" width="200.624" height="200.624" filterUnits="userSpaceOnUse">
      <feOffset dx="3" dy="3" input="SourceAlpha"/>
      <feGaussianBlur stdDeviation="3" result="blur"/>
      <feFlood flood-opacity="0.161"/>
      <feComposite operator="in" in2="blur"/>
      <feComposite in="SourceGraphic"/>
    </filter>
    <clipPath id="clip-path-2">
      <path id="Trazado_762412" data-name="Trazado 762412" d="M67.171,67.173a74.167,74.167,0,1,0,52.443-21.722A74.166,74.166,0,0,0,67.171,67.173" fill="none"/>
    </clipPath>
    <linearGradient id="linear-gradient" x1="-0.031" y1="1.015" x2="-0.027" y2="1.015" gradientUnits="objectBoundingBox">
      <stop offset="0" stop-color="#fdfdfd"/>
      <stop offset="0.397" stop-color="#f5f5f5"/>
      <stop offset="1" stop-color="#e0e0e0"/>
    </linearGradient>
    <filter id="Trazado_762415" x="285.815" y="22.302" width="200.624" height="200.624" filterUnits="userSpaceOnUse">
      <feOffset dx="3" dy="3" input="SourceAlpha"/>
      <feGaussianBlur stdDeviation="3" result="blur-2"/>
      <feFlood flood-opacity="0.161"/>
      <feComposite operator="in" in2="blur-2"/>
      <feComposite in="SourceGraphic"/>
    </filter>
    <clipPath id="clip-path-4">
      <path id="Trazado_762439" data-name="Trazado 762439" d="M330.684,67.171a74.167,74.167,0,1,0,52.443-21.722,74.165,74.165,0,0,0-52.443,21.722" fill="none"/>
    </clipPath>
    <linearGradient id="linear-gradient-2" x1="-1.202" y1="1.015" x2="-1.197" y2="1.015" xlink:href="#linear-gradient"/>
    <filter id="Trazado_762442" x="549.087" y="22.302" width="200.624" height="200.624" filterUnits="userSpaceOnUse">
      <feOffset dx="3" dy="3" input="SourceAlpha"/>
      <feGaussianBlur stdDeviation="3" result="blur-3"/>
      <feFlood flood-opacity="0.161"/>
      <feComposite operator="in" in2="blur-3"/>
      <feComposite in="SourceGraphic"/>
    </filter>
    <clipPath id="clip-path-5">
      <path id="Trazado_762461" data-name="Trazado 762461" d="M593.957,67.171A74.166,74.166,0,1,0,646.4,45.449a74.163,74.163,0,0,0-52.442,21.722" fill="none"/>
    </clipPath>
    <linearGradient id="linear-gradient-3" x1="-2.371" y1="1.015" x2="-2.367" y2="1.015" xlink:href="#linear-gradient"/>
  </defs>
  <g id="Grupo_1029247" data-name="Grupo 1029247" transform="translate(-417 -11935)">
    <g id="Grupo_1024270" data-name="Grupo 1024270" transform="translate(417 11935)">
      <g id="Grupo_1024269" data-name="Grupo 1024269" clip-path="url(#clip-path)">
        <path id="Trazado_762388" data-name="Trazado 762388" d="M35.265,35.268a118.822,118.822,0,0,1,35.4-24.459v-.357a119.671,119.671,0,0,0,0,218.329v-.359a119.253,119.253,0,0,1-35.4-193.154M229.819,73.05a119.962,119.962,0,0,0-61.264-62.6V10.8a119.346,119.346,0,0,1,0,217.626v.357A119.721,119.721,0,0,0,229.819,73.05" fill="#fe502d"/>
        <g transform="matrix(1, 0, 0, 1, 0, 0)" filter="url(#Trazado_762389)">
          <path id="Trazado_762389-2" data-name="Trazado 762389" d="M210.926,119.616A91.312,91.312,0,1,1,119.614,28.3a91.312,91.312,0,0,1,91.312,91.312" fill="#fe502d"/>
        </g>
        <path id="Trazado_762390" data-name="Trazado 762390" d="M18.939,162.154a108.692,108.692,0,0,0,17.849,28.74l-1.62,1.62A111.691,111.691,0,0,1,16.834,76.189a112.32,112.32,0,0,1,6.155-12.363,1.142,1.142,0,0,1,1.979,1.141,109.879,109.879,0,0,0-6.029,12.112,109.594,109.594,0,0,0,0,85.075" fill="#fe502d"/>
        <path id="Trazado_762391" data-name="Trazado 762391" d="M120.765,230.034a1.143,1.143,0,0,1-1.142,1.142,111.219,111.219,0,0,1-72.918-27.125l1.62-1.618a108.933,108.933,0,0,0,71.3,26.459,1.142,1.142,0,0,1,1.142,1.142" fill="#fe502d"/>
        <path id="Trazado_762392" data-name="Trazado 762392" d="M31.465,70.042a1.122,1.122,0,0,0,.572.155,1.142,1.142,0,0,0,.989-.569l.041-.071a1.143,1.143,0,1,0-1.977-1.146l-.04.071a1.14,1.14,0,0,0,.415,1.56" fill="#fe502d"/>
        <path id="Trazado_762393" data-name="Trazado 762393" d="M145.409,23.013l.155.042a1.179,1.179,0,0,0,.3.039,1.142,1.142,0,0,0,.3-2.245l-.16-.043a1.142,1.142,0,0,0-.589,2.207" fill="#fe502d"/>
        <path id="Trazado_762394" data-name="Trazado 762394" d="M157.792,27.209l.149.062a1.142,1.142,0,1,0,.877-2.109l-.153-.064a1.142,1.142,0,0,0-.873,2.111" fill="#fe502d"/>
        <path id="Trazado_762395" data-name="Trazado 762395" d="M198.971,58.815a1.142,1.142,0,1,0,1.81-1.393l-.1-.129a1.142,1.142,0,0,0-1.811,1.392Z" fill="#fe502d"/>
        <path id="Trazado_762396" data-name="Trazado 762396" d="M132.58,20.486l.161.021a1.257,1.257,0,0,0,.149.01,1.142,1.142,0,0,0,.147-2.275l-.163-.021a1.142,1.142,0,1,0-.294,2.265" fill="#fe502d"/>
        <path id="Trazado_762397" data-name="Trazado 762397" d="M180.4,40.246l.129.1a1.142,1.142,0,0,0,1.392-1.811l-.13-.1a1.142,1.142,0,1,0-1.391,1.812" fill="#fe502d"/>
        <path id="Trazado_762398" data-name="Trazado 762398" d="M119.527,19.657h.164a1.142,1.142,0,0,0,0-2.284h-.164a1.142,1.142,0,0,0,0,2.284" fill="#fe502d"/>
        <path id="Trazado_762399" data-name="Trazado 762399" d="M169.525,32.983l.141.081a1.142,1.142,0,1,0,1.142-1.978L170.666,31a1.142,1.142,0,0,0-1.141,1.979" fill="#fe502d"/>
        <path id="Trazado_762400" data-name="Trazado 762400" d="M190.346,48.983a1.142,1.142,0,0,0,1.614-1.615l-.114-.116a1.143,1.143,0,0,0-1.617,1.616Z" fill="#fe502d"/>
        <path id="Trazado_762401" data-name="Trazado 762401" d="M80.839,27.363a1.131,1.131,0,0,0,.438-.088l.149-.061a1.142,1.142,0,0,0-.872-2.112l-.154.064a1.142,1.142,0,0,0,.439,2.2" fill="#fe502d"/>
        <path id="Trazado_762402" data-name="Trazado 762402" d="M58,40.589a1.139,1.139,0,0,0,.7-.238l.127-.1a1.142,1.142,0,1,0-1.391-1.812l-.131.1a1.142,1.142,0,0,0,.7,2.047" fill="#fe502d"/>
        <path id="Trazado_762403" data-name="Trazado 762403" d="M48.067,49.326a1.14,1.14,0,0,0,.808-.335l.117-.117a1.142,1.142,0,0,0-1.619-1.612l-.114.114a1.142,1.142,0,0,0,.808,1.95" fill="#fe502d"/>
        <path id="Trazado_762404" data-name="Trazado 762404" d="M38.649,59.034a1.142,1.142,0,0,0,1.6-.211l.1-.127a1.143,1.143,0,0,0-1.81-1.4l-.1.132a1.142,1.142,0,0,0,.211,1.6" fill="#fe502d"/>
        <path id="Trazado_762405" data-name="Trazado 762405" d="M106.327,20.518a1.08,1.08,0,0,0,.15-.01l.159-.021a1.142,1.142,0,1,0-.291-2.265l-.165.021a1.142,1.142,0,0,0,.147,2.275" fill="#fe502d"/>
        <path id="Trazado_762406" data-name="Trazado 762406" d="M93.356,23.1a1.177,1.177,0,0,0,.3-.039l.156-.042a1.142,1.142,0,0,0-.589-2.207l-.159.042a1.143,1.143,0,0,0,.3,2.246" fill="#fe502d"/>
        <path id="Trazado_762407" data-name="Trazado 762407" d="M68.982,33.224a1.14,1.14,0,0,0,.571-.154l.141-.081a1.142,1.142,0,0,0-1.143-1.978l-.142.082a1.142,1.142,0,0,0,.573,2.131" fill="#fe502d"/>
        <path id="Trazado_762408" data-name="Trazado 762408" d="M220.715,117.24a2.376,2.376,0,1,0,2.376,2.377,2.379,2.379,0,0,0-2.376-2.377" fill="#fe502d"/>
        <path id="Trazado_762409" data-name="Trazado 762409" d="M275.571,118.475H228.227a7.616,7.616,0,0,0-6.642-6.4,101.458,101.458,0,0,0-7.767-32.256,102.615,102.615,0,0,0-5.64-11.332h0l-.041-.07a1.142,1.142,0,0,0-1.977,1.143l.041.069v0a100.32,100.32,0,0,1,5.513,11.079,99.134,99.134,0,0,1,7.586,31.449,7.6,7.6,0,0,0,0,14.925,99.884,99.884,0,0,1-99.687,92.5,1.142,1.142,0,1,0,0,2.284,102.17,102.17,0,0,0,101.972-94.7,7.616,7.616,0,0,0,6.642-6.4h47.344a1.142,1.142,0,1,0,0-2.284m-54.856,6.454a5.313,5.313,0,1,1,5.312-5.312,5.319,5.319,0,0,1-5.312,5.312" fill="#fe502d"/>
        <path id="Trazado_762410" data-name="Trazado 762410" d="M46.623,197.508a4.895,4.895,0,1,1-4.9-4.895,4.895,4.895,0,0,1,4.9,4.895" fill="#fe502d"/>
        <path id="Trazado_762411" data-name="Trazado 762411" d="M43.777,197.508a2.048,2.048,0,1,1-2.048-2.048,2.048,2.048,0,0,1,2.048,2.048" fill="#fff"/>
      </g>
    </g>
    <g id="Grupo_1024272" data-name="Grupo 1024272" transform="translate(417 11935)">
      <g id="Grupo_1024271" data-name="Grupo 1024271" clip-path="url(#clip-path-2)">
        <rect id="Rectángulo_358970" data-name="Rectángulo 358970" width="225.131" height="225.131" transform="translate(-39.577 123.237) rotate(-45)" fill="url(#linear-gradient)"/>
      </g>
    </g>
    <g id="Grupo_1024274" data-name="Grupo 1024274" transform="translate(417 11935)">
      <g id="Grupo_1024273" data-name="Grupo 1024273" clip-path="url(#clip-path)">
        <path id="Trazado_762413" data-name="Trazado 762413" d="M68.994,69a71.587,71.587,0,1,1,0,101.239A71.587,71.587,0,0,1,68.994,69" fill="#f3f4f5"/>
        <path id="Trazado_762414" data-name="Trazado 762414" d="M429.692,229.82a119.738,119.738,0,0,0,65.124-153.1l-.254.251a119.352,119.352,0,0,1-154.637,153.86l-.251.251a119.98,119.98,0,0,0,90.018-1.264M263.839,119.614A119.357,119.357,0,0,1,425.149,7.943l.252-.253A119.684,119.684,0,0,0,270.99,161.325l.255-.253a118.633,118.633,0,0,1-7.406-41.458" fill="#ffca00"/>
        <g transform="matrix(1, 0, 0, 1, 0, 0)" filter="url(#Trazado_762415)">
          <path id="Trazado_762415-2" data-name="Trazado 762415" d="M474.439,119.614A91.312,91.312,0,1,1,383.127,28.3a91.312,91.312,0,0,1,91.312,91.312" fill="#ffca00"/>
        </g>
        <path id="Trazado_762416" data-name="Trazado 762416" d="M338.51,14.012a113.576,113.576,0,0,1,36.459-8.729V7.572A112.007,112.007,0,0,0,303.7,40.184a112.535,112.535,0,0,0-17.711,22.974,1.142,1.142,0,1,1-1.974-1.149,115.1,115.1,0,0,1,54.5-48" fill="#ffca00"/>
        <path id="Trazado_762417" data-name="Trazado 762417" d="M481.992,63.856a1.142,1.142,0,0,1-1.56-.418,112.837,112.837,0,0,0-53.577-47.323,111.315,111.315,0,0,0-35.57-8.543V5.283a114.306,114.306,0,0,1,72.889,33.285A114.811,114.811,0,0,1,482.41,62.3a1.142,1.142,0,0,1-.418,1.56" fill="#ffca00"/>
        <path id="Trazado_762418" data-name="Trazado 762418" d="M471.693,68.482a1.142,1.142,0,1,0-1.977,1.143l.039.069a1.142,1.142,0,1,0,1.98-1.14Z" fill="#ffca00"/>
        <path id="Trazado_762419" data-name="Trazado 762419" d="M479.574,89.173a1.142,1.142,0,0,0-.762,1.424l.041.134a1.142,1.142,0,1,0,2.188-.656l-.043-.14a1.143,1.143,0,0,0-1.424-.762" fill="#ffca00"/>
        <path id="Trazado_762420" data-name="Trazado 762420" d="M477,79.048l-.059-.136a1.142,1.142,0,0,0-2.093.914l.055.128a1.142,1.142,0,0,0,2.1-.906" fill="#ffca00"/>
        <path id="Trazado_762421" data-name="Trazado 762421" d="M481.5,101.756l.025.141a1.143,1.143,0,0,0,1.123.94,1.079,1.079,0,0,0,.2-.018,1.142,1.142,0,0,0,.923-1.325l-.026-.142a1.142,1.142,0,1,0-2.248.4" fill="#ffca00"/>
        <path id="Trazado_762422" data-name="Trazado 762422" d="M383.208,219.572h-.081a99.883,99.883,0,0,1-99.685-92.493,7.6,7.6,0,0,0,0-14.926,99.121,99.121,0,0,1,7.587-31.45,100.259,100.259,0,0,1,5.656-11.328,1.142,1.142,0,1,0-1.974-1.148,103.148,103.148,0,0,0-5.787,11.585,101.467,101.467,0,0,0-7.766,32.258,7.6,7.6,0,0,0,0,15.092,102.162,102.162,0,0,0,101.97,94.694h.081a1.142,1.142,0,1,0,0-2.284M276.713,119.616a5.313,5.313,0,1,1,5.312,5.312,5.318,5.318,0,0,1-5.312-5.312" fill="#ffca00"/>
        <path id="Trazado_762423" data-name="Trazado 762423" d="M431.33,207.209l-.136.075a1.142,1.142,0,1,0,1.1,2l.139-.076a1.142,1.142,0,0,0-1.1-2" fill="#ffca00"/>
        <path id="Trazado_762424" data-name="Trazado 762424" d="M395.731,218.79l-.152.019a1.142,1.142,0,0,0,.138,2.276,1.109,1.109,0,0,0,.14-.009l.16-.02a1.142,1.142,0,0,0-.286-2.266" fill="#ffca00"/>
        <path id="Trazado_762425" data-name="Trazado 762425" d="M419.98,212.558l-.141.056a1.142,1.142,0,0,0,.836,2.126l.15-.06a1.142,1.142,0,1,0-.845-2.122" fill="#ffca00"/>
        <path id="Trazado_762426" data-name="Trazado 762426" d="M441.917,200.476l-.128.094a1.142,1.142,0,1,0,1.344,1.846l.126-.091a1.142,1.142,0,0,0-1.342-1.849" fill="#ffca00"/>
        <path id="Trazado_762427" data-name="Trazado 762427" d="M408.053,216.444l-.148.038a1.142,1.142,0,1,0,.564,2.213l.156-.039a1.142,1.142,0,0,0-.572-2.212" fill="#ffca00"/>
        <path id="Trazado_762428" data-name="Trazado 762428" d="M451.57,192.468l-.113.1a1.143,1.143,0,0,0,1.563,1.667l.116-.109a1.142,1.142,0,0,0-1.566-1.663" fill="#ffca00"/>
        <path id="Trazado_762429" data-name="Trazado 762429" d="M482.668,137.47a1.144,1.144,0,0,0-1.335.91l-.028.15a1.142,1.142,0,0,0,2.243.432l.03-.157a1.142,1.142,0,0,0-.91-1.335" fill="#ffca00"/>
        <path id="Trazado_762430" data-name="Trazado 762430" d="M475.108,161.643a1.142,1.142,0,0,0-1.518.55l-.065.138a1.142,1.142,0,0,0,2.065.976l.068-.146a1.141,1.141,0,0,0-.55-1.518" fill="#ffca00"/>
        <path id="Trazado_762431" data-name="Trazado 762431" d="M479.655,149.8a1.143,1.143,0,0,0-1.439.734l-.048.146a1.142,1.142,0,0,0,.731,1.441,1.156,1.156,0,0,0,.355.057,1.141,1.141,0,0,0,1.085-.788l.049-.151a1.142,1.142,0,0,0-.733-1.439" fill="#ffca00"/>
        <path id="Trazado_762432" data-name="Trazado 762432" d="M469.124,172.832a1.143,1.143,0,0,0-1.578.349l-.084.132a1.142,1.142,0,0,0,1.926,1.228l.085-.132a1.144,1.144,0,0,0-.349-1.577" fill="#ffca00"/>
        <path id="Trazado_762433" data-name="Trazado 762433" d="M461.769,183.172a1.142,1.142,0,0,0-1.608.153l-.1.117a1.142,1.142,0,0,0,1.755,1.462l.1-.124a1.142,1.142,0,0,0-.153-1.608" fill="#ffca00"/>
        <path id="Trazado_762434" data-name="Trazado 762434" d="M284.4,119.616a2.376,2.376,0,1,0-2.376,2.376,2.379,2.379,0,0,0,2.376-2.376" fill="#ffca00"/>
        <path id="Trazado_762435" data-name="Trazado 762435" d="M484.228,117.24a2.376,2.376,0,1,0,2.376,2.377,2.379,2.379,0,0,0-2.376-2.377" fill="#ffca00"/>
        <path id="Trazado_762436" data-name="Trazado 762436" d="M538.844,118.475h-47.1a7.609,7.609,0,0,0-7.288-6.45,1.128,1.128,0,0,0-.919.028,7.6,7.6,0,0,0,0,15.126,1.084,1.084,0,0,0,.426.111c.023,0,.046,0,.068,0a1.148,1.148,0,0,0,.43-.084,7.609,7.609,0,0,0,7.286-6.449h47.1a1.142,1.142,0,1,0,0-2.284m-54.615,6.454a5.313,5.313,0,1,1,5.312-5.312,5.319,5.319,0,0,1-5.312,5.312" fill="#ffca00"/>
        <path id="Trazado_762437" data-name="Trazado 762437" d="M388.022,6.425a4.895,4.895,0,1,1-4.895-4.9,4.895,4.895,0,0,1,4.895,4.9" fill="#ffca00"/>
        <path id="Trazado_762438" data-name="Trazado 762438" d="M385.175,6.425a2.048,2.048,0,1,1-2.048-2.048,2.048,2.048,0,0,1,2.048,2.048" fill="#fff"/>
      </g>
    </g>
    <g id="Grupo_1024276" data-name="Grupo 1024276" transform="translate(417 11935)">
      <g id="Grupo_1024275" data-name="Grupo 1024275" clip-path="url(#clip-path-4)">
        <rect id="Rectángulo_358972" data-name="Rectángulo 358972" width="225.131" height="225.131" transform="translate(223.936 123.235) rotate(-45)" fill="url(#linear-gradient-2)"/>
      </g>
    </g>
    <path id="Trazado_762440" data-name="Trazado 762440" d="M332.508,68.994a71.587,71.587,0,1,1,0,101.239,71.587,71.587,0,0,1,0-101.239" transform="translate(417 11935)" fill="#f3f4f5"/>
    <path id="Trazado_762441" data-name="Trazado 762441" d="M758.1,76.749l-.252.253a119.353,119.353,0,0,1-153.5,154.272l-.252.252a119.675,119.675,0,0,0,154-154.777M688.45,7.954,688.7,7.7a119.679,119.679,0,0,0-154,154.78l.253-.254A119.353,119.353,0,0,1,688.45,7.954" transform="translate(417 11935)" fill="#2d54fe"/>
    <g transform="matrix(1, 0, 0, 1, 417, 11935)" filter="url(#Trazado_762442)">
      <path id="Trazado_762442-2" data-name="Trazado 762442" d="M737.711,119.614A91.312,91.312,0,1,1,646.4,28.3a91.312,91.312,0,0,1,91.312,91.312" fill="#2d54fe"/>
    </g>
    <path id="Trazado_762443" data-name="Trazado 762443" d="M717.665,202.454l1.62,1.62a111.24,111.24,0,0,1-72.895,27.1,1.142,1.142,0,1,1,0-2.284,108.935,108.935,0,0,0,71.275-26.438" transform="translate(417 11935)" fill="#2d54fe"/>
    <path id="Trazado_762444" data-name="Trazado 762444" d="M757.953,119.613a111.218,111.218,0,0,1-27.128,72.928l-1.62-1.62A109.406,109.406,0,0,0,747.077,77.075a110.084,110.084,0,0,0-5.963-12,1.142,1.142,0,1,1,1.98-1.138,112.293,112.293,0,0,1,6.088,12.248,110.9,110.9,0,0,1,8.771,43.427" transform="translate(417 11935)" fill="#2d54fe"/>
    <path id="Trazado_762445" data-name="Trazado 762445" d="M735.024,68.588a102.314,102.314,0,0,0-177.251,0l0,0a102.979,102.979,0,0,0-5.577,11.223,101.44,101.44,0,0,0-7.766,32.252,7.6,7.6,0,0,0,.644,15.138,1.147,1.147,0,0,0,.43.083h.075a1.2,1.2,0,0,0,.419-.11,7.6,7.6,0,0,0,.716-15.027A99.126,99.126,0,0,1,554.3,80.7a100.139,100.139,0,0,1,5.453-10.975,99.078,99.078,0,0,1,7.275-10.894,100.8,100.8,0,0,1,8.69-9.9,100.032,100.032,0,0,1,157.328,20.8,1.142,1.142,0,1,0,1.979-1.141M550.61,119.611A5.313,5.313,0,1,1,545.3,114.3a5.32,5.32,0,0,1,5.312,5.312" transform="translate(417 11935)" fill="#2d54fe"/>
    <path id="Trazado_762446" data-name="Trazado 762446" d="M577.95,192.462a1.142,1.142,0,0,0-1.566,1.663l.116.109a1.142,1.142,0,1,0,1.562-1.666Z" transform="translate(417 11935)" fill="#2d54fe"/>
    <path id="Trazado_762447" data-name="Trazado 762447" d="M587.732,200.565l-.127-.092a1.142,1.142,0,0,0-1.344,1.846l.126.092a1.142,1.142,0,1,0,1.345-1.846" transform="translate(417 11935)" fill="#2d54fe"/>
    <path id="Trazado_762448" data-name="Trazado 762448" d="M551.308,150.519a1.142,1.142,0,1,0-2.173.7l.05.153a1.142,1.142,0,0,0,2.17-.712Z" transform="translate(417 11935)" fill="#2d54fe"/>
    <path id="Trazado_762449" data-name="Trazado 762449" d="M569.357,183.316a1.142,1.142,0,0,0-1.758,1.458l.1.121a1.142,1.142,0,1,0,1.758-1.459Z" transform="translate(417 11935)" fill="#2d54fe"/>
    <path id="Trazado_762450" data-name="Trazado 762450" d="M548.191,138.367a1.142,1.142,0,1,0-2.244.425l.03.157a1.142,1.142,0,0,0,2.243-.431Z" transform="translate(417 11935)" fill="#2d54fe"/>
    <path id="Trazado_762451" data-name="Trazado 762451" d="M561.976,173.174a1.142,1.142,0,1,0-1.928,1.225l.087.136a1.142,1.142,0,1,0,1.923-1.233Z" transform="translate(417 11935)" fill="#2d54fe"/>
    <path id="Trazado_762452" data-name="Trazado 762452" d="M555.931,162.181a1.142,1.142,0,0,0-2.066.974l.067.142a1.142,1.142,0,1,0,2.066-.974Z" transform="translate(417 11935)" fill="#2d54fe"/>
    <path id="Trazado_762453" data-name="Trazado 762453" d="M621.617,216.481l-.149-.038a1.142,1.142,0,1,0-.571,2.212l.154.039a1.157,1.157,0,0,0,.284.036,1.142,1.142,0,0,0,.282-2.249" transform="translate(417 11935)" fill="#2d54fe"/>
    <path id="Trazado_762454" data-name="Trazado 762454" d="M598.325,207.279l-.134-.074a1.142,1.142,0,1,0-1.1,2l.14.077a1.142,1.142,0,0,0,1.1-2" transform="translate(417 11935)" fill="#2d54fe"/>
    <path id="Trazado_762455" data-name="Trazado 762455" d="M633.938,218.808l-.148-.018a1.142,1.142,0,1,0-.286,2.266l.162.02a1.059,1.059,0,0,0,.137.008,1.142,1.142,0,0,0,.135-2.276" transform="translate(417 11935)" fill="#2d54fe"/>
    <path id="Trazado_762456" data-name="Trazado 762456" d="M609.684,212.613l-.146-.058a1.142,1.142,0,1,0-.842,2.123l.146.058a1.142,1.142,0,1,0,.842-2.123" transform="translate(417 11935)" fill="#2d54fe"/>
    <path id="Trazado_762457" data-name="Trazado 762457" d="M646.318,221.857h.082a1.142,1.142,0,0,0,0-2.284h-.082a1.142,1.142,0,0,0,0,2.284" transform="translate(417 11935)" fill="#2d54fe"/>
    <path id="Trazado_762458" data-name="Trazado 762458" d="M542.922,119.611a2.375,2.375,0,1,0,2.376-2.376,2.379,2.379,0,0,0-2.376,2.376" transform="translate(417 11935)" fill="#2d54fe"/>
    <path id="Trazado_762459" data-name="Trazado 762459" d="M729.19,197.508a4.895,4.895,0,1,1-4.9-4.895,4.895,4.895,0,0,1,4.9,4.895" transform="translate(417 11935)" fill="#2d54fe"/>
    <path id="Trazado_762460" data-name="Trazado 762460" d="M726.344,197.508a2.048,2.048,0,1,1-2.049-2.048,2.049,2.049,0,0,1,2.049,2.048" transform="translate(417 11935)" fill="#fff"/>
    <path id="Trazado_776666" data-name="Trazado 776666" d="M0,0H766.013V239.228H0Z" transform="translate(417 11935)" fill="none"/>
    <g id="Grupo_1024280" data-name="Grupo 1024280" transform="translate(417 11935)">
      <g id="Grupo_1024279" data-name="Grupo 1024279" clip-path="url(#clip-path-5)">
        <rect id="Rectángulo_358974" data-name="Rectángulo 358974" width="225.131" height="225.131" transform="translate(487.207 123.234) rotate(-45)" fill="url(#linear-gradient-3)"/>
      </g>
    </g>
    <g id="Grupo_1024282" data-name="Grupo 1024282" transform="translate(417 11935)">
      <g id="Grupo_1024281" data-name="Grupo 1024281" clip-path="url(#clip-path)">
        <path id="Trazado_762462" data-name="Trazado 762462" d="M595.78,68.994a71.587,71.587,0,1,1,0,101.239,71.587,71.587,0,0,1,0-101.239" fill="#f3f4f5"/>
      </g>
    </g>
    <path id="Trazado_776667" data-name="Trazado 776667" d="M9.1,15H6.758V3.625H9.1Zm4.141-8.453.07.945a2.971,2.971,0,0,1,2.43-1.1A2.255,2.255,0,0,1,17.984,7.68a2.9,2.9,0,0,1,2.539-1.289,2.521,2.521,0,0,1,2.047.8,3.681,3.681,0,0,1,.672,2.41V15H20.977V9.6A1.616,1.616,0,0,0,20.7,8.544a1.245,1.245,0,0,0-.992-.333,1.409,1.409,0,0,0-1.406.971L18.3,15H16.047V9.6a1.6,1.6,0,0,0-.289-1.065,1.257,1.257,0,0,0-.984-.329,1.463,1.463,0,0,0-1.391.8V15H11.125V6.547Zm19.344,4.3A5.07,5.07,0,0,1,31.7,13.98,2.843,2.843,0,0,1,29.3,15.156a2.633,2.633,0,0,1-2.07-.891V18.25H24.977V6.547H27.07l.078.828a2.654,2.654,0,0,1,2.141-.984,2.862,2.862,0,0,1,2.43,1.156,5.207,5.207,0,0,1,.867,3.188Zm-2.258-.172a3.345,3.345,0,0,0-.418-1.826A1.36,1.36,0,0,0,28.7,8.211a1.478,1.478,0,0,0-1.461.815V12.5a1.5,1.5,0,0,0,1.477.839Q30.328,13.336,30.328,10.679ZM38.883,15a2.507,2.507,0,0,1-.227-.758,2.732,2.732,0,0,1-2.133.914,3,3,0,0,1-2.059-.719,2.312,2.312,0,0,1-.816-1.812,2.389,2.389,0,0,1,1-2.062,4.915,4.915,0,0,1,2.879-.727h1.039V9.352a1.393,1.393,0,0,0-.3-.937,1.183,1.183,0,0,0-.949-.352,1.345,1.345,0,0,0-.895.273.929.929,0,0,0-.324.75H33.836a2.268,2.268,0,0,1,.453-1.359,3,3,0,0,1,1.281-.98,4.669,4.669,0,0,1,1.859-.355,3.689,3.689,0,0,1,2.48.785,2.747,2.747,0,0,1,.918,2.207v3.664a4.041,4.041,0,0,0,.336,1.82V15Zm-1.867-1.57a1.945,1.945,0,0,0,.922-.223,1.462,1.462,0,0,0,.625-.6V11.156h-.844q-1.7,0-1.8,1.172l-.008.133a.9.9,0,0,0,.3.7A1.153,1.153,0,0,0,37.016,13.43Zm9.063-.094a1.481,1.481,0,0,0,1.016-.344,1.2,1.2,0,0,0,.406-.914h2.117a2.9,2.9,0,0,1-.469,1.574,3.093,3.093,0,0,1-1.262,1.109,3.949,3.949,0,0,1-1.77.395A3.67,3.67,0,0,1,43.258,14a4.56,4.56,0,0,1-1.047-3.184v-.148A4.508,4.508,0,0,1,43.25,7.555,3.627,3.627,0,0,1,46.1,6.391a3.555,3.555,0,0,1,2.543.9,3.2,3.2,0,0,1,.973,2.4H47.5a1.551,1.551,0,0,0-.406-1.072,1.51,1.51,0,0,0-2.223.163,3.333,3.333,0,0,0-.4,1.866v.235a3.375,3.375,0,0,0,.4,1.878A1.377,1.377,0,0,0,46.078,13.336Zm7.531-8.867V6.547h1.445V8.2H53.609v4.219a1.007,1.007,0,0,0,.18.672.9.9,0,0,0,.688.2,3.6,3.6,0,0,0,.664-.055v1.711a4.648,4.648,0,0,1-1.367.2,2.156,2.156,0,0,1-2.422-2.4V8.2H50.117V6.547h1.234V4.469ZM55.727,10.7a5.013,5.013,0,0,1,.484-2.242A3.546,3.546,0,0,1,57.605,6.93a4.069,4.069,0,0,1,2.113-.539,3.849,3.849,0,0,1,2.793,1.047,4.2,4.2,0,0,1,1.207,2.844l.016.578a4.418,4.418,0,0,1-1.086,3.121,4.209,4.209,0,0,1-5.832,0,4.5,4.5,0,0,1-1.09-3.187Zm2.258.16a3.16,3.16,0,0,0,.453,1.843,1.628,1.628,0,0,0,2.578.008,3.457,3.457,0,0,0,.461-2.015,3.128,3.128,0,0,0-.461-1.831,1.5,1.5,0,0,0-1.3-.649,1.474,1.474,0,0,0-1.281.646A3.516,3.516,0,0,0,57.984,10.856Zm10.773-.145a5.094,5.094,0,0,1,.887-3.148A2.877,2.877,0,0,1,72.07,6.391a2.589,2.589,0,0,1,2.039.922V3h2.266V15H74.336l-.109-.9a2.657,2.657,0,0,1-2.172,1.055A2.869,2.869,0,0,1,69.66,13.98,5.258,5.258,0,0,1,68.758,10.711Zm2.258.161A3.355,3.355,0,0,0,71.43,12.7a1.348,1.348,0,0,0,1.2.636,1.51,1.51,0,0,0,1.477-.887V9.1a1.489,1.489,0,0,0-1.461-.887Q71.016,8.211,71.016,10.872Zm11,4.285a4.15,4.15,0,0,1-3.027-1.141,4.054,4.054,0,0,1-1.168-3.039v-.219a5.106,5.106,0,0,1,.492-2.277,3.612,3.612,0,0,1,1.395-1.547,3.914,3.914,0,0,1,2.059-.543A3.508,3.508,0,0,1,84.5,7.484a4.444,4.444,0,0,1,1,3.1v.922H80.109a2.1,2.1,0,0,0,.66,1.328,2,2,0,0,0,1.395.5,2.437,2.437,0,0,0,2.039-.945l1.109,1.242a3.389,3.389,0,0,1-1.375,1.121A4.511,4.511,0,0,1,82.016,15.156Zm-.258-6.945a1.411,1.411,0,0,0-1.09.455,2.357,2.357,0,0,0-.535,1.3h3.141V9.788a1.681,1.681,0,0,0-.406-1.165A1.456,1.456,0,0,0,81.758,8.211ZM93.141,15H90.875V3h2.266Zm1.508-4.3a5.013,5.013,0,0,1,.484-2.242A3.546,3.546,0,0,1,96.527,6.93a4.069,4.069,0,0,1,2.113-.539,3.849,3.849,0,0,1,2.793,1.047,4.2,4.2,0,0,1,1.207,2.844l.016.578a4.418,4.418,0,0,1-1.086,3.121,4.209,4.209,0,0,1-5.832,0,4.5,4.5,0,0,1-1.09-3.187Zm2.258.16a3.16,3.16,0,0,0,.453,1.843,1.628,1.628,0,0,0,2.578.008,3.457,3.457,0,0,0,.461-2.015,3.128,3.128,0,0,0-.461-1.831,1.5,1.5,0,0,0-1.3-.649,1.474,1.474,0,0,0-1.281.646A3.516,3.516,0,0,0,96.906,10.856Zm11.719,1.808a.727.727,0,0,0-.41-.652,4.659,4.659,0,0,0-1.316-.426q-3.016-.633-3.016-2.562a2.323,2.323,0,0,1,.934-1.879,3.766,3.766,0,0,1,2.441-.754,4.053,4.053,0,0,1,2.574.758,2.388,2.388,0,0,1,.965,1.969h-2.258a1.092,1.092,0,0,0-.312-.8A1.322,1.322,0,0,0,107.25,8a1.351,1.351,0,0,0-.883.258.814.814,0,0,0-.312.656.7.7,0,0,0,.355.605,3.657,3.657,0,0,0,1.2.4,9.8,9.8,0,0,1,1.422.379,2.336,2.336,0,0,1,1.789,2.273,2.2,2.2,0,0,1-.992,1.871,4.28,4.28,0,0,1-2.562.715,4.47,4.47,0,0,1-1.887-.379,3.166,3.166,0,0,1-1.293-1.039,2.414,2.414,0,0,1-.469-1.426h2.141a1.179,1.179,0,0,0,.445.922,1.766,1.766,0,0,0,1.109.32,1.635,1.635,0,0,0,.98-.246A.766.766,0,0,0,108.625,12.664Zm-101.75,14a6.134,6.134,0,0,0-.812-.062,1.654,1.654,0,0,0-1.68.867V33H2.125V24.547H4.258l.063,1.008A2.092,2.092,0,0,1,6.2,24.391a2.366,2.366,0,0,1,.7.1ZM11.7,33.156a4.15,4.15,0,0,1-3.027-1.141,4.054,4.054,0,0,1-1.168-3.039v-.219A5.106,5.106,0,0,1,8,26.48a3.612,3.612,0,0,1,1.395-1.547,3.914,3.914,0,0,1,2.059-.543,3.508,3.508,0,0,1,2.73,1.094,4.444,4.444,0,0,1,1,3.1v.922H9.8a2.1,2.1,0,0,0,.66,1.328,2,2,0,0,0,1.395.5,2.437,2.437,0,0,0,2.039-.945L15,31.633a3.389,3.389,0,0,1-1.375,1.121A4.511,4.511,0,0,1,11.7,33.156Zm-.258-6.945a1.411,1.411,0,0,0-1.09.455,2.357,2.357,0,0,0-.535,1.3h3.141v-.181a1.681,1.681,0,0,0-.406-1.165A1.456,1.456,0,0,0,11.445,26.211Zm9.594,4.453a.727.727,0,0,0-.41-.652,4.659,4.659,0,0,0-1.316-.426Q16.3,28.953,16.3,27.023a2.323,2.323,0,0,1,.934-1.879,3.766,3.766,0,0,1,2.441-.754,4.053,4.053,0,0,1,2.574.758,2.388,2.388,0,0,1,.965,1.969H20.953a1.092,1.092,0,0,0-.312-.8A1.322,1.322,0,0,0,19.664,26a1.351,1.351,0,0,0-.883.258.814.814,0,0,0-.312.656.7.7,0,0,0,.355.605,3.657,3.657,0,0,0,1.2.4,9.8,9.8,0,0,1,1.422.379,2.336,2.336,0,0,1,1.789,2.273,2.2,2.2,0,0,1-.992,1.871,4.28,4.28,0,0,1-2.562.715,4.47,4.47,0,0,1-1.887-.379A3.166,3.166,0,0,1,16.5,31.738a2.414,2.414,0,0,1-.469-1.426h2.141a1.179,1.179,0,0,0,.445.922,1.766,1.766,0,0,0,1.109.32,1.635,1.635,0,0,0,.98-.246A.766.766,0,0,0,21.039,30.664Zm8.711,1.477a2.831,2.831,0,0,1-2.312,1.016,2.67,2.67,0,0,1-2.074-.781,3.335,3.335,0,0,1-.73-2.289V24.547h2.258v5.467q0,1.322,1.2,1.322a1.63,1.63,0,0,0,1.578-.8V24.547h2.266V33H29.813ZM36.023,33H33.758V21h2.266Zm4.563-10.531v2.078h1.445V26.2H40.586v4.219a1.007,1.007,0,0,0,.18.672.9.9,0,0,0,.688.2,3.6,3.6,0,0,0,.664-.055v1.711a4.648,4.648,0,0,1-1.367.2,2.156,2.156,0,0,1-2.422-2.4V26.2H37.094V24.547h1.234V22.469ZM48.188,33a2.507,2.507,0,0,1-.227-.758,2.732,2.732,0,0,1-2.133.914,3,3,0,0,1-2.059-.719,2.312,2.312,0,0,1-.816-1.812,2.389,2.389,0,0,1,1-2.062,4.915,4.915,0,0,1,2.879-.727h1.039v-.484a1.393,1.393,0,0,0-.3-.937,1.183,1.183,0,0,0-.949-.352,1.345,1.345,0,0,0-.895.273.929.929,0,0,0-.324.75H43.141a2.268,2.268,0,0,1,.453-1.359,3,3,0,0,1,1.281-.98,4.669,4.669,0,0,1,1.859-.355,3.689,3.689,0,0,1,2.48.785,2.747,2.747,0,0,1,.918,2.207v3.664a4.041,4.041,0,0,0,.336,1.82V33ZM46.32,31.43a1.945,1.945,0,0,0,.922-.223,1.462,1.462,0,0,0,.625-.6V29.156h-.844q-1.7,0-1.8,1.172l-.008.133a.9.9,0,0,0,.3.7A1.153,1.153,0,0,0,46.32,31.43Zm5.2-2.719a5.094,5.094,0,0,1,.887-3.148,2.877,2.877,0,0,1,2.426-1.172,2.589,2.589,0,0,1,2.039.922V21h2.266V33H57.094l-.109-.9a2.657,2.657,0,0,1-2.172,1.055,2.869,2.869,0,0,1-2.395-1.176A5.258,5.258,0,0,1,51.516,28.711Zm2.258.161a3.355,3.355,0,0,0,.414,1.829,1.348,1.348,0,0,0,1.2.636,1.51,1.51,0,0,0,1.477-.887V27.1a1.489,1.489,0,0,0-1.461-.887Q53.773,26.211,53.773,28.872Zm6.758-.176a5.013,5.013,0,0,1,.484-2.242A3.546,3.546,0,0,1,62.41,24.93a4.069,4.069,0,0,1,2.113-.539,3.849,3.849,0,0,1,2.793,1.047,4.2,4.2,0,0,1,1.207,2.844l.016.578a4.418,4.418,0,0,1-1.086,3.121,4.209,4.209,0,0,1-5.832,0,4.5,4.5,0,0,1-1.09-3.187Zm2.258.16a3.16,3.16,0,0,0,.453,1.843,1.628,1.628,0,0,0,2.578.008,3.457,3.457,0,0,0,.461-2.015,3.128,3.128,0,0,0-.461-1.831,1.5,1.5,0,0,0-1.3-.649,1.474,1.474,0,0,0-1.281.646A3.516,3.516,0,0,0,62.789,28.856Zm11.719,1.808a.727.727,0,0,0-.41-.652,4.659,4.659,0,0,0-1.316-.426q-3.016-.633-3.016-2.562a2.323,2.323,0,0,1,.934-1.879,3.766,3.766,0,0,1,2.441-.754,4.053,4.053,0,0,1,2.574.758,2.388,2.388,0,0,1,.965,1.969H74.422a1.092,1.092,0,0,0-.312-.8A1.322,1.322,0,0,0,73.133,26a1.351,1.351,0,0,0-.883.258.814.814,0,0,0-.312.656.7.7,0,0,0,.355.605,3.657,3.657,0,0,0,1.2.4,9.8,9.8,0,0,1,1.422.379A2.336,2.336,0,0,1,76.7,30.57a2.2,2.2,0,0,1-.992,1.871,4.28,4.28,0,0,1-2.562.715,4.47,4.47,0,0,1-1.887-.379,3.166,3.166,0,0,1-1.293-1.039,2.414,2.414,0,0,1-.469-1.426h2.141a1.179,1.179,0,0,0,.445.922,1.766,1.766,0,0,0,1.109.32,1.635,1.635,0,0,0,.98-.246A.766.766,0,0,0,74.508,30.664Zm7.281-1.953a5.094,5.094,0,0,1,.887-3.148A2.877,2.877,0,0,1,85.1,24.391a2.589,2.589,0,0,1,2.039.922V21h2.266V33H87.367l-.109-.9a2.657,2.657,0,0,1-2.172,1.055,2.869,2.869,0,0,1-2.395-1.176A5.258,5.258,0,0,1,81.789,28.711Zm2.258.161a3.355,3.355,0,0,0,.414,1.829,1.348,1.348,0,0,0,1.2.636,1.51,1.51,0,0,0,1.477-.887V27.1a1.489,1.489,0,0,0-1.461-.887Q84.047,26.211,84.047,28.872Zm11,4.285a4.15,4.15,0,0,1-3.027-1.141,4.054,4.054,0,0,1-1.168-3.039v-.219a5.106,5.106,0,0,1,.492-2.277,3.612,3.612,0,0,1,1.395-1.547,3.914,3.914,0,0,1,2.059-.543,3.508,3.508,0,0,1,2.73,1.094,4.444,4.444,0,0,1,1,3.1v.922H93.141a2.1,2.1,0,0,0,.66,1.328,2,2,0,0,0,1.395.5,2.437,2.437,0,0,0,2.039-.945l1.109,1.242a3.389,3.389,0,0,1-1.375,1.121A4.511,4.511,0,0,1,95.047,33.156Zm-.258-6.945a1.411,1.411,0,0,0-1.09.455,2.357,2.357,0,0,0-.535,1.3H96.3v-.181a1.681,1.681,0,0,0-.406-1.165A1.456,1.456,0,0,0,94.789,26.211ZM106.172,33h-2.266V21h2.266Zm6.758,0a2.507,2.507,0,0,1-.227-.758,2.732,2.732,0,0,1-2.133.914,3,3,0,0,1-2.059-.719,2.312,2.312,0,0,1-.816-1.812,2.389,2.389,0,0,1,1-2.062,4.915,4.915,0,0,1,2.879-.727h1.039v-.484a1.393,1.393,0,0,0-.3-.937,1.183,1.183,0,0,0-.949-.352,1.345,1.345,0,0,0-.895.273.929.929,0,0,0-.324.75h-2.258a2.268,2.268,0,0,1,.453-1.359,3,3,0,0,1,1.281-.98,4.669,4.669,0,0,1,1.859-.355,3.689,3.689,0,0,1,2.48.785,2.747,2.747,0,0,1,.918,2.207v3.664a4.041,4.041,0,0,0,.336,1.82V33Zm-1.867-1.57a1.945,1.945,0,0,0,.922-.223,1.462,1.462,0,0,0,.625-.6V29.156h-.844q-1.7,0-1.8,1.172l-.008.133a.9.9,0,0,0,.3.7A1.153,1.153,0,0,0,111.063,31.43ZM9.66,51a2.507,2.507,0,0,1-.227-.758,2.732,2.732,0,0,1-2.133.914,3,3,0,0,1-2.059-.719,2.312,2.312,0,0,1-.816-1.812,2.389,2.389,0,0,1,1-2.062A4.915,4.915,0,0,1,8.3,45.836H9.34v-.484a1.393,1.393,0,0,0-.3-.937,1.183,1.183,0,0,0-.949-.352,1.345,1.345,0,0,0-.895.273.929.929,0,0,0-.324.75H4.613a2.268,2.268,0,0,1,.453-1.359,3,3,0,0,1,1.281-.98,4.669,4.669,0,0,1,1.859-.355,3.689,3.689,0,0,1,2.48.785,2.747,2.747,0,0,1,.918,2.207v3.664a4.041,4.041,0,0,0,.336,1.82V51ZM7.793,49.43a1.945,1.945,0,0,0,.922-.223,1.462,1.462,0,0,0,.625-.6V47.156H8.5q-1.7,0-1.8,1.172l-.008.133a.9.9,0,0,0,.3.7A1.153,1.153,0,0,0,7.793,49.43Zm10.609.711a2.831,2.831,0,0,1-2.312,1.016,2.67,2.67,0,0,1-2.074-.781,3.335,3.335,0,0,1-.73-2.289V42.547h2.258v5.467q0,1.322,1.2,1.322a1.63,1.63,0,0,0,1.578-.8V42.547H20.59V51H18.465ZM25,40.469v2.078h1.445V44.2H25v4.219a1.007,1.007,0,0,0,.18.672.9.9,0,0,0,.688.2,3.6,3.6,0,0,0,.664-.055v1.711a4.648,4.648,0,0,1-1.367.2,2.156,2.156,0,0,1-2.422-2.4V44.2H21.5V42.547h1.234V40.469ZM27.113,46.7a5.013,5.013,0,0,1,.484-2.242,3.546,3.546,0,0,1,1.395-1.523,4.069,4.069,0,0,1,2.113-.539A3.849,3.849,0,0,1,33.9,43.438a4.2,4.2,0,0,1,1.207,2.844l.016.578a4.418,4.418,0,0,1-1.086,3.121,3.775,3.775,0,0,1-2.914,1.176A3.793,3.793,0,0,1,28.2,49.984a4.5,4.5,0,0,1-1.09-3.187Zm2.258.16a3.16,3.16,0,0,0,.453,1.843,1.628,1.628,0,0,0,2.578.008,3.457,3.457,0,0,0,.461-2.015A3.128,3.128,0,0,0,32.4,44.86a1.5,1.5,0,0,0-1.3-.649,1.474,1.474,0,0,0-1.281.646A3.516,3.516,0,0,0,29.371,46.856Zm11.031,4.3a4.15,4.15,0,0,1-3.027-1.141,4.054,4.054,0,0,1-1.168-3.039v-.219A5.106,5.106,0,0,1,36.7,44.48a3.612,3.612,0,0,1,1.395-1.547,3.914,3.914,0,0,1,2.059-.543,3.508,3.508,0,0,1,2.73,1.094,4.444,4.444,0,0,1,1,3.1v.922H38.5a2.1,2.1,0,0,0,.66,1.328,2,2,0,0,0,1.395.5,2.437,2.437,0,0,0,2.039-.945L43.7,49.633a3.389,3.389,0,0,1-1.375,1.121A4.511,4.511,0,0,1,40.4,51.156Zm-.258-6.945a1.411,1.411,0,0,0-1.09.455,2.357,2.357,0,0,0-.535,1.3H41.66v-.181a1.681,1.681,0,0,0-.406-1.165A1.456,1.456,0,0,0,40.145,44.211Zm8.078,4.031,1.57-5.7h2.359L49.3,51H47.145l-2.852-8.453h2.359ZM57.926,51a2.507,2.507,0,0,1-.227-.758,2.732,2.732,0,0,1-2.133.914,3,3,0,0,1-2.059-.719,2.312,2.312,0,0,1-.816-1.812,2.389,2.389,0,0,1,1-2.062,4.915,4.915,0,0,1,2.879-.727h1.039v-.484a1.393,1.393,0,0,0-.3-.937,1.183,1.183,0,0,0-.949-.352,1.345,1.345,0,0,0-.895.273.929.929,0,0,0-.324.75H52.879a2.268,2.268,0,0,1,.453-1.359,3,3,0,0,1,1.281-.98,4.669,4.669,0,0,1,1.859-.355,3.689,3.689,0,0,1,2.48.785,2.747,2.747,0,0,1,.918,2.207v3.664a4.041,4.041,0,0,0,.336,1.82V51Zm-1.867-1.57a1.945,1.945,0,0,0,.922-.223,1.462,1.462,0,0,0,.625-.6V47.156h-.844q-1.7,0-1.8,1.172l-.008.133a.9.9,0,0,0,.3.7A1.153,1.153,0,0,0,56.059,49.43ZM63.988,51H61.723V39h2.266Zm6.922-.859A2.831,2.831,0,0,1,68.6,51.156a2.67,2.67,0,0,1-2.074-.781,3.335,3.335,0,0,1-.73-2.289V42.547h2.258v5.467q0,1.322,1.2,1.322a1.63,1.63,0,0,0,1.578-.8V42.547H73.1V51H70.973ZM79.7,51a2.507,2.507,0,0,1-.227-.758,2.732,2.732,0,0,1-2.133.914,3,3,0,0,1-2.059-.719,2.312,2.312,0,0,1-.816-1.812,2.389,2.389,0,0,1,1-2.062,4.915,4.915,0,0,1,2.879-.727h1.039v-.484a1.393,1.393,0,0,0-.3-.937,1.183,1.183,0,0,0-.949-.352,1.345,1.345,0,0,0-.895.273.929.929,0,0,0-.324.75H74.652a2.268,2.268,0,0,1,.453-1.359,3,3,0,0,1,1.281-.98,4.669,4.669,0,0,1,1.859-.355,3.689,3.689,0,0,1,2.48.785,2.747,2.747,0,0,1,.918,2.207v3.664a4.041,4.041,0,0,0,.336,1.82V51Zm-1.867-1.57a1.945,1.945,0,0,0,.922-.223,1.462,1.462,0,0,0,.625-.6V47.156h-.844q-1.7,0-1.8,1.172l-.008.133a.9.9,0,0,0,.3.7A1.153,1.153,0,0,0,77.832,49.43Zm9.063-.094a1.481,1.481,0,0,0,1.016-.344,1.2,1.2,0,0,0,.406-.914h2.117a2.9,2.9,0,0,1-.469,1.574A3.093,3.093,0,0,1,88.7,50.762a3.949,3.949,0,0,1-1.77.395A3.67,3.67,0,0,1,84.074,50a4.56,4.56,0,0,1-1.047-3.184v-.148a4.508,4.508,0,0,1,1.039-3.117,3.627,3.627,0,0,1,2.852-1.164,3.555,3.555,0,0,1,2.543.9,3.2,3.2,0,0,1,.973,2.4H88.316a1.551,1.551,0,0,0-.406-1.072,1.51,1.51,0,0,0-2.223.163,3.333,3.333,0,0,0-.4,1.866v.235a3.375,3.375,0,0,0,.4,1.878A1.377,1.377,0,0,0,86.895,49.336ZM94.105,51H91.84V42.547h2.266Zm-2.4-10.641a1.112,1.112,0,0,1,.34-.836,1.465,1.465,0,0,1,1.848,0,1.193,1.193,0,0,1,0,1.68,1.448,1.448,0,0,1-1.836,0A1.108,1.108,0,0,1,91.707,40.359ZM95.613,46.7a5.013,5.013,0,0,1,.484-2.242,3.546,3.546,0,0,1,1.395-1.523,4.069,4.069,0,0,1,2.113-.539,3.849,3.849,0,0,1,2.793,1.047,4.2,4.2,0,0,1,1.207,2.844l.016.578a4.418,4.418,0,0,1-1.086,3.121,4.209,4.209,0,0,1-5.832,0,4.5,4.5,0,0,1-1.09-3.187Zm2.258.16a3.16,3.16,0,0,0,.453,1.843,1.628,1.628,0,0,0,2.578.008,3.457,3.457,0,0,0,.461-2.015,3.128,3.128,0,0,0-.461-1.831,1.5,1.5,0,0,0-1.3-.649,1.474,1.474,0,0,0-1.281.646A3.516,3.516,0,0,0,97.871,46.856ZM100.051,39h2.461l-2.164,2.422H98.512Zm7.039,3.547.07.977a2.951,2.951,0,0,1,2.43-1.133,2.453,2.453,0,0,1,2,.789,3.682,3.682,0,0,1,.672,2.359V51H110V45.581a1.47,1.47,0,0,0-.312-1.045,1.4,1.4,0,0,0-1.039-.325,1.553,1.553,0,0,0-1.43.814V51h-2.258V42.547Z" transform="translate(478 12027)" fill="#12263f"/>
    <path id="Trazado_776668" data-name="Trazado 776668" d="M13.926,10.992V15H11.582V3.625H16.02a5.134,5.134,0,0,1,2.254.469,3.454,3.454,0,0,1,1.5,1.332,3.714,3.714,0,0,1,.523,1.965,3.266,3.266,0,0,1-1.145,2.637,4.767,4.767,0,0,1-3.168.965Zm0-1.9H16.02a2.059,2.059,0,0,0,1.418-.437,1.591,1.591,0,0,0,.488-1.25,1.876,1.876,0,0,0-.492-1.352,1.839,1.839,0,0,0-1.359-.531H13.926ZM26.566,15a2.507,2.507,0,0,1-.227-.758,2.732,2.732,0,0,1-2.133.914,3,3,0,0,1-2.059-.719,2.312,2.312,0,0,1-.816-1.812,2.389,2.389,0,0,1,1-2.062,4.915,4.915,0,0,1,2.879-.727h1.039V9.352a1.393,1.393,0,0,0-.3-.937A1.183,1.183,0,0,0,25,8.063a1.345,1.345,0,0,0-.895.273.929.929,0,0,0-.324.75H21.52a2.268,2.268,0,0,1,.453-1.359,3,3,0,0,1,1.281-.98,4.669,4.669,0,0,1,1.859-.355,3.689,3.689,0,0,1,2.48.785,2.747,2.747,0,0,1,.918,2.207v3.664a4.041,4.041,0,0,0,.336,1.82V15ZM24.7,13.43a1.945,1.945,0,0,0,.922-.223,1.462,1.462,0,0,0,.625-.6V11.156H25.4q-1.7,0-1.8,1.172l-.008.133a.9.9,0,0,0,.3.7A1.153,1.153,0,0,0,24.7,13.43Zm10.125-.766a.727.727,0,0,0-.41-.652,4.659,4.659,0,0,0-1.316-.426q-3.016-.633-3.016-2.562a2.323,2.323,0,0,1,.934-1.879,3.766,3.766,0,0,1,2.441-.754,4.053,4.053,0,0,1,2.574.758A2.388,2.388,0,0,1,37,9.117H34.738a1.092,1.092,0,0,0-.312-.8A1.322,1.322,0,0,0,33.449,8a1.351,1.351,0,0,0-.883.258.814.814,0,0,0-.312.656.7.7,0,0,0,.355.605,3.657,3.657,0,0,0,1.2.4,9.8,9.8,0,0,1,1.422.379A2.336,2.336,0,0,1,37.02,12.57a2.2,2.2,0,0,1-.992,1.871,4.28,4.28,0,0,1-2.562.715,4.47,4.47,0,0,1-1.887-.379,3.166,3.166,0,0,1-1.293-1.039,2.414,2.414,0,0,1-.469-1.426h2.141a1.179,1.179,0,0,0,.445.922,1.766,1.766,0,0,0,1.109.32,1.635,1.635,0,0,0,.98-.246A.766.766,0,0,0,34.824,12.664Zm3.3-1.969a5.013,5.013,0,0,1,.484-2.242A3.546,3.546,0,0,1,40,6.93a4.069,4.069,0,0,1,2.113-.539,3.849,3.849,0,0,1,2.793,1.047,4.2,4.2,0,0,1,1.207,2.844l.016.578a4.418,4.418,0,0,1-1.086,3.121,4.209,4.209,0,0,1-5.832,0,4.5,4.5,0,0,1-1.09-3.187Zm2.258.16a3.16,3.16,0,0,0,.453,1.843,1.628,1.628,0,0,0,2.578.008,3.457,3.457,0,0,0,.461-2.015A3.128,3.128,0,0,0,43.41,8.86a1.5,1.5,0,0,0-1.3-.649,1.474,1.474,0,0,0-1.281.646A3.516,3.516,0,0,0,40.379,10.856ZM52.1,12.664a.727.727,0,0,0-.41-.652,4.659,4.659,0,0,0-1.316-.426q-3.016-.633-3.016-2.562a2.323,2.323,0,0,1,.934-1.879,3.766,3.766,0,0,1,2.441-.754,4.053,4.053,0,0,1,2.574.758,2.388,2.388,0,0,1,.965,1.969H52.012a1.092,1.092,0,0,0-.312-.8A1.322,1.322,0,0,0,50.723,8a1.351,1.351,0,0,0-.883.258.814.814,0,0,0-.312.656.7.7,0,0,0,.355.605,3.657,3.657,0,0,0,1.2.4A9.8,9.8,0,0,1,52.5,10.3a2.336,2.336,0,0,1,1.789,2.273,2.2,2.2,0,0,1-.992,1.871,4.28,4.28,0,0,1-2.562.715,4.47,4.47,0,0,1-1.887-.379,3.166,3.166,0,0,1-1.293-1.039,2.414,2.414,0,0,1-.469-1.426H49.23a1.179,1.179,0,0,0,.445.922,1.766,1.766,0,0,0,1.109.32,1.635,1.635,0,0,0,.98-.246A.766.766,0,0,0,52.1,12.664ZM67.34,10.852a5.07,5.07,0,0,1-.887,3.129,2.843,2.843,0,0,1-2.395,1.176,2.633,2.633,0,0,1-2.07-.891V18.25H59.73V6.547h2.094l.078.828a2.654,2.654,0,0,1,2.141-.984,2.862,2.862,0,0,1,2.43,1.156,5.207,5.207,0,0,1,.867,3.188Zm-2.258-.172a3.345,3.345,0,0,0-.418-1.826,1.36,1.36,0,0,0-1.215-.643,1.478,1.478,0,0,0-1.461.815V12.5a1.5,1.5,0,0,0,1.477.839Q65.082,13.336,65.082,10.679ZM73.637,15a2.507,2.507,0,0,1-.227-.758,2.732,2.732,0,0,1-2.133.914,3,3,0,0,1-2.059-.719,2.312,2.312,0,0,1-.816-1.812,2.389,2.389,0,0,1,1-2.062,4.915,4.915,0,0,1,2.879-.727h1.039V9.352a1.393,1.393,0,0,0-.3-.937,1.183,1.183,0,0,0-.949-.352,1.345,1.345,0,0,0-.895.273.929.929,0,0,0-.324.75H68.59a2.268,2.268,0,0,1,.453-1.359,3,3,0,0,1,1.281-.98,4.669,4.669,0,0,1,1.859-.355,3.689,3.689,0,0,1,2.48.785,2.747,2.747,0,0,1,.918,2.207v3.664a4.041,4.041,0,0,0,.336,1.82V15ZM71.77,13.43a1.945,1.945,0,0,0,.922-.223,1.462,1.462,0,0,0,.625-.6V11.156h-.844q-1.7,0-1.8,1.172l-.008.133a.9.9,0,0,0,.3.7A1.153,1.153,0,0,0,71.77,13.43Zm10.3-4.766a6.134,6.134,0,0,0-.812-.062,1.654,1.654,0,0,0-1.68.867V15H77.316V6.547h2.133l.063,1.008a2.092,2.092,0,0,1,1.883-1.164,2.366,2.366,0,0,1,.7.1ZM87.816,15a2.507,2.507,0,0,1-.227-.758,2.732,2.732,0,0,1-2.133.914,3,3,0,0,1-2.059-.719,2.312,2.312,0,0,1-.816-1.812,2.389,2.389,0,0,1,1-2.062,4.915,4.915,0,0,1,2.879-.727H87.5V9.352a1.393,1.393,0,0,0-.3-.937,1.183,1.183,0,0,0-.949-.352,1.345,1.345,0,0,0-.895.273.929.929,0,0,0-.324.75H82.77a2.268,2.268,0,0,1,.453-1.359,3,3,0,0,1,1.281-.98,4.669,4.669,0,0,1,1.859-.355,3.689,3.689,0,0,1,2.48.785,2.747,2.747,0,0,1,.918,2.207v3.664a4.041,4.041,0,0,0,.336,1.82V15Zm-1.867-1.57a1.945,1.945,0,0,0,.922-.223,1.462,1.462,0,0,0,.625-.6V11.156h-.844q-1.7,0-1.8,1.172l-.008.133a.9.9,0,0,0,.3.7A1.153,1.153,0,0,0,85.949,13.43ZM97.863,15H95.6V3h2.266Zm6.758,0a2.507,2.507,0,0,1-.227-.758,2.732,2.732,0,0,1-2.133.914,3,3,0,0,1-2.059-.719,2.312,2.312,0,0,1-.816-1.812,2.389,2.389,0,0,1,1-2.062,4.915,4.915,0,0,1,2.879-.727H104.3V9.352a1.393,1.393,0,0,0-.3-.937,1.183,1.183,0,0,0-.949-.352,1.345,1.345,0,0,0-.895.273.929.929,0,0,0-.324.75H99.574a2.268,2.268,0,0,1,.453-1.359,3,3,0,0,1,1.281-.98,4.669,4.669,0,0,1,1.859-.355,3.689,3.689,0,0,1,2.48.785,2.747,2.747,0,0,1,.918,2.207v3.664a4.041,4.041,0,0,0,.336,1.82V15Zm-1.867-1.57a1.945,1.945,0,0,0,.922-.223,1.462,1.462,0,0,0,.625-.6V11.156h-.844q-1.7,0-1.8,1.172l-.008.133a.9.9,0,0,0,.3.7A1.153,1.153,0,0,0,102.754,13.43ZM10.16,33a2.507,2.507,0,0,1-.227-.758,2.732,2.732,0,0,1-2.133.914,3,3,0,0,1-2.059-.719,2.312,2.312,0,0,1-.816-1.812,2.389,2.389,0,0,1,1-2.062A4.915,4.915,0,0,1,8.8,27.836H9.84v-.484a1.393,1.393,0,0,0-.3-.937,1.183,1.183,0,0,0-.949-.352,1.345,1.345,0,0,0-.895.273.929.929,0,0,0-.324.75H5.113a2.268,2.268,0,0,1,.453-1.359,3,3,0,0,1,1.281-.98,4.669,4.669,0,0,1,1.859-.355,3.689,3.689,0,0,1,2.48.785,2.747,2.747,0,0,1,.918,2.207v3.664a4.041,4.041,0,0,0,.336,1.82V33ZM8.293,31.43a1.945,1.945,0,0,0,.922-.223,1.462,1.462,0,0,0,.625-.6V29.156H9q-1.7,0-1.8,1.172l-.008.133a.9.9,0,0,0,.3.7A1.153,1.153,0,0,0,8.293,31.43Zm10.609.711a2.831,2.831,0,0,1-2.312,1.016,2.67,2.67,0,0,1-2.074-.781,3.335,3.335,0,0,1-.73-2.289V24.547h2.258v5.467q0,1.322,1.2,1.322a1.63,1.63,0,0,0,1.578-.8V24.547H21.09V33H18.965ZM25.5,22.469v2.078h1.445V26.2H25.5v4.219a1.007,1.007,0,0,0,.18.672.9.9,0,0,0,.688.2,3.6,3.6,0,0,0,.664-.055v1.711a4.648,4.648,0,0,1-1.367.2,2.156,2.156,0,0,1-2.422-2.4V26.2H22V24.547h1.234V22.469ZM27.613,28.7a5.013,5.013,0,0,1,.484-2.242,3.546,3.546,0,0,1,1.395-1.523,4.069,4.069,0,0,1,2.113-.539A3.849,3.849,0,0,1,34.4,25.438a4.2,4.2,0,0,1,1.207,2.844l.016.578a4.418,4.418,0,0,1-1.086,3.121,3.775,3.775,0,0,1-2.914,1.176A3.793,3.793,0,0,1,28.7,31.984a4.5,4.5,0,0,1-1.09-3.187Zm2.258.16a3.16,3.16,0,0,0,.453,1.843,1.628,1.628,0,0,0,2.578.008,3.457,3.457,0,0,0,.461-2.015A3.128,3.128,0,0,0,32.9,26.86a1.5,1.5,0,0,0-1.3-.649,1.474,1.474,0,0,0-1.281.646A3.516,3.516,0,0,0,29.871,28.856Zm11.031,4.3a4.15,4.15,0,0,1-3.027-1.141,4.054,4.054,0,0,1-1.168-3.039v-.219A5.106,5.106,0,0,1,37.2,26.48a3.612,3.612,0,0,1,1.395-1.547,3.914,3.914,0,0,1,2.059-.543,3.508,3.508,0,0,1,2.73,1.094,4.444,4.444,0,0,1,1,3.1v.922H39a2.1,2.1,0,0,0,.66,1.328,2,2,0,0,0,1.395.5,2.437,2.437,0,0,0,2.039-.945L44.2,31.633a3.389,3.389,0,0,1-1.375,1.121A4.511,4.511,0,0,1,40.9,33.156Zm-.258-6.945a1.411,1.411,0,0,0-1.09.455,2.357,2.357,0,0,0-.535,1.3H42.16v-.181a1.681,1.681,0,0,0-.406-1.165A1.456,1.456,0,0,0,40.645,26.211Zm8.078,4.031,1.57-5.7h2.359L49.8,33H47.645l-2.852-8.453h2.359ZM58.426,33a2.507,2.507,0,0,1-.227-.758,2.732,2.732,0,0,1-2.133.914,3,3,0,0,1-2.059-.719,2.312,2.312,0,0,1-.816-1.812,2.389,2.389,0,0,1,1-2.062,4.915,4.915,0,0,1,2.879-.727h1.039v-.484a1.393,1.393,0,0,0-.3-.937,1.183,1.183,0,0,0-.949-.352,1.345,1.345,0,0,0-.895.273.929.929,0,0,0-.324.75H53.379a2.268,2.268,0,0,1,.453-1.359,3,3,0,0,1,1.281-.98,4.669,4.669,0,0,1,1.859-.355,3.689,3.689,0,0,1,2.48.785,2.747,2.747,0,0,1,.918,2.207v3.664a4.041,4.041,0,0,0,.336,1.82V33Zm-1.867-1.57a1.945,1.945,0,0,0,.922-.223,1.462,1.462,0,0,0,.625-.6V29.156h-.844q-1.7,0-1.8,1.172l-.008.133a.9.9,0,0,0,.3.7A1.153,1.153,0,0,0,56.559,31.43ZM64.488,33H62.223V21h2.266Zm6.922-.859A2.831,2.831,0,0,1,69.1,33.156a2.67,2.67,0,0,1-2.074-.781,3.335,3.335,0,0,1-.73-2.289V24.547h2.258v5.467q0,1.322,1.2,1.322a1.63,1.63,0,0,0,1.578-.8V24.547H73.6V33H71.473ZM80.2,33a2.507,2.507,0,0,1-.227-.758,2.732,2.732,0,0,1-2.133.914,3,3,0,0,1-2.059-.719,2.312,2.312,0,0,1-.816-1.812,2.389,2.389,0,0,1,1-2.062,4.915,4.915,0,0,1,2.879-.727h1.039v-.484a1.393,1.393,0,0,0-.3-.937,1.183,1.183,0,0,0-.949-.352,1.345,1.345,0,0,0-.895.273.929.929,0,0,0-.324.75H75.152a2.268,2.268,0,0,1,.453-1.359,3,3,0,0,1,1.281-.98,4.669,4.669,0,0,1,1.859-.355,3.689,3.689,0,0,1,2.48.785,2.747,2.747,0,0,1,.918,2.207v3.664a4.041,4.041,0,0,0,.336,1.82V33Zm-1.867-1.57a1.945,1.945,0,0,0,.922-.223,1.462,1.462,0,0,0,.625-.6V29.156h-.844q-1.7,0-1.8,1.172l-.008.133a.9.9,0,0,0,.3.7A1.153,1.153,0,0,0,78.332,31.43Zm9.063-.094a1.481,1.481,0,0,0,1.016-.344,1.2,1.2,0,0,0,.406-.914h2.117a2.9,2.9,0,0,1-.469,1.574A3.093,3.093,0,0,1,89.2,32.762a3.949,3.949,0,0,1-1.77.395A3.67,3.67,0,0,1,84.574,32a4.56,4.56,0,0,1-1.047-3.184v-.148a4.508,4.508,0,0,1,1.039-3.117,3.627,3.627,0,0,1,2.852-1.164,3.555,3.555,0,0,1,2.543.9,3.2,3.2,0,0,1,.973,2.4H88.816a1.551,1.551,0,0,0-.406-1.072,1.51,1.51,0,0,0-2.223.163,3.333,3.333,0,0,0-.4,1.866v.235a3.375,3.375,0,0,0,.4,1.878A1.377,1.377,0,0,0,87.395,31.336ZM94.605,33H92.34V24.547h2.266Zm-2.4-10.641a1.112,1.112,0,0,1,.34-.836,1.465,1.465,0,0,1,1.848,0,1.193,1.193,0,0,1,0,1.68,1.448,1.448,0,0,1-1.836,0A1.108,1.108,0,0,1,92.207,22.359ZM96.113,28.7a5.013,5.013,0,0,1,.484-2.242,3.546,3.546,0,0,1,1.395-1.523,4.069,4.069,0,0,1,2.113-.539,3.849,3.849,0,0,1,2.793,1.047,4.2,4.2,0,0,1,1.207,2.844l.016.578a4.418,4.418,0,0,1-1.086,3.121,4.209,4.209,0,0,1-5.832,0,4.5,4.5,0,0,1-1.09-3.187Zm2.258.16a3.16,3.16,0,0,0,.453,1.843,1.628,1.628,0,0,0,2.578.008,3.457,3.457,0,0,0,.461-2.015,3.128,3.128,0,0,0-.461-1.831,1.5,1.5,0,0,0-1.3-.649,1.474,1.474,0,0,0-1.281.646A3.516,3.516,0,0,0,98.371,28.856ZM100.551,21h2.461l-2.164,2.422H99.012Zm7.039,3.547.07.977a2.951,2.951,0,0,1,2.43-1.133,2.453,2.453,0,0,1,2,.789,3.682,3.682,0,0,1,.672,2.359V33H110.5V27.581a1.47,1.47,0,0,0-.312-1.045,1.4,1.4,0,0,0-1.039-.325,1.553,1.553,0,0,0-1.43.814V33h-2.258V24.547Z" transform="translate(741 12035)" fill="#12263f"/>
    <path id="Trazado_776669" data-name="Trazado 776669" d="M18.73,12.016A1.2,1.2,0,0,0,18.262,11a6.148,6.148,0,0,0-1.687-.75,11.963,11.963,0,0,1-1.93-.777,3.153,3.153,0,0,1-1.937-2.82A2.747,2.747,0,0,1,13.227,5a3.389,3.389,0,0,1,1.492-1.129A5.616,5.616,0,0,1,16.9,3.469a5.112,5.112,0,0,1,2.172.441,3.458,3.458,0,0,1,1.48,1.246,3.261,3.261,0,0,1,.527,1.828H18.738a1.534,1.534,0,0,0-.492-1.215,2.023,2.023,0,0,0-1.383-.434,2.162,2.162,0,0,0-1.336.363,1.146,1.146,0,0,0-.477.957,1.1,1.1,0,0,0,.559.93,6.311,6.311,0,0,0,1.645.7,7.106,7.106,0,0,1,2.914,1.492A2.972,2.972,0,0,1,21.082,12a2.737,2.737,0,0,1-1.117,2.316,4.891,4.891,0,0,1-3.008.84,5.808,5.808,0,0,1-2.391-.48,3.783,3.783,0,0,1-1.645-1.316,3.371,3.371,0,0,1-.566-1.937h2.352q0,1.883,2.25,1.883a2.189,2.189,0,0,0,1.3-.34A1.106,1.106,0,0,0,18.73,12.016Zm7.68,3.141a4.15,4.15,0,0,1-3.027-1.141,4.054,4.054,0,0,1-1.168-3.039v-.219a5.106,5.106,0,0,1,.492-2.277A3.612,3.612,0,0,1,24.1,6.934a3.914,3.914,0,0,1,2.059-.543,3.508,3.508,0,0,1,2.73,1.094,4.444,4.444,0,0,1,1,3.1v.922H24.5a2.1,2.1,0,0,0,.66,1.328,2,2,0,0,0,1.395.5,2.437,2.437,0,0,0,2.039-.945l1.109,1.242a3.389,3.389,0,0,1-1.375,1.121A4.511,4.511,0,0,1,26.41,15.156Zm-.258-6.945a1.411,1.411,0,0,0-1.09.455,2.357,2.357,0,0,0-.535,1.3h3.141V9.788a1.681,1.681,0,0,0-.406-1.165A1.456,1.456,0,0,0,26.152,8.211Zm4.688,2.5a4.954,4.954,0,0,1,.926-3.133,3,3,0,0,1,2.5-1.187,2.631,2.631,0,0,1,2.164.953l.094-.8h2.047v8.172a3.613,3.613,0,0,1-.5,1.93,3.236,3.236,0,0,1-1.418,1.25,4.985,4.985,0,0,1-2.141.43,4.635,4.635,0,0,1-1.812-.371A3.217,3.217,0,0,1,31.355,17l1-1.375a2.645,2.645,0,0,0,2.047.945,1.936,1.936,0,0,0,1.4-.48,1.8,1.8,0,0,0,.5-1.363v-.453a2.612,2.612,0,0,1-2.055.883,2.992,2.992,0,0,1-2.465-1.191,4.953,4.953,0,0,1-.941-3.16Zm2.258.161a3.1,3.1,0,0,0,.461,1.809,1.465,1.465,0,0,0,1.266.655,1.567,1.567,0,0,0,1.477-.777V8.988a1.563,1.563,0,0,0-1.461-.777,1.474,1.474,0,0,0-1.277.667A3.5,3.5,0,0,0,33.1,10.872Zm12.266,3.269a2.831,2.831,0,0,1-2.312,1.016,2.67,2.67,0,0,1-2.074-.781,3.335,3.335,0,0,1-.73-2.289V6.547H42.5v5.467q0,1.322,1.2,1.322a1.63,1.63,0,0,0,1.578-.8V6.547h2.266V15H45.426ZM51.637,15H49.371V6.547h2.266Zm-2.4-10.641a1.112,1.112,0,0,1,.34-.836,1.465,1.465,0,0,1,1.848,0,1.105,1.105,0,0,1,.344.836,1.108,1.108,0,0,1-.348.844,1.448,1.448,0,0,1-1.836,0A1.108,1.108,0,0,1,49.238,4.359Zm6.375,2.188.07.945a2.971,2.971,0,0,1,2.43-1.1A2.255,2.255,0,0,1,60.355,7.68a2.9,2.9,0,0,1,2.539-1.289,2.521,2.521,0,0,1,2.047.8,3.681,3.681,0,0,1,.672,2.41V15H63.348V9.6a1.616,1.616,0,0,0-.281-1.053,1.245,1.245,0,0,0-.992-.333,1.409,1.409,0,0,0-1.406.971L60.676,15H58.418V9.6a1.6,1.6,0,0,0-.289-1.065,1.257,1.257,0,0,0-.984-.329,1.463,1.463,0,0,0-1.391.8V15H53.5V6.547ZM69.73,15H67.465V6.547H69.73Zm-2.4-10.641a1.112,1.112,0,0,1,.34-.836,1.465,1.465,0,0,1,1.848,0,1.105,1.105,0,0,1,.344.836,1.108,1.108,0,0,1-.348.844,1.448,1.448,0,0,1-1.836,0A1.108,1.108,0,0,1,67.332,4.359Zm8.148,10.8a4.15,4.15,0,0,1-3.027-1.141,4.054,4.054,0,0,1-1.168-3.039v-.219a5.106,5.106,0,0,1,.492-2.277,3.612,3.612,0,0,1,1.395-1.547,3.914,3.914,0,0,1,2.059-.543,3.508,3.508,0,0,1,2.73,1.094,4.444,4.444,0,0,1,1,3.1v.922H73.574a2.1,2.1,0,0,0,.66,1.328,2,2,0,0,0,1.395.5,2.437,2.437,0,0,0,2.039-.945l1.109,1.242A3.389,3.389,0,0,1,77.4,14.754,4.511,4.511,0,0,1,75.48,15.156Zm-.258-6.945a1.411,1.411,0,0,0-1.09.455,2.357,2.357,0,0,0-.535,1.3h3.141V9.788a1.681,1.681,0,0,0-.406-1.165A1.456,1.456,0,0,0,75.223,8.211Zm7.094-1.664.07.977a2.951,2.951,0,0,1,2.43-1.133,2.453,2.453,0,0,1,2,.789,3.682,3.682,0,0,1,.672,2.359V15H85.23V9.581a1.47,1.47,0,0,0-.312-1.045,1.4,1.4,0,0,0-1.039-.325,1.553,1.553,0,0,0-1.43.814V15H80.191V6.547ZM91.9,4.469V6.547h1.445V8.2H91.9v4.219a1.007,1.007,0,0,0,.18.672.9.9,0,0,0,.688.2,3.6,3.6,0,0,0,.664-.055v1.711a4.648,4.648,0,0,1-1.367.2,2.156,2.156,0,0,1-2.422-2.4V8.2H88.41V6.547h1.234V4.469ZM94.02,10.7A5.013,5.013,0,0,1,94.5,8.453,3.546,3.546,0,0,1,95.9,6.93a4.069,4.069,0,0,1,2.113-.539A3.849,3.849,0,0,1,100.8,7.438a4.2,4.2,0,0,1,1.207,2.844l.016.578a4.418,4.418,0,0,1-1.086,3.121,4.209,4.209,0,0,1-5.832,0A4.5,4.5,0,0,1,94.02,10.8Zm2.258.16A3.16,3.16,0,0,0,96.73,12.7a1.628,1.628,0,0,0,2.578.008,3.457,3.457,0,0,0,.461-2.015,3.128,3.128,0,0,0-.461-1.831,1.5,1.5,0,0,0-1.3-.649,1.474,1.474,0,0,0-1.281.646A3.516,3.516,0,0,0,96.277,10.856Zm15.016,4.3a4.15,4.15,0,0,1-3.027-1.141,4.054,4.054,0,0,1-1.168-3.039v-.219a5.106,5.106,0,0,1,.492-2.277,3.612,3.612,0,0,1,1.395-1.547,3.914,3.914,0,0,1,2.059-.543,3.508,3.508,0,0,1,2.73,1.094,4.444,4.444,0,0,1,1,3.1v.922h-5.383a2.1,2.1,0,0,0,.66,1.328,2,2,0,0,0,1.395.5,2.437,2.437,0,0,0,2.039-.945l1.109,1.242a3.389,3.389,0,0,1-1.375,1.121A4.511,4.511,0,0,1,111.293,15.156Zm-.258-6.945a1.411,1.411,0,0,0-1.09.455,2.357,2.357,0,0,0-.535,1.3h3.141V9.788a1.681,1.681,0,0,0-.406-1.165A1.456,1.456,0,0,0,111.035,8.211ZM8.734,33H6.469V24.547H8.734Zm-2.4-10.641a1.112,1.112,0,0,1,.34-.836A1.277,1.277,0,0,1,7.6,21.2a1.28,1.28,0,0,1,.922.328,1.193,1.193,0,0,1,0,1.68,1.283,1.283,0,0,1-.918.328,1.283,1.283,0,0,1-.918-.328A1.108,1.108,0,0,1,6.336,22.359Zm6.375,2.188.07.945a2.971,2.971,0,0,1,2.43-1.1,2.255,2.255,0,0,1,2.242,1.289,2.9,2.9,0,0,1,2.539-1.289,2.521,2.521,0,0,1,2.047.8,3.681,3.681,0,0,1,.672,2.41V33H20.445V27.6a1.616,1.616,0,0,0-.281-1.053,1.245,1.245,0,0,0-.992-.333,1.409,1.409,0,0,0-1.406.971L17.773,33H15.516V27.6a1.6,1.6,0,0,0-.289-1.065,1.257,1.257,0,0,0-.984-.329,1.463,1.463,0,0,0-1.391.8V33H10.594V24.547Zm19.344,4.3a5.07,5.07,0,0,1-.887,3.129,2.843,2.843,0,0,1-2.395,1.176,2.633,2.633,0,0,1-2.07-.891V36.25H24.445v-11.7h2.094l.078.828a2.654,2.654,0,0,1,2.141-.984,2.862,2.862,0,0,1,2.43,1.156,5.207,5.207,0,0,1,.867,3.188ZM29.8,28.679a3.345,3.345,0,0,0-.418-1.826,1.36,1.36,0,0,0-1.215-.643,1.478,1.478,0,0,0-1.461.815V30.5a1.5,1.5,0,0,0,1.477.839Q29.8,31.336,29.8,28.679ZM35.836,33H33.57V21h2.266Zm5.75.156a4.15,4.15,0,0,1-3.027-1.141,4.054,4.054,0,0,1-1.168-3.039v-.219a5.106,5.106,0,0,1,.492-2.277,3.612,3.612,0,0,1,1.395-1.547,3.914,3.914,0,0,1,2.059-.543,3.508,3.508,0,0,1,2.73,1.094,4.444,4.444,0,0,1,1,3.1v.922H39.68a2.1,2.1,0,0,0,.66,1.328,2,2,0,0,0,1.395.5,2.437,2.437,0,0,0,2.039-.945l1.109,1.242a3.389,3.389,0,0,1-1.375,1.121A4.511,4.511,0,0,1,41.586,33.156Zm-.258-6.945a1.411,1.411,0,0,0-1.09.455,2.357,2.357,0,0,0-.535,1.3h3.141v-.181a1.681,1.681,0,0,0-.406-1.165A1.456,1.456,0,0,0,41.328,26.211Zm7.133-1.664.07.945a2.971,2.971,0,0,1,2.43-1.1A2.255,2.255,0,0,1,53.2,25.68a2.9,2.9,0,0,1,2.539-1.289,2.521,2.521,0,0,1,2.047.8,3.681,3.681,0,0,1,.672,2.41V33H56.2V27.6a1.616,1.616,0,0,0-.281-1.053,1.245,1.245,0,0,0-.992-.333,1.409,1.409,0,0,0-1.406.971L53.523,33H51.266V27.6a1.6,1.6,0,0,0-.289-1.065,1.257,1.257,0,0,0-.984-.329,1.463,1.463,0,0,0-1.391.8V33H46.344V24.547Zm15.625,8.609a4.15,4.15,0,0,1-3.027-1.141,4.054,4.054,0,0,1-1.168-3.039v-.219a5.106,5.106,0,0,1,.492-2.277,3.612,3.612,0,0,1,1.395-1.547,3.914,3.914,0,0,1,2.059-.543,3.508,3.508,0,0,1,2.73,1.094,4.444,4.444,0,0,1,1,3.1v.922H62.18a2.1,2.1,0,0,0,.66,1.328,2,2,0,0,0,1.395.5,2.437,2.437,0,0,0,2.039-.945l1.109,1.242a3.389,3.389,0,0,1-1.375,1.121A4.511,4.511,0,0,1,64.086,33.156Zm-.258-6.945a1.411,1.411,0,0,0-1.09.455,2.357,2.357,0,0,0-.535,1.3h3.141v-.181a1.681,1.681,0,0,0-.406-1.165A1.456,1.456,0,0,0,63.828,26.211Zm7.094-1.664.07.977a2.951,2.951,0,0,1,2.43-1.133,2.453,2.453,0,0,1,2,.789,3.682,3.682,0,0,1,.672,2.359V33H73.836V27.581a1.47,1.47,0,0,0-.312-1.045,1.4,1.4,0,0,0-1.039-.325,1.553,1.553,0,0,0-1.43.814V33H68.8V24.547Zm9.586-2.078v2.078h1.445V26.2H80.508v4.219a1.007,1.007,0,0,0,.18.672.9.9,0,0,0,.688.2,3.6,3.6,0,0,0,.664-.055v1.711a4.648,4.648,0,0,1-1.367.2,2.156,2.156,0,0,1-2.422-2.4V26.2H77.016V24.547H78.25V22.469ZM88.109,33a2.507,2.507,0,0,1-.227-.758,2.732,2.732,0,0,1-2.133.914,3,3,0,0,1-2.059-.719,2.312,2.312,0,0,1-.816-1.812,2.389,2.389,0,0,1,1-2.062,4.915,4.915,0,0,1,2.879-.727h1.039v-.484a1.393,1.393,0,0,0-.3-.937,1.183,1.183,0,0,0-.949-.352,1.345,1.345,0,0,0-.895.273.929.929,0,0,0-.324.75H83.063a2.268,2.268,0,0,1,.453-1.359,3,3,0,0,1,1.281-.98,4.669,4.669,0,0,1,1.859-.355,3.689,3.689,0,0,1,2.48.785,2.747,2.747,0,0,1,.918,2.207v3.664a4.041,4.041,0,0,0,.336,1.82V33Zm-1.867-1.57a1.945,1.945,0,0,0,.922-.223,1.462,1.462,0,0,0,.625-.6V29.156h-.844q-1.7,0-1.8,1.172l-.008.133a.9.9,0,0,0,.3.7A1.153,1.153,0,0,0,86.242,31.43Zm9.063-.094a1.481,1.481,0,0,0,1.016-.344,1.2,1.2,0,0,0,.406-.914h2.117a2.9,2.9,0,0,1-.469,1.574,3.093,3.093,0,0,1-1.262,1.109,3.949,3.949,0,0,1-1.77.395A3.67,3.67,0,0,1,92.484,32a4.56,4.56,0,0,1-1.047-3.184v-.148a4.508,4.508,0,0,1,1.039-3.117,3.627,3.627,0,0,1,2.852-1.164,3.555,3.555,0,0,1,2.543.9,3.2,3.2,0,0,1,.973,2.4H96.727a1.551,1.551,0,0,0-.406-1.072,1.51,1.51,0,0,0-2.223.163,3.333,3.333,0,0,0-.4,1.866v.235a3.375,3.375,0,0,0,.4,1.878A1.377,1.377,0,0,0,95.3,31.336ZM102.516,33H100.25V24.547h2.266Zm-2.4-10.641a1.112,1.112,0,0,1,.34-.836,1.465,1.465,0,0,1,1.848,0,1.193,1.193,0,0,1,0,1.68,1.448,1.448,0,0,1-1.836,0A1.108,1.108,0,0,1,100.117,22.359Zm3.906,6.336a5.013,5.013,0,0,1,.484-2.242A3.546,3.546,0,0,1,105.9,24.93a4.069,4.069,0,0,1,2.113-.539,3.849,3.849,0,0,1,2.793,1.047,4.2,4.2,0,0,1,1.207,2.844l.016.578a4.418,4.418,0,0,1-1.086,3.121,4.209,4.209,0,0,1-5.832,0,4.5,4.5,0,0,1-1.09-3.187Zm2.258.16a3.16,3.16,0,0,0,.453,1.843,1.628,1.628,0,0,0,2.578.008,3.457,3.457,0,0,0,.461-2.015,3.128,3.128,0,0,0-.461-1.831,1.5,1.5,0,0,0-1.3-.649,1.474,1.474,0,0,0-1.281.646A3.516,3.516,0,0,0,106.281,28.856ZM108.461,21h2.461l-2.164,2.422h-1.836Zm7.039,3.547.07.977A2.951,2.951,0,0,1,118,24.391a2.453,2.453,0,0,1,2,.789,3.682,3.682,0,0,1,.672,2.359V33h-2.258V27.581a1.47,1.47,0,0,0-.312-1.045,1.4,1.4,0,0,0-1.039-.325,1.553,1.553,0,0,0-1.43.814V33h-2.258V24.547ZM18.535,46.711a5.094,5.094,0,0,1,.887-3.148,2.877,2.877,0,0,1,2.426-1.172,2.589,2.589,0,0,1,2.039.922V39h2.266V51H24.113L24,50.1a2.657,2.657,0,0,1-2.172,1.055,2.869,2.869,0,0,1-2.395-1.176A5.258,5.258,0,0,1,18.535,46.711Zm2.258.161a3.355,3.355,0,0,0,.414,1.829,1.348,1.348,0,0,0,1.2.636,1.51,1.51,0,0,0,1.477-.887V45.1a1.489,1.489,0,0,0-1.461-.887Q20.793,44.211,20.793,46.872Zm11,4.285a4.15,4.15,0,0,1-3.027-1.141A4.054,4.054,0,0,1,27.6,46.977v-.219a5.106,5.106,0,0,1,.492-2.277,3.612,3.612,0,0,1,1.395-1.547,3.914,3.914,0,0,1,2.059-.543,3.508,3.508,0,0,1,2.73,1.094,4.444,4.444,0,0,1,1,3.1v.922H29.887a2.1,2.1,0,0,0,.66,1.328,2,2,0,0,0,1.395.5,2.437,2.437,0,0,0,2.039-.945l1.109,1.242a3.389,3.389,0,0,1-1.375,1.121A4.511,4.511,0,0,1,31.793,51.156Zm-.258-6.945a1.411,1.411,0,0,0-1.09.455,2.357,2.357,0,0,0-.535,1.3h3.141v-.181a1.681,1.681,0,0,0-.406-1.165A1.456,1.456,0,0,0,31.535,44.211Zm16.609,2.641a5.07,5.07,0,0,1-.887,3.129,2.843,2.843,0,0,1-2.395,1.176,2.633,2.633,0,0,1-2.07-.891V54.25H40.535v-11.7h2.094l.078.828a2.654,2.654,0,0,1,2.141-.984,2.862,2.862,0,0,1,2.43,1.156,5.207,5.207,0,0,1,.867,3.188Zm-2.258-.172a3.345,3.345,0,0,0-.418-1.826,1.36,1.36,0,0,0-1.215-.643,1.478,1.478,0,0,0-1.461.815V48.5a1.5,1.5,0,0,0,1.477.839Q45.887,49.336,45.887,46.679ZM51.926,51H49.66V39h2.266Zm6.758,0a2.507,2.507,0,0,1-.227-.758,2.732,2.732,0,0,1-2.133.914,3,3,0,0,1-2.059-.719,2.312,2.312,0,0,1-.816-1.812,2.389,2.389,0,0,1,1-2.062,4.915,4.915,0,0,1,2.879-.727h1.039v-.484a1.393,1.393,0,0,0-.3-.937,1.183,1.183,0,0,0-.949-.352,1.345,1.345,0,0,0-.895.273.929.929,0,0,0-.324.75H53.637a2.268,2.268,0,0,1,.453-1.359,3,3,0,0,1,1.281-.98,4.669,4.669,0,0,1,1.859-.355,3.689,3.689,0,0,1,2.48.785,2.747,2.747,0,0,1,.918,2.207v3.664a4.041,4.041,0,0,0,.336,1.82V51Zm-1.867-1.57a1.945,1.945,0,0,0,.922-.223,1.462,1.462,0,0,0,.625-.6V47.156H57.52q-1.7,0-1.8,1.172l-.008.133a.9.9,0,0,0,.3.7A1.153,1.153,0,0,0,56.816,49.43Zm7.625-6.883.07.977a2.951,2.951,0,0,1,2.43-1.133,2.453,2.453,0,0,1,2,.789,3.682,3.682,0,0,1,.672,2.359V51H67.355V45.581a1.47,1.47,0,0,0-.312-1.045A1.4,1.4,0,0,0,66,44.211a1.553,1.553,0,0,0-1.43.814V51H62.316V42.547Zm10.773,8.609a4.15,4.15,0,0,1-3.027-1.141,4.054,4.054,0,0,1-1.168-3.039v-.219a5.106,5.106,0,0,1,.492-2.277,3.612,3.612,0,0,1,1.395-1.547,3.914,3.914,0,0,1,2.059-.543,3.508,3.508,0,0,1,2.73,1.094,4.444,4.444,0,0,1,1,3.1v.922H73.309a2.1,2.1,0,0,0,.66,1.328,2,2,0,0,0,1.395.5,2.437,2.437,0,0,0,2.039-.945l1.109,1.242a3.389,3.389,0,0,1-1.375,1.121A4.511,4.511,0,0,1,75.215,51.156Zm-.258-6.945a1.411,1.411,0,0,0-1.09.455,2.357,2.357,0,0,0-.535,1.3h3.141v-.181a1.681,1.681,0,0,0-.406-1.165A1.456,1.456,0,0,0,74.957,44.211Zm9.594,4.453a.727.727,0,0,0-.41-.652,4.659,4.659,0,0,0-1.316-.426q-3.016-.633-3.016-2.562a2.323,2.323,0,0,1,.934-1.879,3.766,3.766,0,0,1,2.441-.754,4.053,4.053,0,0,1,2.574.758,2.388,2.388,0,0,1,.965,1.969H84.465a1.092,1.092,0,0,0-.312-.8A1.322,1.322,0,0,0,83.176,44a1.351,1.351,0,0,0-.883.258.814.814,0,0,0-.312.656.7.7,0,0,0,.355.605,3.657,3.657,0,0,0,1.2.4,9.8,9.8,0,0,1,1.422.379,2.336,2.336,0,0,1,1.789,2.273,2.2,2.2,0,0,1-.992,1.871,4.28,4.28,0,0,1-2.562.715,4.47,4.47,0,0,1-1.887-.379,3.166,3.166,0,0,1-1.293-1.039,2.414,2.414,0,0,1-.469-1.426h2.141a1.179,1.179,0,0,0,.445.922,1.766,1.766,0,0,0,1.109.32,1.635,1.635,0,0,0,.98-.246A.766.766,0,0,0,84.551,48.664Zm7.281-1.953a5.094,5.094,0,0,1,.887-3.148,2.877,2.877,0,0,1,2.426-1.172,2.589,2.589,0,0,1,2.039.922V39h2.266V51H97.41l-.109-.9a2.657,2.657,0,0,1-2.172,1.055,2.869,2.869,0,0,1-2.395-1.176A5.258,5.258,0,0,1,91.832,46.711Zm2.258.161A3.355,3.355,0,0,0,94.5,48.7a1.348,1.348,0,0,0,1.2.636,1.51,1.51,0,0,0,1.477-.887V45.1a1.489,1.489,0,0,0-1.461-.887Q94.09,44.211,94.09,46.872Zm11,4.285a4.15,4.15,0,0,1-3.027-1.141,4.054,4.054,0,0,1-1.168-3.039v-.219a5.106,5.106,0,0,1,.492-2.277,3.612,3.612,0,0,1,1.395-1.547,3.914,3.914,0,0,1,2.059-.543,3.508,3.508,0,0,1,2.73,1.094,4.444,4.444,0,0,1,1,3.1v.922h-5.383a2.1,2.1,0,0,0,.66,1.328,2,2,0,0,0,1.395.5,2.437,2.437,0,0,0,2.039-.945l1.109,1.242a3.389,3.389,0,0,1-1.375,1.121A4.511,4.511,0,0,1,105.09,51.156Zm-.258-6.945a1.411,1.411,0,0,0-1.09.455,2.357,2.357,0,0,0-.535,1.3h3.141v-.181a1.681,1.681,0,0,0-.406-1.165A1.456,1.456,0,0,0,104.832,44.211ZM41.543,60.547l.07.945a2.971,2.971,0,0,1,2.43-1.1,2.255,2.255,0,0,1,2.242,1.289,2.9,2.9,0,0,1,2.539-1.289,2.521,2.521,0,0,1,2.047.8,3.681,3.681,0,0,1,.672,2.41V69H49.277V63.6A1.616,1.616,0,0,0,49,62.544,1.245,1.245,0,0,0,48,62.211a1.409,1.409,0,0,0-1.406.971L46.605,69H44.348V63.6a1.6,1.6,0,0,0-.289-1.065,1.257,1.257,0,0,0-.984-.329,1.463,1.463,0,0,0-1.391.8V69H39.426V60.547Zm15.625,8.609a4.15,4.15,0,0,1-3.027-1.141,4.054,4.054,0,0,1-1.168-3.039v-.219a5.106,5.106,0,0,1,.492-2.277,3.612,3.612,0,0,1,1.395-1.547,3.914,3.914,0,0,1,2.059-.543,3.508,3.508,0,0,1,2.73,1.094,4.444,4.444,0,0,1,1,3.1v.922H55.262a2.1,2.1,0,0,0,.66,1.328,2,2,0,0,0,1.395.5,2.437,2.437,0,0,0,2.039-.945l1.109,1.242a3.389,3.389,0,0,1-1.375,1.121A4.511,4.511,0,0,1,57.168,69.156Zm-.258-6.945a1.411,1.411,0,0,0-1.09.455,2.357,2.357,0,0,0-.535,1.3h3.141v-.181a1.681,1.681,0,0,0-.406-1.165A1.456,1.456,0,0,0,56.91,62.211Zm7.406-1.664v8.914a3.024,3.024,0,0,1-.742,2.176,2.821,2.821,0,0,1-2.141.777,4.591,4.591,0,0,1-1.117-.133V70.492a4.238,4.238,0,0,0,.711.07q1.023,0,1.023-1.086v-8.93Zm-2.445-2.187a1.112,1.112,0,0,1,.34-.836,1.47,1.47,0,0,1,1.852,0,1.2,1.2,0,0,1-.008,1.68,1.448,1.448,0,0,1-1.836,0A1.108,1.108,0,0,1,61.871,58.359ZM65.73,64.7a5.013,5.013,0,0,1,.484-2.242,3.546,3.546,0,0,1,1.395-1.523,4.069,4.069,0,0,1,2.113-.539,3.849,3.849,0,0,1,2.793,1.047,4.2,4.2,0,0,1,1.207,2.844l.016.578a4.418,4.418,0,0,1-1.086,3.121,4.209,4.209,0,0,1-5.832,0A4.5,4.5,0,0,1,65.73,64.8Zm2.258.16a3.16,3.16,0,0,0,.453,1.843,1.628,1.628,0,0,0,2.578.008,3.457,3.457,0,0,0,.461-2.015,3.128,3.128,0,0,0-.461-1.831,1.5,1.5,0,0,0-1.3-.649,1.474,1.474,0,0,0-1.281.646A3.516,3.516,0,0,0,67.988,64.856Zm11.891-2.192a6.134,6.134,0,0,0-.812-.062,1.654,1.654,0,0,0-1.68.867V69H75.129V60.547h2.133l.063,1.008a2.092,2.092,0,0,1,1.883-1.164,2.366,2.366,0,0,1,.7.1ZM85.629,69a2.507,2.507,0,0,1-.227-.758,2.732,2.732,0,0,1-2.133.914,3,3,0,0,1-2.059-.719,2.312,2.312,0,0,1-.816-1.812,2.389,2.389,0,0,1,1-2.062,4.915,4.915,0,0,1,2.879-.727h1.039v-.484a1.393,1.393,0,0,0-.3-.937,1.183,1.183,0,0,0-.949-.352,1.345,1.345,0,0,0-.895.273.929.929,0,0,0-.324.75H80.582a2.268,2.268,0,0,1,.453-1.359,3,3,0,0,1,1.281-.98,4.669,4.669,0,0,1,1.859-.355,3.689,3.689,0,0,1,2.48.785,2.747,2.747,0,0,1,.918,2.207v3.664a4.041,4.041,0,0,0,.336,1.82V69Zm-1.867-1.57a1.945,1.945,0,0,0,.922-.223,1.462,1.462,0,0,0,.625-.6V65.156h-.844q-1.7,0-1.8,1.172l-.008.133a.9.9,0,0,0,.3.7A1.153,1.153,0,0,0,83.762,67.43Z" transform="translate(1000 12020)" fill="#12263f"/>
  </g>
</svg>
